{"glyphs":{"0":{"ha":778,"x_min":106,"x_max":713,"o":"m 346 -8 q 231 18 278 -8 q 158 91 185 44 q 118 199 131 138 q 106 328 106 260 q 109 407 106 365 q 118 488 113 449 q 145 628 128 558 q 190 761 163 699 q 257 873 217 824 q 350 950 297 922 q 474 978 403 978 q 583 952 538 978 q 658 881 629 926 q 699 774 686 836 q 713 639 713 711 q 709 559 713 600 q 700 479 706 518 q 669 324 689 397 q 619 190 649 250 q 549 85 589 129 q 458 16 508 40 q 346 -8 407 -8 m 349 47 q 488 103 429 47 q 585 259 547 160 q 642 486 624 358 q 651 568 649 529 q 654 640 654 607 q 610 846 654 769 q 471 922 567 922 q 325 863 385 922 q 229 702 265 803 q 175 479 193 601 q 166 400 169 440 q 163 325 163 360 q 181 184 163 247 q 239 84 199 121 q 349 47 279 47 z "},"1":{"ha":778,"x_min":235,"x_max":578,"o":"m 385 0 l 496 796 l 513 763 l 235 763 l 242 810 l 428 810 q 482 825 461 810 q 508 876 503 840 l 521 968 l 578 968 l 442 0 l 385 0 z "},"2":{"ha":778,"x_min":31,"x_max":715,"o":"m 31 0 l 39 61 q 152 140 88 96 q 286 235 217 183 q 422 344 356 286 q 541 467 488 403 q 626 601 594 531 q 657 743 657 671 q 608 872 657 824 q 464 921 558 921 q 328 888 386 921 q 233 794 269 854 q 186 653 197 735 l 131 660 q 168 789 140 731 q 239 890 196 847 q 340 954 282 932 q 468 976 399 976 q 600 949 544 976 q 685 869 656 921 q 715 744 715 817 q 684 594 715 667 q 601 457 653 522 q 484 331 550 392 q 349 219 418 271 q 215 122 281 167 q 97 43 149 78 l 99 54 l 660 54 l 653 0 l 31 0 z "},"3":{"ha":779,"x_min":40,"x_max":717,"o":"m 338 -8 q 179 22 246 -8 q 76 108 113 53 q 40 236 40 163 q 41 258 40 246 q 43 282 42 271 l 101 282 q 99 261 100 271 q 99 243 99 251 q 163 99 99 151 q 340 47 226 47 q 495 80 426 47 q 604 170 564 113 q 644 303 644 228 q 619 394 644 358 q 551 451 594 431 q 454 479 508 471 q 343 488 400 488 l 347 535 q 497 558 426 535 q 613 631 568 582 q 657 758 657 681 q 604 876 657 832 q 464 921 551 921 q 341 895 396 921 q 251 823 286 869 q 207 715 215 776 l 150 721 q 205 855 161 797 q 317 944 249 913 q 467 976 385 976 q 598 949 542 976 q 685 875 654 922 q 717 764 717 828 q 683 641 717 694 q 593 554 650 588 q 465 510 536 521 l 465 518 q 574 491 519 514 q 666 422 629 468 q 703 301 703 376 q 656 147 703 217 q 527 34 610 76 q 338 -8 444 -8 z "},"4":{"ha":778,"x_min":19,"x_max":740,"o":"m 482 0 l 515 233 l 19 233 l 25 283 l 615 968 l 676 968 l 581 288 l 740 288 l 731 233 l 572 233 l 540 0 l 482 0 m 71 267 l 69 288 l 522 288 l 608 904 l 614 900 l 71 267 z "},"5":{"ha":778,"x_min":58,"x_max":754,"o":"m 344 -8 q 200 26 263 -8 q 101 122 138 61 q 58 263 64 182 l 115 269 q 183 109 122 171 q 346 47 244 47 q 470 73 414 47 q 567 144 526 99 q 631 246 608 189 q 654 365 654 303 q 597 522 654 461 q 439 583 540 583 q 301 550 368 583 q 182 453 235 517 l 118 476 l 274 968 l 754 968 l 746 914 l 286 914 l 321 938 l 186 507 l 176 510 q 306 606 235 572 q 451 639 376 639 q 591 603 532 639 q 681 505 650 567 q 713 367 713 443 q 685 226 713 293 q 608 106 658 158 q 491 22 558 53 q 344 -8 424 -8 z "},"6":{"ha":778,"x_min":64,"x_max":703,"o":"m 567 968 l 253 538 l 246 550 q 335 597 286 581 q 431 614 383 614 q 571 578 510 614 q 667 482 632 543 q 703 343 703 421 q 674 210 703 274 q 595 97 646 146 q 480 19 544 47 q 342 -8 415 -8 q 199 28 263 -8 q 100 125 136 64 q 64 264 64 186 q 85 378 64 328 q 138 474 106 428 l 500 968 l 567 968 m 422 563 q 312 539 365 563 q 215 474 258 515 q 147 379 172 433 q 122 263 122 325 q 151 153 122 201 q 230 75 179 104 q 344 46 281 46 q 456 69 403 46 q 553 134 510 93 q 620 229 596 175 q 644 343 644 283 q 616 455 644 406 q 537 533 588 504 q 422 563 486 563 z "},"7":{"ha":778,"x_min":121,"x_max":818,"o":"m 125 0 l 753 926 l 765 914 l 121 914 l 128 968 l 818 968 l 811 915 l 189 0 l 125 0 z "},"8":{"ha":778,"x_min":65,"x_max":701,"o":"m 344 -8 q 207 18 271 -8 q 104 98 143 44 q 65 233 65 151 q 93 360 65 300 q 175 463 121 419 q 307 528 229 507 q 219 597 249 549 q 189 706 190 646 q 230 848 188 788 q 340 942 272 908 q 481 976 407 976 q 594 951 544 976 q 672 878 643 925 q 701 765 700 831 q 678 657 701 706 q 614 574 654 608 q 525 525 574 540 q 647 447 604 504 q 690 304 690 389 q 644 144 690 215 q 519 33 597 74 q 344 -8 440 -8 m 344 46 q 494 82 429 46 q 596 178 558 118 q 633 308 633 238 q 574 450 633 399 q 415 501 514 501 q 272 469 338 501 q 165 378 206 436 q 124 242 124 321 q 154 131 124 174 q 235 67 185 88 q 344 46 286 46 m 417 544 q 531 572 479 544 q 613 647 582 599 q 644 758 644 696 q 599 878 644 833 q 478 922 554 922 q 365 894 418 922 q 280 818 313 867 q 247 704 247 769 q 294 588 247 631 q 417 544 340 544 z "},"9":{"ha":778,"x_min":114,"x_max":753,"o":"m 250 0 l 564 431 l 571 418 q 483 372 531 389 q 386 354 435 354 q 246 390 307 354 q 149 488 185 426 q 114 625 114 549 q 142 758 114 694 q 222 872 171 822 q 337 949 272 921 q 475 976 401 976 q 618 941 556 976 q 717 844 681 906 q 753 704 753 782 q 732 590 753 640 q 679 494 711 540 l 317 0 l 250 0 m 394 406 q 505 429 451 406 q 601 494 558 453 q 669 589 644 535 q 694 706 694 643 q 666 816 694 767 q 588 894 638 865 q 472 922 538 922 q 360 899 414 922 q 264 834 307 875 q 197 740 221 793 q 172 625 172 686 q 201 513 172 563 q 280 435 229 464 q 394 406 331 406 z "},"A":{"ha":836,"x_min":-7,"x_max":744,"o":"m -7 0 l 475 968 l 532 968 l 744 0 l 681 0 l 496 889 l 60 0 l -7 0 m 179 268 l 208 322 l 622 322 l 633 268 l 179 268 z "},"Á":{"ha":836,"x_min":-7,"x_max":744,"o":"m -7 0 l 475 968 l 532 968 l 744 0 l 681 0 l 496 889 l 60 0 l -7 0 m 179 268 l 208 322 l 622 322 l 633 268 l 179 268 m 489 1057 l 651 1251 l 715 1251 l 536 1057 l 489 1057 z "},"Ă":{"ha":836,"x_min":-7,"x_max":760,"o":"m -7 0 l 475 968 l 532 968 l 744 0 l 681 0 l 496 889 l 60 0 l -7 0 m 179 268 l 208 322 l 622 322 l 633 268 l 179 268 m 514 1031 q 415 1049 457 1031 q 353 1107 372 1068 q 342 1210 333 1146 l 381 1210 q 406 1104 371 1140 q 522 1068 442 1068 q 651 1103 599 1068 q 721 1210 704 1138 l 760 1210 q 674 1072 738 1114 q 514 1031 611 1031 z "},"Ắ":{"ha":836,"x_min":-7,"x_max":750,"o":"m -7 0 l 475 968 l 532 968 l 744 0 l 681 0 l 496 889 l 60 0 l -7 0 m 179 268 l 208 322 l 622 322 l 633 268 l 179 268 m 504 1031 q 405 1049 447 1031 q 343 1107 363 1068 q 332 1210 324 1146 l 371 1210 q 397 1104 361 1140 q 513 1068 432 1068 q 642 1103 589 1068 q 711 1210 694 1138 l 750 1210 q 665 1072 728 1114 q 504 1031 601 1031 m 508 1207 l 622 1363 l 674 1363 l 550 1207 l 508 1207 z "},"Ặ":{"ha":836,"x_min":-7,"x_max":760,"o":"m -7 0 l 475 968 l 532 968 l 744 0 l 681 0 l 496 889 l 60 0 l -7 0 m 179 268 l 208 322 l 622 322 l 633 268 l 179 268 m 315 -242 l 325 -107 l 397 -107 l 386 -242 l 315 -242 m 514 1031 q 415 1049 457 1031 q 353 1107 372 1068 q 342 1210 333 1146 l 381 1210 q 406 1104 371 1140 q 522 1068 442 1068 q 651 1103 599 1068 q 721 1210 704 1138 l 760 1210 q 674 1072 738 1114 q 514 1031 611 1031 z "},"Ằ":{"ha":836,"x_min":-7,"x_max":761,"o":"m -7 0 l 475 968 l 532 968 l 744 0 l 681 0 l 496 889 l 60 0 l -7 0 m 179 268 l 208 322 l 622 322 l 633 268 l 179 268 m 515 1031 q 416 1049 458 1031 q 354 1107 374 1068 q 343 1210 335 1146 l 382 1210 q 408 1104 372 1140 q 524 1068 443 1068 q 653 1103 600 1068 q 722 1210 706 1138 l 761 1210 q 676 1072 739 1114 q 515 1031 613 1031 m 538 1207 l 453 1363 l 499 1363 l 575 1207 l 538 1207 z "},"Ẳ":{"ha":836,"x_min":-7,"x_max":744,"o":"m -7 0 l 475 968 l 532 968 l 744 0 l 681 0 l 496 889 l 60 0 l -7 0 m 179 268 l 208 322 l 622 322 l 633 268 l 179 268 m 510 1031 q 413 1048 457 1031 q 346 1105 369 1065 q 326 1210 322 1144 l 365 1210 q 400 1104 363 1140 q 515 1068 438 1068 q 647 1103 597 1068 q 706 1210 696 1138 l 744 1210 q 669 1073 731 1115 q 510 1031 608 1031 m 478 1157 l 469 1181 q 533 1194 503 1183 q 582 1224 563 1206 q 601 1275 601 1243 q 562 1330 601 1311 q 472 1349 522 1349 l 450 1349 l 454 1378 l 472 1378 q 596 1347 550 1378 q 638 1264 642 1317 q 613 1209 635 1231 q 557 1175 592 1188 q 478 1157 522 1163 z "},"Ẵ":{"ha":836,"x_min":-7,"x_max":764,"o":"m -7 0 l 475 968 l 532 968 l 744 0 l 681 0 l 496 889 l 60 0 l -7 0 m 179 268 l 208 322 l 622 322 l 633 268 l 179 268 m 514 1031 q 416 1048 460 1031 q 349 1105 372 1065 q 329 1210 326 1144 l 369 1210 q 405 1104 367 1140 q 525 1068 443 1068 q 651 1103 601 1068 q 708 1210 700 1138 l 747 1210 q 673 1073 733 1115 q 514 1031 613 1031 m 635 1240 q 576 1251 599 1240 q 538 1276 554 1263 q 504 1301 522 1290 q 460 1313 486 1313 q 408 1298 431 1313 q 368 1256 385 1283 l 329 1258 q 378 1322 346 1296 q 458 1347 411 1347 q 515 1337 493 1347 q 553 1312 536 1326 q 588 1287 569 1297 q 633 1276 606 1276 q 688 1294 667 1276 q 724 1339 710 1313 l 764 1336 q 718 1270 747 1300 q 635 1240 689 1240 z "},"Ǎ":{"ha":836,"x_min":-7,"x_max":744,"o":"m -7 0 l 475 968 l 532 968 l 744 0 l 681 0 l 496 889 l 60 0 l -7 0 m 179 268 l 208 322 l 622 322 l 633 268 l 179 268 m 517 1047 l 347 1251 l 394 1251 l 522 1100 l 693 1251 l 743 1251 l 517 1047 z "},"Â":{"ha":836,"x_min":-7,"x_max":744,"o":"m -7 0 l 475 968 l 532 968 l 744 0 l 681 0 l 496 889 l 60 0 l -7 0 m 179 268 l 208 322 l 622 322 l 633 268 l 179 268 m 313 1051 l 546 1258 l 718 1051 l 665 1051 l 539 1204 l 369 1051 l 313 1051 z "},"Ấ":{"ha":836,"x_min":-7,"x_max":836,"o":"m -7 0 l 475 968 l 532 968 l 744 0 l 681 0 l 496 889 l 60 0 l -7 0 m 179 268 l 208 322 l 622 322 l 633 268 l 179 268 m 313 1036 l 542 1232 l 717 1036 l 665 1036 l 538 1183 l 367 1036 l 313 1036 m 649 1167 l 785 1358 l 836 1358 l 690 1167 l 649 1167 z "},"Ậ":{"ha":836,"x_min":-7,"x_max":744,"o":"m -7 0 l 475 968 l 532 968 l 744 0 l 681 0 l 496 889 l 60 0 l -7 0 m 179 268 l 208 322 l 622 322 l 633 268 l 179 268 m 315 -242 l 325 -107 l 397 -107 l 386 -242 l 315 -242 m 318 1051 l 546 1258 l 715 1051 l 667 1051 l 540 1204 l 369 1051 l 318 1051 z "},"Ầ":{"ha":836,"x_min":-7,"x_max":769,"o":"m -7 0 l 475 968 l 532 968 l 744 0 l 681 0 l 496 889 l 60 0 l -7 0 m 179 268 l 208 322 l 622 322 l 633 268 l 179 268 m 313 1036 l 542 1232 l 717 1036 l 664 1036 l 538 1183 l 368 1036 l 313 1036 m 729 1167 l 636 1358 l 686 1358 l 768 1167 l 729 1167 z "},"Ẩ":{"ha":836,"x_min":-7,"x_max":833,"o":"m -7 0 l 475 968 l 532 968 l 744 0 l 681 0 l 496 889 l 60 0 l -7 0 m 179 268 l 208 322 l 622 322 l 633 268 l 179 268 m 313 1036 l 542 1232 l 717 1036 l 664 1036 l 538 1183 l 368 1036 l 313 1036 m 665 1139 l 657 1165 q 747 1194 710 1175 q 789 1254 785 1213 q 753 1316 793 1296 q 661 1336 714 1336 l 638 1336 l 643 1371 l 663 1371 q 788 1338 742 1371 q 825 1247 833 1304 q 796 1188 819 1208 q 738 1156 772 1167 q 665 1139 704 1146 z "},"Ẫ":{"ha":836,"x_min":-7,"x_max":768,"o":"m -7 0 l 475 968 l 532 968 l 744 0 l 681 0 l 496 889 l 60 0 l -7 0 m 179 268 l 208 322 l 622 322 l 633 268 l 179 268 m 314 1036 l 543 1232 l 718 1036 l 667 1036 l 539 1183 l 368 1036 l 314 1036 m 640 1261 q 585 1271 607 1261 q 549 1294 564 1281 q 517 1316 533 1307 q 474 1325 500 1325 q 423 1310 444 1325 q 388 1268 401 1296 l 349 1272 q 395 1335 365 1310 q 472 1361 425 1361 q 527 1351 506 1361 q 565 1329 549 1342 q 597 1307 581 1317 q 640 1297 614 1297 q 692 1312 671 1297 q 725 1353 713 1326 l 768 1350 q 721 1287 750 1313 q 640 1261 692 1261 z "},"Ä":{"ha":836,"x_min":-7,"x_max":744,"o":"m -7 0 l 475 968 l 532 968 l 744 0 l 681 0 l 496 889 l 60 0 l -7 0 m 179 268 l 208 322 l 622 322 l 633 268 l 179 268 m 608 1111 l 628 1251 l 697 1251 l 678 1111 l 608 1111 m 374 1111 l 393 1251 l 461 1251 l 443 1111 l 374 1111 z "},"Ạ":{"ha":836,"x_min":-7,"x_max":744,"o":"m -7 0 l 475 968 l 532 968 l 744 0 l 681 0 l 496 889 l 60 0 l -7 0 m 179 268 l 208 322 l 622 322 l 633 268 l 179 268 m 315 -242 l 325 -107 l 397 -107 l 386 -242 l 315 -242 z "},"À":{"ha":836,"x_min":-7,"x_max":744,"o":"m -7 0 l 475 968 l 532 968 l 744 0 l 681 0 l 496 889 l 60 0 l -7 0 m 179 268 l 208 322 l 622 322 l 633 268 l 179 268 m 489 1057 l 344 1251 l 406 1251 l 536 1057 l 489 1057 z "},"Ả":{"ha":836,"x_min":-7,"x_max":744,"o":"m -7 0 l 475 968 l 532 968 l 744 0 l 681 0 l 496 889 l 60 0 l -7 0 m 179 268 l 208 322 l 622 322 l 633 268 l 179 268 m 488 1018 l 482 1044 q 541 1061 511 1051 q 592 1089 571 1071 q 615 1140 614 1107 q 577 1198 617 1181 q 485 1215 538 1215 l 463 1215 l 468 1253 l 486 1253 q 612 1222 563 1253 q 658 1138 661 1192 q 630 1072 657 1094 q 564 1038 603 1049 q 488 1018 525 1026 z "},"Ā":{"ha":836,"x_min":-7,"x_max":744,"o":"m -7 0 l 475 968 l 532 968 l 744 0 l 681 0 l 496 889 l 60 0 l -7 0 m 179 268 l 208 322 l 622 322 l 633 268 l 179 268 m 347 1140 l 351 1178 l 717 1178 l 711 1140 l 347 1140 z "},"Ą":{"ha":836,"x_min":-7,"x_max":779,"o":"m -7 0 l 475 968 l 532 968 l 744 0 l 681 0 l 496 889 l 60 0 l -7 0 m 179 268 l 208 322 l 622 322 l 633 268 l 179 268 m 672 -290 q 592 -264 625 -290 q 560 -187 560 -237 q 578 -112 560 -147 q 628 -46 597 -76 q 692 4 658 -15 l 739 0 q 686 -36 711 -15 q 642 -81 661 -57 q 610 -130 622 -104 q 599 -183 599 -156 q 620 -235 599 -218 q 669 -251 642 -251 q 713 -243 690 -251 q 756 -219 736 -235 l 779 -250 q 726 -281 754 -271 q 672 -290 699 -290 z "},"Å":{"ha":836,"x_min":-7,"x_max":744,"o":"m -7 0 l 475 968 l 532 968 l 744 0 l 681 0 l 496 889 l 60 0 l -7 0 m 179 268 l 208 322 l 622 322 l 633 268 l 179 268 m 503 938 q 424 969 456 938 q 393 1044 393 1000 q 413 1113 393 1082 q 463 1162 432 1143 q 531 1181 494 1181 q 608 1150 576 1181 q 639 1072 639 1119 q 620 1006 639 1036 q 571 956 601 975 q 503 938 540 938 m 506 974 q 574 1002 544 974 q 603 1071 603 1031 q 583 1124 603 1103 q 529 1146 563 1146 q 459 1117 489 1146 q 429 1047 429 1089 q 451 994 429 1014 q 506 974 472 974 z "},"Ǻ":{"ha":836,"x_min":-7,"x_max":794,"o":"m -7 0 l 475 968 l 532 968 l 744 0 l 681 0 l 496 889 l 60 0 l -7 0 m 179 268 l 208 322 l 622 322 l 633 268 l 179 268 m 503 938 q 424 969 456 938 q 393 1044 393 1000 q 413 1113 393 1082 q 463 1162 432 1143 q 531 1181 494 1181 q 608 1150 576 1181 q 639 1072 639 1119 q 620 1006 639 1036 q 571 956 601 975 q 503 938 540 938 m 506 974 q 574 1002 544 974 q 603 1071 603 1031 q 583 1124 603 1103 q 529 1146 563 1146 q 459 1117 489 1146 q 429 1047 429 1089 q 451 994 429 1014 q 506 974 472 974 m 568 1133 l 731 1328 l 794 1328 l 615 1133 l 568 1133 z "},"Ã":{"ha":836,"x_min":-7,"x_max":753,"o":"m -7 0 l 475 968 l 532 968 l 744 0 l 681 0 l 496 889 l 60 0 l -7 0 m 179 268 l 208 322 l 622 322 l 633 268 l 179 268 m 617 1033 q 561 1048 582 1033 q 528 1085 540 1063 q 507 1129 517 1107 q 483 1166 497 1151 q 442 1181 468 1181 q 375 1145 403 1181 q 339 1049 347 1110 l 301 1053 q 351 1174 313 1131 q 443 1217 389 1217 q 494 1202 475 1217 q 525 1165 514 1188 q 547 1121 536 1143 q 574 1084 558 1099 q 617 1069 590 1069 q 678 1109 650 1069 q 715 1211 707 1149 l 753 1208 q 704 1081 742 1128 q 617 1033 667 1033 z "},"Æ":{"ha":1196,"x_min":-7,"x_max":1221,"o":"m -7 0 l 475 968 l 1221 968 l 1214 914 l 672 914 l 617 515 l 1088 515 l 1079 460 l 608 460 l 551 54 l 1094 54 l 1085 0 l 482 0 l 611 915 l 508 915 l 60 0 l -7 0 m 176 268 l 204 325 l 547 325 l 539 268 l 176 268 z "},"Ǽ":{"ha":1196,"x_min":-7,"x_max":1221,"o":"m -7 0 l 475 968 l 1221 968 l 1214 914 l 672 914 l 617 515 l 1088 515 l 1079 460 l 608 460 l 551 54 l 1094 54 l 1085 0 l 482 0 l 611 915 l 508 915 l 60 0 l -7 0 m 176 268 l 204 325 l 547 325 l 539 268 l 176 268 m 668 1057 l 831 1251 l 894 1251 l 715 1057 l 668 1057 z "},"B":{"ha":819,"x_min":78,"x_max":739,"o":"m 78 0 l 214 968 l 489 968 q 674 915 608 968 q 739 767 739 863 q 694 610 739 681 q 565 511 650 540 q 683 444 643 496 q 722 313 722 392 q 681 142 722 211 q 563 36 639 72 q 379 0 486 0 l 78 0 m 146 56 l 379 56 q 590 122 515 56 q 664 313 664 189 q 618 432 664 389 q 485 475 572 475 l 206 475 l 146 56 m 213 529 l 460 529 q 572 558 524 529 q 649 640 621 588 q 678 760 678 692 q 628 873 678 833 q 485 913 578 913 l 267 913 l 213 529 z "},"C":{"ha":971,"x_min":100,"x_max":954,"o":"m 471 -11 q 316 17 385 -11 q 199 97 247 44 q 126 222 151 149 q 100 389 100 296 q 134 608 100 503 q 233 797 168 714 q 391 930 297 881 q 603 979 485 979 q 836 908 746 979 q 954 722 926 838 l 899 704 q 798 863 874 804 q 603 922 722 922 q 413 878 496 922 q 274 758 331 833 q 188 587 217 682 q 158 389 158 492 q 242 138 158 231 q 474 46 325 46 q 688 104 594 46 q 835 267 781 163 l 889 243 q 717 57 826 125 q 471 -11 607 -11 z "},"Ć":{"ha":971,"x_min":100,"x_max":954,"o":"m 471 -11 q 316 17 385 -11 q 199 97 247 44 q 126 222 151 149 q 100 389 100 296 q 134 608 100 503 q 233 797 168 714 q 391 930 297 881 q 603 979 485 979 q 836 908 746 979 q 954 722 926 838 l 899 704 q 798 863 874 804 q 603 922 722 922 q 413 878 496 922 q 274 758 331 833 q 188 587 217 682 q 158 389 158 492 q 242 138 158 231 q 474 46 325 46 q 688 104 594 46 q 835 267 781 163 l 889 243 q 717 57 826 125 q 471 -11 607 -11 m 579 1057 l 742 1251 l 806 1251 l 626 1057 l 579 1057 z "},"Č":{"ha":971,"x_min":100,"x_max":954,"o":"m 471 -11 q 316 17 385 -11 q 199 97 247 44 q 126 222 151 149 q 100 389 100 296 q 134 608 100 503 q 233 797 168 714 q 391 930 297 881 q 603 979 485 979 q 836 908 746 979 q 954 722 926 838 l 899 704 q 798 863 874 804 q 603 922 722 922 q 413 878 496 922 q 274 758 331 833 q 188 587 217 682 q 158 389 158 492 q 242 138 158 231 q 474 46 325 46 q 688 104 594 46 q 835 267 781 163 l 889 243 q 717 57 826 125 q 471 -11 607 -11 m 607 1047 l 438 1251 l 485 1251 l 613 1100 l 783 1251 l 833 1251 l 607 1047 z "},"Ç":{"ha":971,"x_min":100,"x_max":954,"o":"m 471 -11 q 316 17 385 -11 q 199 97 247 44 q 126 222 151 149 q 100 389 100 296 q 134 608 100 503 q 233 797 168 714 q 391 930 297 881 q 603 979 485 979 q 836 908 746 979 q 954 722 926 838 l 899 704 q 798 863 874 804 q 603 922 722 922 q 413 878 496 922 q 274 758 331 833 q 188 587 217 682 q 158 389 158 492 q 242 138 158 231 q 474 46 325 46 q 688 104 594 46 q 835 267 781 163 l 889 243 q 717 57 826 125 q 471 -11 607 -11 m 431 -353 q 358 -333 393 -353 q 304 -276 322 -312 l 331 -250 q 372 -297 343 -279 q 431 -315 400 -315 q 503 -292 478 -315 q 529 -226 529 -269 q 513 -176 529 -196 q 470 -147 496 -157 q 417 -134 444 -137 q 369 -129 390 -131 l 444 7 l 485 7 l 422 -101 q 494 -121 461 -108 q 547 -158 526 -133 q 568 -225 568 -183 q 531 -318 568 -283 q 431 -353 493 -353 z "},"Ĉ":{"ha":971,"x_min":100,"x_max":954,"o":"m 471 -11 q 316 17 385 -11 q 199 97 247 44 q 126 222 151 149 q 100 389 100 296 q 134 608 100 503 q 233 797 168 714 q 391 930 297 881 q 603 979 485 979 q 836 908 746 979 q 954 722 926 838 l 899 704 q 798 863 874 804 q 603 922 722 922 q 413 878 496 922 q 274 758 331 833 q 188 587 217 682 q 158 389 158 492 q 242 138 158 231 q 474 46 325 46 q 688 104 594 46 q 835 267 781 163 l 889 243 q 717 57 826 125 q 471 -11 607 -11 m 403 1051 l 636 1258 l 808 1051 l 756 1051 l 629 1204 l 460 1051 l 403 1051 z "},"Ċ":{"ha":971,"x_min":100,"x_max":954,"o":"m 471 -11 q 316 17 385 -11 q 199 97 247 44 q 126 222 151 149 q 100 389 100 296 q 134 608 100 503 q 233 797 168 714 q 391 930 297 881 q 603 979 485 979 q 836 908 746 979 q 954 722 926 838 l 899 704 q 798 863 874 804 q 603 922 722 922 q 413 878 496 922 q 274 758 331 833 q 188 587 217 682 q 158 389 158 492 q 242 138 158 231 q 474 46 325 46 q 688 104 594 46 q 835 267 781 163 l 889 243 q 717 57 826 125 q 471 -11 607 -11 m 581 1111 l 600 1251 l 671 1251 l 651 1111 l 581 1111 z "},"D":{"ha":957,"x_min":78,"x_max":894,"o":"m 78 0 l 214 968 l 465 968 q 784 865 674 968 q 894 574 894 763 q 860 349 894 453 q 757 166 826 244 q 582 44 688 88 q 332 0 476 0 l 78 0 m 146 56 l 331 56 q 561 97 465 56 q 717 210 657 138 q 806 376 778 282 q 835 575 835 471 q 792 761 835 686 q 665 874 749 836 q 460 913 581 913 l 267 913 l 146 56 z "},"Ð":{"ha":957,"x_min":46,"x_max":894,"o":"m 78 0 l 214 968 l 465 968 q 784 865 674 968 q 894 574 894 763 q 860 349 894 453 q 757 166 826 244 q 582 44 688 88 q 332 0 476 0 l 78 0 m 146 56 l 331 56 q 561 97 465 56 q 717 210 657 138 q 806 376 778 282 q 835 575 835 471 q 792 761 835 686 q 665 874 749 836 q 460 913 581 913 l 267 913 l 146 56 m 46 464 l 51 506 l 379 506 l 374 464 l 46 464 z "},"Ď":{"ha":957,"x_min":78,"x_max":894,"o":"m 78 0 l 214 968 l 465 968 q 784 865 674 968 q 894 574 894 763 q 860 349 894 453 q 757 166 826 244 q 582 44 688 88 q 332 0 476 0 l 78 0 m 146 56 l 331 56 q 561 97 465 56 q 717 210 657 138 q 806 376 778 282 q 835 575 835 471 q 792 761 835 686 q 665 874 749 836 q 460 913 581 913 l 267 913 l 146 56 m 567 1047 l 397 1251 l 444 1251 l 572 1100 l 743 1251 l 793 1251 l 567 1047 z "},"Đ":{"ha":957,"x_min":46,"x_max":894,"o":"m 78 0 l 214 968 l 465 968 q 784 865 674 968 q 894 574 894 763 q 860 349 894 453 q 757 166 826 244 q 582 44 688 88 q 332 0 476 0 l 78 0 m 146 56 l 331 56 q 561 97 465 56 q 717 210 657 138 q 806 376 778 282 q 835 575 835 471 q 792 761 835 686 q 665 874 749 836 q 460 913 581 913 l 267 913 l 146 56 m 46 464 l 51 506 l 379 506 l 374 464 l 46 464 z "},"E":{"ha":817,"x_min":78,"x_max":842,"o":"m 78 0 l 214 968 l 842 968 l 835 914 l 267 914 l 210 517 l 715 517 l 708 463 l 203 463 l 146 54 l 715 54 l 706 0 l 78 0 z "},"É":{"ha":817,"x_min":78,"x_max":842,"o":"m 78 0 l 214 968 l 842 968 l 835 914 l 267 914 l 210 517 l 715 517 l 708 463 l 203 463 l 146 54 l 715 54 l 706 0 l 78 0 m 511 1057 l 674 1251 l 738 1251 l 558 1057 l 511 1057 z "},"Ĕ":{"ha":817,"x_min":78,"x_max":842,"o":"m 78 0 l 214 968 l 842 968 l 835 914 l 267 914 l 210 517 l 715 517 l 708 463 l 203 463 l 146 54 l 715 54 l 706 0 l 78 0 m 538 1031 q 438 1049 481 1031 q 376 1107 396 1068 q 365 1210 357 1146 l 404 1210 q 430 1104 394 1140 q 546 1068 465 1068 q 675 1103 622 1068 q 744 1210 728 1138 l 783 1210 q 698 1072 761 1114 q 538 1031 635 1031 z "},"Ě":{"ha":817,"x_min":78,"x_max":842,"o":"m 78 0 l 214 968 l 842 968 l 835 914 l 267 914 l 210 517 l 715 517 l 708 463 l 203 463 l 146 54 l 715 54 l 706 0 l 78 0 m 540 1047 l 371 1251 l 418 1251 l 546 1100 l 717 1251 l 767 1251 l 540 1047 z "},"Ê":{"ha":817,"x_min":78,"x_max":842,"o":"m 78 0 l 214 968 l 842 968 l 835 914 l 267 914 l 210 517 l 715 517 l 708 463 l 203 463 l 146 54 l 715 54 l 706 0 l 78 0 m 336 1051 l 569 1258 l 742 1051 l 689 1051 l 563 1204 l 393 1051 l 336 1051 z "},"Ế":{"ha":817,"x_min":78,"x_max":860,"o":"m 78 0 l 214 968 l 842 968 l 835 914 l 267 914 l 210 517 l 715 517 l 708 463 l 203 463 l 146 54 l 715 54 l 706 0 l 78 0 m 336 1036 l 565 1232 l 740 1036 l 689 1036 l 561 1183 l 390 1036 l 336 1036 m 672 1167 l 808 1358 l 860 1358 l 714 1167 l 672 1167 z "},"Ệ":{"ha":817,"x_min":78,"x_max":842,"o":"m 78 0 l 214 968 l 842 968 l 835 914 l 267 914 l 210 517 l 715 517 l 708 463 l 203 463 l 146 54 l 715 54 l 706 0 l 78 0 m 338 -242 l 347 -107 l 419 -107 l 408 -242 l 338 -242 m 340 1051 l 568 1258 l 738 1051 l 689 1051 l 563 1204 l 392 1051 l 340 1051 z "},"Ề":{"ha":817,"x_min":78,"x_max":842,"o":"m 78 0 l 214 968 l 842 968 l 835 914 l 267 914 l 210 517 l 715 517 l 708 463 l 203 463 l 146 54 l 715 54 l 706 0 l 78 0 m 336 1036 l 565 1232 l 740 1036 l 688 1036 l 561 1183 l 392 1036 l 336 1036 m 753 1167 l 660 1358 l 710 1358 l 792 1167 l 753 1167 z "},"Ể":{"ha":817,"x_min":78,"x_max":857,"o":"m 78 0 l 214 968 l 842 968 l 835 914 l 267 914 l 210 517 l 715 517 l 708 463 l 203 463 l 146 54 l 715 54 l 706 0 l 78 0 m 336 1036 l 565 1232 l 740 1036 l 688 1036 l 561 1183 l 392 1036 l 336 1036 m 689 1139 l 681 1165 q 771 1194 733 1175 q 813 1254 808 1213 q 777 1316 817 1296 q 685 1336 738 1336 l 661 1336 l 667 1371 l 686 1371 q 811 1338 765 1371 q 849 1247 857 1304 q 819 1188 843 1208 q 762 1156 796 1167 q 689 1139 728 1146 z "},"Ễ":{"ha":817,"x_min":78,"x_max":842,"o":"m 78 0 l 214 968 l 842 968 l 835 914 l 267 914 l 210 517 l 715 517 l 708 463 l 203 463 l 146 54 l 715 54 l 706 0 l 78 0 m 338 1036 l 567 1232 l 742 1036 l 690 1036 l 563 1183 l 392 1036 l 338 1036 m 664 1261 q 609 1271 631 1261 q 572 1294 588 1281 q 540 1316 557 1307 q 497 1325 524 1325 q 447 1310 468 1325 q 411 1268 425 1296 l 372 1272 q 419 1335 389 1310 q 496 1361 449 1361 q 551 1351 529 1361 q 588 1329 572 1342 q 621 1307 604 1317 q 664 1297 638 1297 q 715 1312 694 1297 q 749 1353 736 1326 l 792 1350 q 744 1287 774 1313 q 664 1261 715 1261 z "},"Ë":{"ha":817,"x_min":78,"x_max":842,"o":"m 78 0 l 214 968 l 842 968 l 835 914 l 267 914 l 210 517 l 715 517 l 708 463 l 203 463 l 146 54 l 715 54 l 706 0 l 78 0 m 632 1111 l 651 1251 l 721 1251 l 701 1111 l 632 1111 m 397 1111 l 417 1251 l 485 1251 l 467 1111 l 397 1111 z "},"Ė":{"ha":817,"x_min":78,"x_max":842,"o":"m 78 0 l 214 968 l 842 968 l 835 914 l 267 914 l 210 517 l 715 517 l 708 463 l 203 463 l 146 54 l 715 54 l 706 0 l 78 0 m 514 1111 l 533 1251 l 604 1251 l 585 1111 l 514 1111 z "},"Ẹ":{"ha":817,"x_min":78,"x_max":842,"o":"m 78 0 l 214 968 l 842 968 l 835 914 l 267 914 l 210 517 l 715 517 l 708 463 l 203 463 l 146 54 l 715 54 l 706 0 l 78 0 m 338 -242 l 347 -107 l 419 -107 l 408 -242 l 338 -242 z "},"È":{"ha":817,"x_min":78,"x_max":842,"o":"m 78 0 l 214 968 l 842 968 l 835 914 l 267 914 l 210 517 l 715 517 l 708 463 l 203 463 l 146 54 l 715 54 l 706 0 l 78 0 m 513 1057 l 368 1251 l 429 1251 l 560 1057 l 513 1057 z "},"Ẻ":{"ha":817,"x_min":78,"x_max":842,"o":"m 78 0 l 214 968 l 842 968 l 835 914 l 267 914 l 210 517 l 715 517 l 708 463 l 203 463 l 146 54 l 715 54 l 706 0 l 78 0 m 511 1018 l 506 1044 q 565 1061 535 1051 q 616 1089 594 1071 q 639 1140 638 1107 q 601 1198 640 1181 q 508 1215 561 1215 l 486 1215 l 492 1253 l 510 1253 q 635 1222 586 1253 q 682 1138 685 1192 q 653 1072 681 1094 q 588 1038 626 1049 q 511 1018 549 1026 z "},"Ē":{"ha":817,"x_min":78,"x_max":842,"o":"m 78 0 l 214 968 l 842 968 l 835 914 l 267 914 l 210 517 l 715 517 l 708 463 l 203 463 l 146 54 l 715 54 l 706 0 l 78 0 m 371 1140 l 375 1178 l 740 1178 l 735 1140 l 371 1140 z "},"Ę":{"ha":817,"x_min":78,"x_max":842,"o":"m 78 0 l 214 968 l 842 968 l 835 914 l 267 914 l 210 517 l 715 517 l 708 463 l 203 463 l 146 54 l 715 54 l 706 0 l 78 0 m 640 -290 q 560 -264 593 -290 q 528 -187 528 -237 q 547 -112 528 -147 q 596 -46 565 -76 q 660 4 626 -15 l 707 0 q 654 -36 679 -15 q 610 -81 629 -57 q 578 -130 590 -104 q 567 -183 567 -156 q 588 -235 567 -218 q 638 -251 610 -251 q 681 -243 658 -251 q 724 -219 704 -235 l 747 -250 q 694 -281 722 -271 q 640 -290 667 -290 z "},"Ẽ":{"ha":817,"x_min":78,"x_max":842,"o":"m 78 0 l 214 968 l 842 968 l 835 914 l 267 914 l 210 517 l 715 517 l 708 463 l 203 463 l 146 54 l 715 54 l 706 0 l 78 0 m 640 1033 q 585 1048 606 1033 q 552 1085 564 1063 q 531 1129 540 1107 q 506 1166 521 1151 q 465 1181 492 1181 q 399 1145 426 1181 q 363 1049 371 1110 l 325 1053 q 374 1174 336 1131 q 467 1217 413 1217 q 518 1202 499 1217 q 549 1165 538 1188 q 571 1121 560 1143 q 598 1084 582 1099 q 640 1069 614 1069 q 702 1109 674 1069 q 739 1211 731 1149 l 776 1208 q 728 1081 765 1128 q 640 1033 690 1033 z "},"Ə":{"ha":1024,"x_min":99,"x_max":965,"o":"m 464 -11 q 265 35 347 -11 q 141 167 183 81 q 99 375 99 253 q 101 431 99 403 q 107 489 103 460 l 165 486 q 159 428 161 456 q 157 379 157 401 q 237 133 157 219 q 468 46 317 46 q 677 99 588 46 q 824 253 767 153 q 899 492 881 353 q 903 545 901 514 q 906 596 906 576 q 824 839 906 756 q 588 922 743 922 q 374 868 464 922 q 225 700 283 814 l 172 725 q 344 916 239 853 q 589 979 449 979 q 795 934 711 979 q 922 803 879 889 q 965 594 965 718 q 963 544 965 575 q 957 483 961 513 q 869 217 936 328 q 701 48 803 107 q 464 -11 599 -11 m 131 439 l 138 488 l 944 488 l 938 439 l 131 439 z "},"F":{"ha":792,"x_min":78,"x_max":833,"o":"m 78 0 l 214 968 l 833 968 l 826 914 l 267 914 l 210 517 l 697 517 l 690 463 l 203 463 l 138 0 l 78 0 z "},"G":{"ha":1007,"x_min":100,"x_max":954,"o":"m 468 -11 q 272 38 354 -11 q 144 176 189 86 q 100 389 100 267 q 134 608 100 501 q 233 797 168 714 q 391 930 297 881 q 603 979 485 979 q 836 908 746 979 q 954 722 926 838 l 899 704 q 798 863 874 804 q 603 922 722 922 q 413 878 496 922 q 274 758 331 833 q 188 587 217 682 q 158 389 158 492 q 242 138 158 231 q 474 46 325 46 q 593 63 532 46 q 708 117 654 79 q 801 222 763 156 q 854 388 840 288 l 865 472 l 875 433 l 610 433 l 618 488 l 922 488 l 853 0 l 800 0 l 825 224 l 833 217 q 738 83 797 133 q 609 11 679 33 q 468 -11 539 -11 z "},"Ğ":{"ha":1007,"x_min":100,"x_max":954,"o":"m 468 -11 q 272 38 354 -11 q 144 176 189 86 q 100 389 100 267 q 134 608 100 501 q 233 797 168 714 q 391 930 297 881 q 603 979 485 979 q 836 908 746 979 q 954 722 926 838 l 899 704 q 798 863 874 804 q 603 922 722 922 q 413 878 496 922 q 274 758 331 833 q 188 587 217 682 q 158 389 158 492 q 242 138 158 231 q 474 46 325 46 q 593 63 532 46 q 708 117 654 79 q 801 222 763 156 q 854 388 840 288 l 865 472 l 875 433 l 610 433 l 618 488 l 922 488 l 853 0 l 800 0 l 825 224 l 833 217 q 738 83 797 133 q 609 11 679 33 q 468 -11 539 -11 m 614 1031 q 515 1049 557 1031 q 453 1107 472 1068 q 442 1210 433 1146 l 481 1210 q 506 1104 471 1140 q 622 1068 542 1068 q 751 1103 699 1068 q 821 1210 804 1138 l 860 1210 q 774 1072 838 1114 q 614 1031 711 1031 z "},"Ǧ":{"ha":1007,"x_min":100,"x_max":954,"o":"m 468 -11 q 272 38 354 -11 q 144 176 189 86 q 100 389 100 267 q 134 608 100 501 q 233 797 168 714 q 391 930 297 881 q 603 979 485 979 q 836 908 746 979 q 954 722 926 838 l 899 704 q 798 863 874 804 q 603 922 722 922 q 413 878 496 922 q 274 758 331 833 q 188 587 217 682 q 158 389 158 492 q 242 138 158 231 q 474 46 325 46 q 593 63 532 46 q 708 117 654 79 q 801 222 763 156 q 854 388 840 288 l 865 472 l 875 433 l 610 433 l 618 488 l 922 488 l 853 0 l 800 0 l 825 224 l 833 217 q 738 83 797 133 q 609 11 679 33 q 468 -11 539 -11 m 617 1047 l 447 1251 l 494 1251 l 622 1100 l 793 1251 l 843 1251 l 617 1047 z "},"Ĝ":{"ha":1007,"x_min":100,"x_max":954,"o":"m 468 -11 q 272 38 354 -11 q 144 176 189 86 q 100 389 100 267 q 134 608 100 501 q 233 797 168 714 q 391 930 297 881 q 603 979 485 979 q 836 908 746 979 q 954 722 926 838 l 899 704 q 798 863 874 804 q 603 922 722 922 q 413 878 496 922 q 274 758 331 833 q 188 587 217 682 q 158 389 158 492 q 242 138 158 231 q 474 46 325 46 q 593 63 532 46 q 708 117 654 79 q 801 222 763 156 q 854 388 840 288 l 865 472 l 875 433 l 610 433 l 618 488 l 922 488 l 853 0 l 800 0 l 825 224 l 833 217 q 738 83 797 133 q 609 11 679 33 q 468 -11 539 -11 m 418 1051 l 646 1258 l 815 1051 l 767 1051 l 640 1204 l 469 1051 l 418 1051 z "},"Ģ":{"ha":1007,"x_min":100,"x_max":954,"o":"m 468 -11 q 272 38 354 -11 q 144 176 189 86 q 100 389 100 267 q 134 608 100 501 q 233 797 168 714 q 391 930 297 881 q 603 979 485 979 q 836 908 746 979 q 954 722 926 838 l 899 704 q 798 863 874 804 q 603 922 722 922 q 413 878 496 922 q 274 758 331 833 q 188 587 217 682 q 158 389 158 492 q 242 138 158 231 q 474 46 325 46 q 593 63 532 46 q 708 117 654 79 q 801 222 763 156 q 854 388 840 288 l 865 472 l 875 433 l 610 433 l 618 488 l 922 488 l 853 0 l 800 0 l 825 224 l 833 217 q 738 83 797 133 q 609 11 679 33 q 468 -11 539 -11 m 299 -303 l 438 -79 l 501 -79 l 342 -303 l 299 -303 z "},"Ġ":{"ha":1007,"x_min":100,"x_max":954,"o":"m 468 -11 q 272 38 354 -11 q 144 176 189 86 q 100 389 100 267 q 134 608 100 501 q 233 797 168 714 q 391 930 297 881 q 603 979 485 979 q 836 908 746 979 q 954 722 926 838 l 899 704 q 798 863 874 804 q 603 922 722 922 q 413 878 496 922 q 274 758 331 833 q 188 587 217 682 q 158 389 158 492 q 242 138 158 231 q 474 46 325 46 q 593 63 532 46 q 708 117 654 79 q 801 222 763 156 q 854 388 840 288 l 865 472 l 875 433 l 610 433 l 618 488 l 922 488 l 853 0 l 800 0 l 825 224 l 833 217 q 738 83 797 133 q 609 11 679 33 q 468 -11 539 -11 m 590 1111 l 610 1251 l 681 1251 l 661 1111 l 590 1111 z "},"Ḡ":{"ha":1007,"x_min":100,"x_max":954,"o":"m 468 -11 q 272 38 354 -11 q 144 176 189 86 q 100 389 100 267 q 134 608 100 501 q 233 797 168 714 q 391 930 297 881 q 603 979 485 979 q 836 908 746 979 q 954 722 926 838 l 899 704 q 798 863 874 804 q 603 922 722 922 q 413 878 496 922 q 274 758 331 833 q 188 587 217 682 q 158 389 158 492 q 242 138 158 231 q 474 46 325 46 q 593 63 532 46 q 708 117 654 79 q 801 222 763 156 q 854 388 840 288 l 865 472 l 875 433 l 610 433 l 618 488 l 922 488 l 853 0 l 800 0 l 825 224 l 833 217 q 738 83 797 133 q 609 11 679 33 q 468 -11 539 -11 m 447 1140 l 451 1178 l 817 1178 l 811 1140 l 447 1140 z "},"H":{"ha":917,"x_min":78,"x_max":878,"o":"m 78 0 l 214 968 l 274 968 l 211 521 l 756 521 l 818 968 l 878 968 l 742 0 l 682 0 l 747 464 l 203 464 l 138 0 l 78 0 z "},"Ħ":{"ha":917,"x_min":78,"x_max":951,"o":"m 78 0 l 214 968 l 274 968 l 211 521 l 756 521 l 818 968 l 878 968 l 742 0 l 682 0 l 747 464 l 203 464 l 138 0 l 78 0 m 82 732 l 85 771 l 951 771 l 950 732 l 82 732 z "},"Ĥ":{"ha":917,"x_min":78,"x_max":878,"o":"m 78 0 l 214 968 l 274 968 l 211 521 l 756 521 l 818 968 l 878 968 l 742 0 l 682 0 l 747 464 l 203 464 l 138 0 l 78 0 m 358 1051 l 586 1258 l 756 1051 l 707 1051 l 581 1204 l 410 1051 l 358 1051 z "},"I":{"ha":313,"x_min":78,"x_max":274,"o":"m 78 0 l 214 968 l 274 968 l 138 0 l 78 0 z "},"Ĳ":{"ha":1076,"x_min":78,"x_max":1047,"o":"m 78 0 l 214 968 l 274 968 l 138 0 l 78 0 m 619 -11 q 427 56 499 -11 q 353 240 356 122 l 413 246 q 467 101 415 156 q 621 46 518 46 q 811 125 740 46 q 901 356 882 204 l 981 914 l 575 914 l 582 968 l 1047 968 l 961 349 q 899 152 944 233 q 784 30 854 71 q 619 -11 714 -11 z "},"Í":{"ha":313,"x_min":78,"x_max":453,"o":"m 78 0 l 214 968 l 274 968 l 138 0 l 78 0 m 226 1057 l 389 1251 l 453 1251 l 274 1057 l 226 1057 z "},"Ĭ":{"ha":313,"x_min":71,"x_max":497,"o":"m 78 0 l 214 968 l 274 968 l 138 0 l 78 0 m 253 1031 q 153 1049 196 1031 q 92 1107 111 1068 q 81 1210 72 1146 l 119 1210 q 145 1104 110 1140 q 261 1068 181 1068 q 390 1103 338 1068 q 460 1210 443 1138 l 499 1210 q 413 1072 476 1114 q 253 1031 350 1031 z "},"Ǐ":{"ha":313,"x_min":78,"x_max":482,"o":"m 78 0 l 214 968 l 274 968 l 138 0 l 78 0 m 256 1047 l 86 1251 l 133 1251 l 261 1100 l 432 1251 l 482 1251 l 256 1047 z "},"Î":{"ha":313,"x_min":57,"x_max":454,"o":"m 78 0 l 214 968 l 274 968 l 138 0 l 78 0 m 56 1051 l 283 1258 l 453 1051 l 404 1051 l 278 1204 l 107 1051 l 56 1051 z "},"Ï":{"ha":313,"x_min":78,"x_max":436,"o":"m 78 0 l 214 968 l 274 968 l 138 0 l 78 0 m 347 1111 l 367 1251 l 436 1251 l 417 1111 l 347 1111 m 113 1111 l 132 1251 l 200 1251 l 182 1111 l 113 1111 z "},"İ":{"ha":313,"x_min":78,"x_max":319,"o":"m 78 0 l 214 968 l 274 968 l 138 0 l 78 0 m 229 1111 l 249 1251 l 319 1251 l 300 1111 l 229 1111 z "},"Ị":{"ha":313,"x_min":53,"x_max":274,"o":"m 78 0 l 214 968 l 274 968 l 138 0 l 78 0 m 53 -242 l 63 -107 l 135 -107 l 124 -242 l 53 -242 z "},"Ì":{"ha":313,"x_min":78,"x_max":275,"o":"m 78 0 l 214 968 l 274 968 l 138 0 l 78 0 m 228 1057 l 83 1251 l 144 1251 l 275 1057 l 228 1057 z "},"Ỉ":{"ha":313,"x_min":78,"x_max":400,"o":"m 78 0 l 214 968 l 274 968 l 138 0 l 78 0 m 226 1018 l 221 1044 q 280 1061 250 1051 q 331 1089 310 1071 q 354 1140 353 1107 q 316 1198 356 1181 q 224 1215 276 1215 l 201 1215 l 207 1253 l 225 1253 q 351 1222 301 1253 q 397 1138 400 1192 q 369 1072 396 1094 q 303 1038 342 1049 q 226 1018 264 1026 z "},"Ī":{"ha":313,"x_min":78,"x_max":456,"o":"m 78 0 l 214 968 l 274 968 l 138 0 l 78 0 m 86 1140 l 90 1178 l 456 1178 l 450 1140 l 86 1140 z "},"Į":{"ha":313,"x_min":-42,"x_max":274,"o":"m 78 0 l 214 968 l 274 968 l 138 0 l 78 0 m 71 -290 q -9 -264 24 -290 q -42 -187 -42 -237 q -23 -112 -42 -147 q 26 -46 -4 -76 q 90 4 57 -15 l 138 0 q 85 -36 110 -15 q 40 -81 60 -57 q 9 -130 21 -104 q -3 -183 -3 -156 q 19 -235 -3 -218 q 68 -251 40 -251 q 112 -243 89 -251 q 154 -219 135 -235 l 178 -250 q 125 -281 153 -271 q 71 -290 97 -290 z "},"Ĩ":{"ha":313,"x_min":40,"x_max":492,"o":"m 78 0 l 214 968 l 274 968 l 138 0 l 78 0 m 356 1033 q 300 1048 321 1033 q 267 1085 279 1063 q 246 1129 256 1107 q 222 1166 236 1151 q 181 1181 207 1181 q 114 1145 142 1181 q 78 1049 86 1110 l 40 1053 q 90 1174 51 1131 q 182 1217 128 1217 q 233 1202 214 1217 q 264 1165 253 1188 q 286 1121 275 1143 q 313 1084 297 1099 q 356 1069 329 1069 q 417 1109 389 1069 q 454 1211 446 1149 l 492 1208 q 443 1081 481 1128 q 356 1033 406 1033 z "},"J":{"ha":764,"x_min":40,"x_max":735,"o":"m 307 -11 q 115 56 186 -11 q 40 240 43 122 l 100 246 q 154 101 103 156 q 308 46 206 46 q 499 125 428 46 q 589 356 569 204 l 668 914 l 263 914 l 269 968 l 735 968 l 649 349 q 587 152 632 233 q 472 30 542 71 q 307 -11 401 -11 z "},"Ĵ":{"ha":764,"x_min":40,"x_max":735,"o":"m 307 -11 q 115 56 186 -11 q 40 240 43 122 l 100 246 q 154 101 103 156 q 308 46 206 46 q 499 125 428 46 q 589 356 569 204 l 668 914 l 263 914 l 269 968 l 735 968 l 649 349 q 587 152 632 233 q 472 30 542 71 q 307 -11 401 -11 m 314 1051 l 542 1258 l 711 1051 l 663 1051 l 536 1204 l 365 1051 l 314 1051 z "},"K":{"ha":840,"x_min":78,"x_max":882,"o":"m 169 326 l 179 404 l 800 968 l 882 968 l 169 326 m 78 0 l 214 968 l 274 968 l 138 0 l 78 0 m 679 0 l 406 557 l 454 599 l 749 0 l 679 0 z "},"Ķ":{"ha":840,"x_min":78,"x_max":882,"o":"m 169 326 l 179 404 l 800 968 l 882 968 l 169 326 m 78 0 l 214 968 l 274 968 l 138 0 l 78 0 m 679 0 l 406 557 l 454 599 l 749 0 l 679 0 m 200 -303 l 339 -79 l 403 -79 l 243 -303 l 200 -303 z "},"L":{"ha":672,"x_min":78,"x_max":601,"o":"m 78 0 l 214 968 l 274 968 l 146 54 l 601 54 l 593 0 l 78 0 z "},"Ĺ":{"ha":672,"x_min":78,"x_max":601,"o":"m 78 0 l 214 968 l 274 968 l 146 54 l 601 54 l 593 0 l 78 0 m 226 1057 l 389 1251 l 453 1251 l 274 1057 l 226 1057 z "},"Ľ":{"ha":672,"x_min":78,"x_max":693,"o":"m 78 0 l 214 968 l 274 968 l 146 54 l 601 54 l 593 0 l 78 0 m 529 690 l 631 968 l 693 968 l 567 690 l 529 690 z "},"Ļ":{"ha":672,"x_min":78,"x_max":601,"o":"m 78 0 l 214 968 l 274 968 l 146 54 l 601 54 l 593 0 l 78 0 m 146 -303 l 285 -79 l 349 -79 l 189 -303 l 146 -303 z "},"Ŀ":{"ha":774,"x_min":78,"x_max":707,"o":"m 78 0 l 214 968 l 274 968 l 146 54 l 601 54 l 593 0 l 78 0 m 615 415 l 635 553 l 707 553 l 688 415 l 615 415 z "},"Ł":{"ha":672,"x_min":25,"x_max":601,"o":"m 78 0 l 214 968 l 274 968 l 146 54 l 601 54 l 593 0 l 78 0 m 24 317 l 31 378 l 483 700 l 475 639 l 24 317 z "},"M":{"ha":1136,"x_min":78,"x_max":1097,"o":"m 78 0 l 214 968 l 304 968 l 544 135 l 533 135 l 1006 968 l 1097 968 l 961 0 l 901 0 l 1028 900 l 1031 900 l 561 78 l 501 78 l 261 900 l 265 900 l 138 0 l 78 0 z "},"N":{"ha":915,"x_min":78,"x_max":876,"o":"m 78 0 l 214 968 l 282 968 l 700 75 l 692 75 l 817 968 l 876 968 l 740 0 l 669 0 l 254 893 l 263 893 l 138 0 l 78 0 z "},"Ń":{"ha":915,"x_min":78,"x_max":876,"o":"m 78 0 l 214 968 l 282 968 l 700 75 l 692 75 l 817 968 l 876 968 l 740 0 l 669 0 l 254 893 l 263 893 l 138 0 l 78 0 m 518 1057 l 681 1251 l 744 1251 l 565 1057 l 518 1057 z "},"Ň":{"ha":915,"x_min":78,"x_max":876,"o":"m 78 0 l 214 968 l 282 968 l 700 75 l 692 75 l 817 968 l 876 968 l 740 0 l 669 0 l 254 893 l 263 893 l 138 0 l 78 0 m 547 1047 l 378 1251 l 425 1251 l 553 1100 l 724 1251 l 774 1251 l 547 1047 z "},"Ņ":{"ha":915,"x_min":78,"x_max":876,"o":"m 78 0 l 214 968 l 282 968 l 700 75 l 692 75 l 817 968 l 876 968 l 740 0 l 669 0 l 254 893 l 263 893 l 138 0 l 78 0 m 228 -303 l 367 -79 l 431 -79 l 271 -303 l 228 -303 z "},"Ṅ":{"ha":915,"x_min":78,"x_max":876,"o":"m 78 0 l 214 968 l 282 968 l 700 75 l 692 75 l 817 968 l 876 968 l 740 0 l 669 0 l 254 893 l 263 893 l 138 0 l 78 0 m 521 1111 l 540 1251 l 611 1251 l 592 1111 l 521 1111 z "},"Ɲ":{"ha":915,"x_min":-90,"x_max":876,"o":"m 78 0 l 214 968 l 282 968 l 700 81 l 692 81 l 817 968 l 876 968 l 740 0 l 671 0 l 254 889 l 263 889 l 138 0 l 78 0 m -90 -229 l -87 -186 q 27 -142 -11 -186 q 72 -44 65 -99 q 76 -15 75 -25 q 78 1 78 -4 l 138 0 l 132 -39 q 97 -139 124 -96 q 24 -206 71 -182 q -90 -229 -22 -229 z "},"Ñ":{"ha":915,"x_min":78,"x_max":876,"o":"m 78 0 l 214 968 l 282 968 l 700 75 l 692 75 l 817 968 l 876 968 l 740 0 l 669 0 l 254 893 l 263 893 l 138 0 l 78 0 m 647 1033 q 592 1048 613 1033 q 559 1085 571 1063 q 538 1129 547 1107 q 513 1166 528 1151 q 472 1181 499 1181 q 406 1145 433 1181 q 369 1049 378 1110 l 332 1053 q 381 1174 343 1131 q 474 1217 419 1217 q 525 1202 506 1217 q 556 1165 544 1188 q 578 1121 567 1143 q 605 1084 589 1099 q 647 1069 621 1069 q 709 1109 681 1069 q 746 1211 738 1149 l 783 1208 q 735 1081 772 1128 q 647 1033 697 1033 z "},"Ŋ":{"ha":915,"x_min":78,"x_max":876,"o":"m 526 -229 q 478 -224 504 -229 q 428 -211 451 -219 l 435 -169 q 475 -181 453 -176 q 514 -186 497 -186 q 631 -144 592 -186 q 676 -47 669 -101 q 678 -38 678 -43 q 678 -31 678 -33 q 672 1 678 -11 l 254 889 l 263 889 l 138 0 l 78 0 l 214 968 l 282 968 l 700 81 l 692 81 l 817 968 l 876 968 l 736 -29 q 703 -133 728 -87 q 634 -204 678 -179 q 526 -229 590 -229 z "},"O":{"ha":1039,"x_min":99,"x_max":978,"o":"m 471 -11 q 269 40 353 -11 q 142 182 186 92 q 99 388 99 272 q 133 606 99 500 q 232 795 167 711 q 391 929 297 879 q 604 979 485 979 q 804 930 721 979 q 933 791 888 881 q 978 579 978 701 q 944 360 978 465 q 845 170 910 254 q 686 38 781 86 q 471 -11 592 -11 m 474 46 q 665 90 582 46 q 804 211 747 135 q 890 383 861 288 q 919 582 919 479 q 836 830 919 738 q 603 922 753 922 q 413 876 496 922 q 274 754 331 831 q 188 584 217 678 q 158 392 158 490 q 193 215 158 293 q 299 91 228 136 q 474 46 369 46 z "},"Ó":{"ha":1039,"x_min":99,"x_max":978,"o":"m 471 -11 q 269 40 353 -11 q 142 182 186 92 q 99 388 99 272 q 133 606 99 500 q 232 795 167 711 q 391 929 297 879 q 604 979 485 979 q 804 930 721 979 q 933 791 888 881 q 978 579 978 701 q 944 360 978 465 q 845 170 910 254 q 686 38 781 86 q 471 -11 592 -11 m 474 46 q 665 90 582 46 q 804 211 747 135 q 890 383 861 288 q 919 582 919 479 q 836 830 919 738 q 603 922 753 922 q 413 876 496 922 q 274 754 331 831 q 188 584 217 678 q 158 392 158 490 q 193 215 158 293 q 299 91 228 136 q 474 46 369 46 m 590 1057 l 753 1251 l 817 1251 l 638 1057 l 590 1057 z "},"Ŏ":{"ha":1039,"x_min":99,"x_max":978,"o":"m 471 -11 q 269 40 353 -11 q 142 182 186 92 q 99 388 99 272 q 133 606 99 500 q 232 795 167 711 q 391 929 297 879 q 604 979 485 979 q 804 930 721 979 q 933 791 888 881 q 978 579 978 701 q 944 360 978 465 q 845 170 910 254 q 686 38 781 86 q 471 -11 592 -11 m 474 46 q 665 90 582 46 q 804 211 747 135 q 890 383 861 288 q 919 582 919 479 q 836 830 919 738 q 603 922 753 922 q 413 876 496 922 q 274 754 331 831 q 188 584 217 678 q 158 392 158 490 q 193 215 158 293 q 299 91 228 136 q 474 46 369 46 m 615 1031 q 516 1049 558 1031 q 454 1107 474 1068 q 443 1210 435 1146 l 482 1210 q 508 1104 472 1140 q 624 1068 543 1068 q 753 1103 700 1068 q 822 1210 806 1138 l 861 1210 q 776 1072 839 1114 q 615 1031 713 1031 z "},"Ǒ":{"ha":1039,"x_min":99,"x_max":978,"o":"m 471 -11 q 269 40 353 -11 q 142 182 186 92 q 99 388 99 272 q 133 606 99 500 q 232 795 167 711 q 391 929 297 879 q 604 979 485 979 q 804 930 721 979 q 933 791 888 881 q 978 579 978 701 q 944 360 978 465 q 845 170 910 254 q 686 38 781 86 q 471 -11 592 -11 m 474 46 q 665 90 582 46 q 804 211 747 135 q 890 383 861 288 q 919 582 919 479 q 836 830 919 738 q 603 922 753 922 q 413 876 496 922 q 274 754 331 831 q 188 584 217 678 q 158 392 158 490 q 193 215 158 293 q 299 91 228 136 q 474 46 369 46 m 619 1047 l 450 1251 l 497 1251 l 625 1100 l 796 1251 l 846 1251 l 619 1047 z "},"Ô":{"ha":1039,"x_min":99,"x_max":978,"o":"m 471 -11 q 269 40 353 -11 q 142 182 186 92 q 99 388 99 272 q 133 606 99 500 q 232 795 167 711 q 391 929 297 879 q 604 979 485 979 q 804 930 721 979 q 933 791 888 881 q 978 579 978 701 q 944 360 978 465 q 845 170 910 254 q 686 38 781 86 q 471 -11 592 -11 m 474 46 q 665 90 582 46 q 804 211 747 135 q 890 383 861 288 q 919 582 919 479 q 836 830 919 738 q 603 922 753 922 q 413 876 496 922 q 274 754 331 831 q 188 584 217 678 q 158 392 158 490 q 193 215 158 293 q 299 91 228 136 q 474 46 369 46 m 415 1051 l 649 1258 l 821 1051 l 768 1051 l 642 1204 l 472 1051 l 415 1051 z "},"Ố":{"ha":1039,"x_min":99,"x_max":978,"o":"m 471 -11 q 269 40 353 -11 q 142 182 186 92 q 99 388 99 272 q 133 606 99 500 q 232 795 167 711 q 391 929 297 879 q 604 979 485 979 q 804 930 721 979 q 933 791 888 881 q 978 579 978 701 q 944 360 978 465 q 845 170 910 254 q 686 38 781 86 q 471 -11 592 -11 m 474 46 q 665 90 582 46 q 804 211 747 135 q 890 383 861 288 q 919 582 919 479 q 836 830 919 738 q 603 922 753 922 q 413 876 496 922 q 274 754 331 831 q 188 584 217 678 q 158 392 158 490 q 193 215 158 293 q 299 91 228 136 q 474 46 369 46 m 415 1036 l 644 1232 l 819 1036 l 768 1036 l 640 1183 l 469 1036 l 415 1036 m 751 1167 l 888 1358 l 939 1358 l 793 1167 l 751 1167 z "},"Ộ":{"ha":1039,"x_min":99,"x_max":978,"o":"m 471 -11 q 269 40 353 -11 q 142 182 186 92 q 99 388 99 272 q 133 606 99 500 q 232 795 167 711 q 391 929 297 879 q 604 979 485 979 q 804 930 721 979 q 933 791 888 881 q 978 579 978 701 q 944 360 978 465 q 845 170 910 254 q 686 38 781 86 q 471 -11 592 -11 m 474 46 q 665 90 582 46 q 804 211 747 135 q 890 383 861 288 q 919 582 919 479 q 836 830 919 738 q 603 922 753 922 q 413 876 496 922 q 274 754 331 831 q 188 584 217 678 q 158 392 158 490 q 193 215 158 293 q 299 91 228 136 q 474 46 369 46 m 417 -242 l 426 -107 l 499 -107 l 488 -242 l 417 -242 m 415 1051 l 649 1258 l 821 1051 l 768 1051 l 642 1204 l 472 1051 l 415 1051 z "},"Ồ":{"ha":1039,"x_min":99,"x_max":978,"o":"m 471 -11 q 269 40 353 -11 q 142 182 186 92 q 99 388 99 272 q 133 606 99 500 q 232 795 167 711 q 391 929 297 879 q 604 979 485 979 q 804 930 721 979 q 933 791 888 881 q 978 579 978 701 q 944 360 978 465 q 845 170 910 254 q 686 38 781 86 q 471 -11 592 -11 m 474 46 q 665 90 582 46 q 804 211 747 135 q 890 383 861 288 q 919 582 919 479 q 836 830 919 738 q 603 922 753 922 q 413 876 496 922 q 274 754 331 831 q 188 584 217 678 q 158 392 158 490 q 193 215 158 293 q 299 91 228 136 q 474 46 369 46 m 415 1036 l 644 1232 l 819 1036 l 767 1036 l 640 1183 l 471 1036 l 415 1036 m 832 1167 l 739 1358 l 789 1358 l 871 1167 l 832 1167 z "},"Ổ":{"ha":1039,"x_min":99,"x_max":978,"o":"m 471 -11 q 269 40 353 -11 q 142 182 186 92 q 99 388 99 272 q 133 606 99 500 q 232 795 167 711 q 391 929 297 879 q 604 979 485 979 q 804 930 721 979 q 933 791 888 881 q 978 579 978 701 q 944 360 978 465 q 845 170 910 254 q 686 38 781 86 q 471 -11 592 -11 m 474 46 q 665 90 582 46 q 804 211 747 135 q 890 383 861 288 q 919 582 919 479 q 836 830 919 738 q 603 922 753 922 q 413 876 496 922 q 274 754 331 831 q 188 584 217 678 q 158 392 158 490 q 193 215 158 293 q 299 91 228 136 q 474 46 369 46 m 415 1036 l 644 1232 l 819 1036 l 767 1036 l 640 1183 l 471 1036 l 415 1036 m 768 1139 l 760 1165 q 850 1194 813 1175 q 892 1254 888 1213 q 856 1316 896 1296 q 764 1336 817 1336 l 740 1336 l 746 1371 l 765 1371 q 890 1338 844 1371 q 928 1247 936 1304 q 899 1188 922 1208 q 841 1156 875 1167 q 768 1139 807 1146 z "},"Ỗ":{"ha":1039,"x_min":99,"x_max":978,"o":"m 471 -11 q 269 40 353 -11 q 142 182 186 92 q 99 388 99 272 q 133 606 99 500 q 232 795 167 711 q 391 929 297 879 q 604 979 485 979 q 804 930 721 979 q 933 791 888 881 q 978 579 978 701 q 944 360 978 465 q 845 170 910 254 q 686 38 781 86 q 471 -11 592 -11 m 474 46 q 665 90 582 46 q 804 211 747 135 q 890 383 861 288 q 919 582 919 479 q 836 830 919 738 q 603 922 753 922 q 413 876 496 922 q 274 754 331 831 q 188 584 217 678 q 158 392 158 490 q 193 215 158 293 q 299 91 228 136 q 474 46 369 46 m 415 1036 l 644 1232 l 819 1036 l 768 1036 l 640 1183 l 469 1036 l 415 1036 m 742 1261 q 687 1271 708 1261 q 650 1294 665 1281 q 618 1316 635 1307 q 575 1325 601 1325 q 524 1310 546 1325 q 489 1268 503 1296 l 450 1272 q 497 1335 467 1310 q 574 1361 526 1361 q 628 1351 607 1361 q 666 1329 650 1342 q 699 1307 682 1317 q 742 1297 715 1297 q 793 1312 772 1297 q 826 1353 814 1326 l 869 1350 q 822 1287 851 1313 q 742 1261 793 1261 z "},"Ö":{"ha":1039,"x_min":99,"x_max":978,"o":"m 471 -11 q 269 40 353 -11 q 142 182 186 92 q 99 388 99 272 q 133 606 99 500 q 232 795 167 711 q 391 929 297 879 q 604 979 485 979 q 804 930 721 979 q 933 791 888 881 q 978 579 978 701 q 944 360 978 465 q 845 170 910 254 q 686 38 781 86 q 471 -11 592 -11 m 474 46 q 665 90 582 46 q 804 211 747 135 q 890 383 861 288 q 919 582 919 479 q 836 830 919 738 q 603 922 753 922 q 413 876 496 922 q 274 754 331 831 q 188 584 217 678 q 158 392 158 490 q 193 215 158 293 q 299 91 228 136 q 474 46 369 46 m 710 1111 l 729 1251 l 799 1251 l 779 1111 l 710 1111 m 475 1111 l 494 1251 l 563 1251 l 544 1111 l 475 1111 z "},"Ọ":{"ha":1039,"x_min":99,"x_max":978,"o":"m 471 -11 q 269 40 353 -11 q 142 182 186 92 q 99 388 99 272 q 133 606 99 500 q 232 795 167 711 q 391 929 297 879 q 604 979 485 979 q 804 930 721 979 q 933 791 888 881 q 978 579 978 701 q 944 360 978 465 q 845 170 910 254 q 686 38 781 86 q 471 -11 592 -11 m 474 46 q 665 90 582 46 q 804 211 747 135 q 890 383 861 288 q 919 582 919 479 q 836 830 919 738 q 603 922 753 922 q 413 876 496 922 q 274 754 331 831 q 188 584 217 678 q 158 392 158 490 q 193 215 158 293 q 299 91 228 136 q 474 46 369 46 m 417 -242 l 426 -107 l 499 -107 l 488 -242 l 417 -242 z "},"Ò":{"ha":1039,"x_min":99,"x_max":978,"o":"m 471 -11 q 269 40 353 -11 q 142 182 186 92 q 99 388 99 272 q 133 606 99 500 q 232 795 167 711 q 391 929 297 879 q 604 979 485 979 q 804 930 721 979 q 933 791 888 881 q 978 579 978 701 q 944 360 978 465 q 845 170 910 254 q 686 38 781 86 q 471 -11 592 -11 m 474 46 q 665 90 582 46 q 804 211 747 135 q 890 383 861 288 q 919 582 919 479 q 836 830 919 738 q 603 922 753 922 q 413 876 496 922 q 274 754 331 831 q 188 584 217 678 q 158 392 158 490 q 193 215 158 293 q 299 91 228 136 q 474 46 369 46 m 592 1057 l 447 1251 l 508 1251 l 639 1057 l 592 1057 z "},"Ỏ":{"ha":1039,"x_min":99,"x_max":978,"o":"m 471 -11 q 269 40 353 -11 q 142 182 186 92 q 99 388 99 272 q 133 606 99 500 q 232 795 167 711 q 391 929 297 879 q 604 979 485 979 q 804 930 721 979 q 933 791 888 881 q 978 579 978 701 q 944 360 978 465 q 845 170 910 254 q 686 38 781 86 q 471 -11 592 -11 m 474 46 q 665 90 582 46 q 804 211 747 135 q 890 383 861 288 q 919 582 919 479 q 836 830 919 738 q 603 922 753 922 q 413 876 496 922 q 274 754 331 831 q 188 584 217 678 q 158 392 158 490 q 193 215 158 293 q 299 91 228 136 q 474 46 369 46 m 589 1018 l 583 1044 q 642 1061 613 1051 q 694 1089 672 1071 q 717 1140 715 1107 q 678 1198 718 1181 q 586 1215 639 1215 l 564 1215 l 569 1253 l 588 1253 q 713 1222 664 1253 q 760 1138 763 1192 q 731 1072 758 1094 q 665 1038 704 1049 q 589 1018 626 1026 z "},"Ơ":{"ha":1039,"x_min":99,"x_max":1142,"o":"m 471 -11 q 269 40 353 -11 q 142 182 186 92 q 99 388 99 272 q 133 606 99 500 q 232 795 167 711 q 391 929 297 879 q 604 979 485 979 q 804 930 721 979 q 933 791 888 881 q 978 579 978 701 q 944 360 978 465 q 845 170 910 254 q 686 38 781 86 q 471 -11 592 -11 m 474 46 q 665 90 582 46 q 804 211 747 135 q 890 383 861 288 q 919 582 919 479 q 836 830 919 738 q 603 922 753 922 q 413 876 496 922 q 274 754 331 831 q 188 584 217 678 q 158 392 158 490 q 193 215 158 293 q 299 91 228 136 q 474 46 369 46 m 929 693 l 931 733 q 1042 777 1004 733 q 1089 900 1079 821 l 1099 968 l 1142 968 l 1131 893 q 1069 746 1117 799 q 929 693 1021 693 z "},"Ớ":{"ha":1039,"x_min":99,"x_max":1142,"o":"m 471 -11 q 269 40 353 -11 q 142 182 186 92 q 99 388 99 272 q 133 606 99 500 q 232 795 167 711 q 391 929 297 879 q 604 979 485 979 q 804 930 721 979 q 933 791 888 881 q 978 579 978 701 q 944 360 978 465 q 845 170 910 254 q 686 38 781 86 q 471 -11 592 -11 m 474 46 q 665 90 582 46 q 804 211 747 135 q 890 383 861 288 q 919 582 919 479 q 836 830 919 738 q 603 922 753 922 q 413 876 496 922 q 274 754 331 831 q 188 584 217 678 q 158 392 158 490 q 193 215 158 293 q 299 91 228 136 q 474 46 369 46 m 929 693 l 931 733 q 1042 777 1004 733 q 1089 900 1079 821 l 1099 968 l 1142 968 l 1131 893 q 1069 746 1117 799 q 929 693 1021 693 m 590 1057 l 753 1251 l 817 1251 l 638 1057 l 590 1057 z "},"Ợ":{"ha":1039,"x_min":99,"x_max":1142,"o":"m 471 -11 q 269 40 353 -11 q 142 182 186 92 q 99 388 99 272 q 133 606 99 500 q 232 795 167 711 q 391 929 297 879 q 604 979 485 979 q 804 930 721 979 q 933 791 888 881 q 978 579 978 701 q 944 360 978 465 q 845 170 910 254 q 686 38 781 86 q 471 -11 592 -11 m 474 46 q 665 90 582 46 q 804 211 747 135 q 890 383 861 288 q 919 582 919 479 q 836 830 919 738 q 603 922 753 922 q 413 876 496 922 q 274 754 331 831 q 188 584 217 678 q 158 392 158 490 q 193 215 158 293 q 299 91 228 136 q 474 46 369 46 m 929 693 l 931 733 q 1042 777 1004 733 q 1089 900 1079 821 l 1099 968 l 1142 968 l 1131 893 q 1069 746 1117 799 q 929 693 1021 693 m 417 -242 l 426 -107 l 499 -107 l 488 -242 l 417 -242 z "},"Ờ":{"ha":1039,"x_min":99,"x_max":1142,"o":"m 471 -11 q 269 40 353 -11 q 142 182 186 92 q 99 388 99 272 q 133 606 99 500 q 232 795 167 711 q 391 929 297 879 q 604 979 485 979 q 804 930 721 979 q 933 791 888 881 q 978 579 978 701 q 944 360 978 465 q 845 170 910 254 q 686 38 781 86 q 471 -11 592 -11 m 474 46 q 665 90 582 46 q 804 211 747 135 q 890 383 861 288 q 919 582 919 479 q 836 830 919 738 q 603 922 753 922 q 413 876 496 922 q 274 754 331 831 q 188 584 217 678 q 158 392 158 490 q 193 215 158 293 q 299 91 228 136 q 474 46 369 46 m 929 693 l 931 733 q 1042 777 1004 733 q 1089 900 1079 821 l 1099 968 l 1142 968 l 1131 893 q 1069 746 1117 799 q 929 693 1021 693 m 592 1057 l 447 1251 l 508 1251 l 639 1057 l 592 1057 z "},"Ở":{"ha":1039,"x_min":99,"x_max":1142,"o":"m 471 -11 q 269 40 353 -11 q 142 182 186 92 q 99 388 99 272 q 133 606 99 500 q 232 795 167 711 q 391 929 297 879 q 604 979 485 979 q 804 930 721 979 q 933 791 888 881 q 978 579 978 701 q 944 360 978 465 q 845 170 910 254 q 686 38 781 86 q 471 -11 592 -11 m 474 46 q 665 90 582 46 q 804 211 747 135 q 890 383 861 288 q 919 582 919 479 q 836 830 919 738 q 603 922 753 922 q 413 876 496 922 q 274 754 331 831 q 188 584 217 678 q 158 392 158 490 q 193 215 158 293 q 299 91 228 136 q 474 46 369 46 m 929 693 l 931 733 q 1042 777 1004 733 q 1089 900 1079 821 l 1099 968 l 1142 968 l 1131 893 q 1069 746 1117 799 q 929 693 1021 693 m 589 1018 l 583 1044 q 642 1061 613 1051 q 694 1089 672 1071 q 717 1140 715 1107 q 678 1198 718 1181 q 586 1215 639 1215 l 564 1215 l 569 1253 l 588 1253 q 713 1222 664 1253 q 760 1138 763 1192 q 731 1072 758 1094 q 665 1038 704 1049 q 589 1018 626 1026 z "},"Ỡ":{"ha":1039,"x_min":99,"x_max":1142,"o":"m 471 -11 q 269 40 353 -11 q 142 182 186 92 q 99 388 99 272 q 133 606 99 500 q 232 795 167 711 q 391 929 297 879 q 604 979 485 979 q 804 930 721 979 q 933 791 888 881 q 978 579 978 701 q 944 360 978 465 q 845 170 910 254 q 686 38 781 86 q 471 -11 592 -11 m 474 46 q 665 90 582 46 q 804 211 747 135 q 890 383 861 288 q 919 582 919 479 q 836 830 919 738 q 603 922 753 922 q 413 876 496 922 q 274 754 331 831 q 188 584 217 678 q 158 392 158 490 q 193 215 158 293 q 299 91 228 136 q 474 46 369 46 m 929 693 l 931 733 q 1042 777 1004 733 q 1089 900 1079 821 l 1099 968 l 1142 968 l 1131 893 q 1069 746 1117 799 q 929 693 1021 693 m 718 1033 q 663 1048 683 1033 q 630 1085 642 1063 q 608 1129 618 1107 q 584 1166 599 1151 q 543 1181 569 1181 q 476 1145 504 1181 q 440 1049 449 1110 l 403 1053 q 452 1174 414 1131 q 544 1217 490 1217 q 596 1202 576 1217 q 626 1165 615 1188 q 649 1121 638 1143 q 676 1084 660 1099 q 718 1069 692 1069 q 780 1109 751 1069 q 817 1211 808 1149 l 854 1208 q 806 1081 843 1128 q 718 1033 768 1033 z "},"Ő":{"ha":1039,"x_min":99,"x_max":978,"o":"m 471 -11 q 269 40 353 -11 q 142 182 186 92 q 99 388 99 272 q 133 606 99 500 q 232 795 167 711 q 391 929 297 879 q 604 979 485 979 q 804 930 721 979 q 933 791 888 881 q 978 579 978 701 q 944 360 978 465 q 845 170 910 254 q 686 38 781 86 q 471 -11 592 -11 m 474 46 q 665 90 582 46 q 804 211 747 135 q 890 383 861 288 q 919 582 919 479 q 836 830 919 738 q 603 922 753 922 q 413 876 496 922 q 274 754 331 831 q 188 584 217 678 q 158 392 158 490 q 193 215 158 293 q 299 91 228 136 q 474 46 369 46 m 706 1057 l 864 1251 l 925 1251 l 754 1057 l 706 1057 m 486 1057 l 643 1251 l 697 1251 l 533 1057 l 486 1057 z "},"Ō":{"ha":1039,"x_min":99,"x_max":978,"o":"m 471 -11 q 269 40 353 -11 q 142 182 186 92 q 99 388 99 272 q 133 606 99 500 q 232 795 167 711 q 391 929 297 879 q 604 979 485 979 q 804 930 721 979 q 933 791 888 881 q 978 579 978 701 q 944 360 978 465 q 845 170 910 254 q 686 38 781 86 q 471 -11 592 -11 m 474 46 q 665 90 582 46 q 804 211 747 135 q 890 383 861 288 q 919 582 919 479 q 836 830 919 738 q 603 922 753 922 q 413 876 496 922 q 274 754 331 831 q 188 584 217 678 q 158 392 158 490 q 193 215 158 293 q 299 91 228 136 q 474 46 369 46 m 450 1140 l 454 1178 l 819 1178 l 814 1140 l 450 1140 z "},"Ǫ":{"ha":1039,"x_min":99,"x_max":978,"o":"m 471 -11 q 269 40 353 -11 q 142 182 186 92 q 99 388 99 272 q 133 606 99 500 q 232 795 167 711 q 391 929 297 879 q 604 979 485 979 q 804 930 721 979 q 933 791 888 881 q 978 579 978 701 q 944 360 978 465 q 845 170 910 254 q 686 38 781 86 q 471 -11 592 -11 m 474 46 q 665 90 582 46 q 804 211 747 135 q 890 383 861 288 q 919 582 919 479 q 836 830 919 738 q 603 922 753 922 q 413 876 496 922 q 274 754 331 831 q 188 584 217 678 q 158 392 158 490 q 193 215 158 293 q 299 91 228 136 q 474 46 369 46 m 496 -290 q 416 -264 449 -290 q 383 -187 383 -237 q 402 -112 383 -147 q 451 -46 421 -76 q 515 4 482 -15 l 563 0 q 510 -36 535 -15 q 465 -81 485 -57 q 434 -130 446 -104 q 422 -183 422 -156 q 444 -235 422 -218 q 493 -251 465 -251 q 537 -243 514 -251 q 579 -219 560 -235 l 603 -250 q 550 -281 578 -271 q 496 -290 522 -290 z "},"Ø":{"ha":1039,"x_min":99,"x_max":978,"o":"m 471 -11 q 269 40 353 -11 q 142 182 186 92 q 99 388 99 272 q 133 606 99 500 q 232 795 167 711 q 391 929 297 879 q 604 979 485 979 q 804 930 721 979 q 933 791 888 881 q 978 579 978 701 q 944 360 978 465 q 845 170 910 254 q 686 38 781 86 q 471 -11 592 -11 m 474 46 q 665 90 582 46 q 804 211 747 135 q 890 383 861 288 q 919 582 919 479 q 836 830 919 738 q 603 922 753 922 q 413 876 496 922 q 274 754 331 831 q 188 584 217 678 q 158 392 158 490 q 193 215 158 293 q 299 91 228 136 q 474 46 369 46 m 125 0 l 910 968 l 954 968 l 169 0 l 125 0 z "},"Ǿ":{"ha":1039,"x_min":99,"x_max":978,"o":"m 471 -11 q 269 40 353 -11 q 142 182 186 92 q 99 388 99 272 q 133 606 99 500 q 232 795 167 711 q 391 929 297 879 q 604 979 485 979 q 804 930 721 979 q 933 791 888 881 q 978 579 978 701 q 944 360 978 465 q 845 170 910 254 q 686 38 781 86 q 471 -11 592 -11 m 474 46 q 665 90 582 46 q 804 211 747 135 q 890 383 861 288 q 919 582 919 479 q 836 830 919 738 q 603 922 753 922 q 413 876 496 922 q 274 754 331 831 q 188 584 217 678 q 158 392 158 490 q 193 215 158 293 q 299 91 228 136 q 474 46 369 46 m 125 0 l 910 968 l 954 968 l 169 0 l 125 0 m 590 1057 l 753 1251 l 817 1251 l 638 1057 l 590 1057 z "},"Õ":{"ha":1039,"x_min":99,"x_max":978,"o":"m 471 -11 q 269 40 353 -11 q 142 182 186 92 q 99 388 99 272 q 133 606 99 500 q 232 795 167 711 q 391 929 297 879 q 604 979 485 979 q 804 930 721 979 q 933 791 888 881 q 978 579 978 701 q 944 360 978 465 q 845 170 910 254 q 686 38 781 86 q 471 -11 592 -11 m 474 46 q 665 90 582 46 q 804 211 747 135 q 890 383 861 288 q 919 582 919 479 q 836 830 919 738 q 603 922 753 922 q 413 876 496 922 q 274 754 331 831 q 188 584 217 678 q 158 392 158 490 q 193 215 158 293 q 299 91 228 136 q 474 46 369 46 m 718 1033 q 663 1048 683 1033 q 630 1085 642 1063 q 608 1129 618 1107 q 584 1166 599 1151 q 543 1181 569 1181 q 476 1145 504 1181 q 440 1049 449 1110 l 403 1053 q 452 1174 414 1131 q 544 1217 490 1217 q 596 1202 576 1217 q 626 1165 615 1188 q 649 1121 638 1143 q 676 1084 660 1099 q 718 1069 692 1069 q 780 1109 751 1069 q 817 1211 808 1149 l 854 1208 q 806 1081 843 1128 q 718 1033 768 1033 z "},"Œ":{"ha":1460,"x_min":99,"x_max":1486,"o":"m 531 0 q 210 98 321 0 q 99 381 99 196 q 135 610 99 504 q 242 797 171 717 q 418 923 313 878 q 663 968 524 968 l 1486 968 l 1478 914 l 908 914 l 854 517 l 1357 517 l 1350 463 l 846 463 l 789 54 l 1357 54 l 1350 0 l 531 0 m 540 56 l 729 56 l 850 913 l 658 913 q 435 870 529 913 q 279 753 340 828 q 188 584 218 679 q 158 382 158 489 q 202 200 158 272 q 331 92 246 128 q 540 56 417 56 z "},"P":{"ha":758,"x_min":78,"x_max":749,"o":"m 78 0 l 214 968 l 467 968 q 675 910 601 968 q 749 743 749 851 q 705 578 749 647 q 581 471 661 508 q 394 433 501 433 l 197 433 l 136 0 l 78 0 m 206 488 l 394 488 q 608 555 528 488 q 689 742 689 622 q 629 869 689 825 q 457 914 569 914 l 265 914 l 206 488 z "},"Þ":{"ha":871,"x_min":146,"x_max":792,"o":"m 146 0 l 282 968 l 338 968 l 318 826 l 521 826 q 721 768 650 826 q 792 603 792 710 q 792 581 792 593 q 789 556 792 568 q 678 362 771 432 q 438 292 586 292 l 243 292 l 201 0 l 146 0 m 250 343 l 442 343 q 642 400 565 343 q 735 563 719 457 q 738 585 738 574 q 738 600 738 597 q 676 732 738 686 q 506 778 615 778 l 311 778 l 250 343 z "},"Q":{"ha":1060,"x_min":100,"x_max":978,"o":"m 471 -11 q 272 38 356 -11 q 144 176 189 86 q 100 389 100 267 q 133 606 100 500 q 232 797 167 713 q 391 930 297 881 q 604 979 485 979 q 804 930 721 979 q 933 791 888 881 q 978 579 978 701 q 944 359 978 465 q 845 169 910 253 q 686 38 781 86 q 471 -11 592 -11 m 882 -49 l 575 300 l 614 339 l 922 -12 l 882 -49 m 474 46 q 665 90 582 46 q 804 210 747 135 q 890 382 861 286 q 919 582 919 478 q 836 831 919 740 q 603 922 753 922 q 412 877 494 922 q 273 756 329 832 q 188 585 217 681 q 158 388 158 490 q 242 138 158 229 q 474 46 325 46 z "},"R":{"ha":811,"x_min":78,"x_max":749,"o":"m 78 0 l 214 968 l 467 968 q 678 911 607 968 q 749 750 749 854 q 717 607 749 671 q 624 501 686 543 q 465 446 561 458 q 419 444 443 444 q 372 443 396 443 l 200 443 l 138 0 l 78 0 m 638 0 l 440 454 l 499 461 l 703 0 l 638 0 m 207 497 l 396 497 q 609 562 529 497 q 689 744 689 626 q 628 872 689 831 q 457 914 568 914 l 267 914 l 207 497 z "},"Ŕ":{"ha":811,"x_min":78,"x_max":749,"o":"m 78 0 l 214 968 l 467 968 q 678 911 607 968 q 749 750 749 854 q 717 607 749 671 q 624 501 686 543 q 465 446 561 458 q 419 444 443 444 q 372 443 396 443 l 200 443 l 138 0 l 78 0 m 638 0 l 440 454 l 499 461 l 703 0 l 638 0 m 207 497 l 396 497 q 609 562 529 497 q 689 744 689 626 q 628 872 689 831 q 457 914 568 914 l 267 914 l 207 497 m 464 1057 l 626 1251 l 690 1251 l 511 1057 l 464 1057 z "},"Ř":{"ha":811,"x_min":78,"x_max":749,"o":"m 78 0 l 214 968 l 467 968 q 678 911 607 968 q 749 750 749 854 q 717 607 749 671 q 624 501 686 543 q 465 446 561 458 q 419 444 443 444 q 372 443 396 443 l 200 443 l 138 0 l 78 0 m 638 0 l 440 454 l 499 461 l 703 0 l 638 0 m 207 497 l 396 497 q 609 562 529 497 q 689 744 689 626 q 628 872 689 831 q 457 914 568 914 l 267 914 l 207 497 m 493 1047 l 324 1251 l 371 1251 l 499 1100 l 669 1251 l 719 1251 l 493 1047 z "},"Ŗ":{"ha":811,"x_min":78,"x_max":749,"o":"m 78 0 l 214 968 l 467 968 q 678 911 607 968 q 749 750 749 854 q 717 607 749 671 q 624 501 686 543 q 465 446 561 458 q 419 444 443 444 q 372 443 396 443 l 200 443 l 138 0 l 78 0 m 638 0 l 440 454 l 499 461 l 703 0 l 638 0 m 207 497 l 396 497 q 609 562 529 497 q 689 744 689 626 q 628 872 689 831 q 457 914 568 914 l 267 914 l 207 497 m 174 -303 l 313 -79 l 376 -79 l 217 -303 l 174 -303 z "},"S":{"ha":769,"x_min":57,"x_max":719,"o":"m 364 -11 q 206 22 275 -11 q 99 113 138 54 q 57 251 60 172 l 115 264 q 190 100 118 157 q 369 43 261 43 q 503 71 446 43 q 592 149 560 99 q 624 263 624 199 q 594 367 624 328 q 516 434 565 407 q 404 486 467 461 q 286 544 338 513 q 206 620 235 575 q 178 729 178 665 q 211 851 178 794 q 307 944 244 908 q 454 979 369 979 q 618 940 549 979 q 719 825 688 900 l 668 799 q 588 892 643 860 q 454 925 532 925 q 338 899 388 925 q 263 828 289 872 q 236 731 236 783 q 263 639 236 674 q 336 581 290 604 q 439 533 382 557 q 565 472 510 506 q 651 390 619 439 q 683 265 683 342 q 642 119 683 182 q 528 23 600 57 q 364 -11 456 -11 z "},"Ś":{"ha":769,"x_min":57,"x_max":719,"o":"m 364 -11 q 206 22 275 -11 q 99 113 138 54 q 57 251 60 172 l 115 264 q 190 100 118 157 q 369 43 261 43 q 503 71 446 43 q 592 149 560 99 q 624 263 624 199 q 594 367 624 328 q 516 434 565 407 q 404 486 467 461 q 286 544 338 513 q 206 620 235 575 q 178 729 178 665 q 211 851 178 794 q 307 944 244 908 q 454 979 369 979 q 618 940 549 979 q 719 825 688 900 l 668 799 q 588 892 643 860 q 454 925 532 925 q 338 899 388 925 q 263 828 289 872 q 236 731 236 783 q 263 639 236 674 q 336 581 290 604 q 439 533 382 557 q 565 472 510 506 q 651 390 619 439 q 683 265 683 342 q 642 119 683 182 q 528 23 600 57 q 364 -11 456 -11 m 456 1057 l 618 1251 l 682 1251 l 503 1057 l 456 1057 z "},"Š":{"ha":769,"x_min":57,"x_max":719,"o":"m 364 -11 q 206 22 275 -11 q 99 113 138 54 q 57 251 60 172 l 115 264 q 190 100 118 157 q 369 43 261 43 q 503 71 446 43 q 592 149 560 99 q 624 263 624 199 q 594 367 624 328 q 516 434 565 407 q 404 486 467 461 q 286 544 338 513 q 206 620 235 575 q 178 729 178 665 q 211 851 178 794 q 307 944 244 908 q 454 979 369 979 q 618 940 549 979 q 719 825 688 900 l 668 799 q 588 892 643 860 q 454 925 532 925 q 338 899 388 925 q 263 828 289 872 q 236 731 236 783 q 263 639 236 674 q 336 581 290 604 q 439 533 382 557 q 565 472 510 506 q 651 390 619 439 q 683 265 683 342 q 642 119 683 182 q 528 23 600 57 q 364 -11 456 -11 m 485 1047 l 315 1251 l 363 1251 l 490 1100 l 661 1251 l 711 1251 l 485 1047 z "},"Ş":{"ha":769,"x_min":57,"x_max":719,"o":"m 364 -11 q 206 22 275 -11 q 99 113 138 54 q 57 251 60 172 l 115 264 q 190 100 118 157 q 369 43 261 43 q 503 71 446 43 q 592 149 560 99 q 624 263 624 199 q 594 367 624 328 q 516 434 565 407 q 404 486 467 461 q 286 544 338 513 q 206 620 235 575 q 178 729 178 665 q 211 851 178 794 q 307 944 244 908 q 454 979 369 979 q 618 940 549 979 q 719 825 688 900 l 668 799 q 588 892 643 860 q 454 925 532 925 q 338 899 388 925 q 263 828 289 872 q 236 731 236 783 q 263 639 236 674 q 336 581 290 604 q 439 533 382 557 q 565 472 510 506 q 651 390 619 439 q 683 265 683 342 q 642 119 683 182 q 528 23 600 57 q 364 -11 456 -11 m 307 -353 q 234 -333 269 -353 q 181 -276 199 -312 l 207 -250 q 248 -297 219 -279 q 307 -315 276 -315 q 380 -292 354 -315 q 406 -226 406 -269 q 389 -176 406 -196 q 347 -147 372 -157 q 294 -134 321 -137 q 246 -129 267 -131 l 321 7 l 361 7 l 299 -101 q 370 -121 338 -108 q 424 -158 403 -133 q 444 -225 444 -183 q 407 -318 444 -283 q 307 -353 369 -353 z "},"Ŝ":{"ha":769,"x_min":57,"x_max":719,"o":"m 364 -11 q 206 22 275 -11 q 99 113 138 54 q 57 251 60 172 l 115 264 q 190 100 118 157 q 369 43 261 43 q 503 71 446 43 q 592 149 560 99 q 624 263 624 199 q 594 367 624 328 q 516 434 565 407 q 404 486 467 461 q 286 544 338 513 q 206 620 235 575 q 178 729 178 665 q 211 851 178 794 q 307 944 244 908 q 454 979 369 979 q 618 940 549 979 q 719 825 688 900 l 668 799 q 588 892 643 860 q 454 925 532 925 q 338 899 388 925 q 263 828 289 872 q 236 731 236 783 q 263 639 236 674 q 336 581 290 604 q 439 533 382 557 q 565 472 510 506 q 651 390 619 439 q 683 265 683 342 q 642 119 683 182 q 528 23 600 57 q 364 -11 456 -11 m 281 1051 l 514 1258 l 686 1051 l 633 1051 l 507 1204 l 338 1051 l 281 1051 z "},"Ș":{"ha":769,"x_min":57,"x_max":719,"o":"m 364 -11 q 206 22 275 -11 q 99 113 138 54 q 57 251 60 172 l 115 264 q 190 100 118 157 q 369 43 261 43 q 503 71 446 43 q 592 149 560 99 q 624 263 624 199 q 594 367 624 328 q 516 434 565 407 q 404 486 467 461 q 286 544 338 513 q 206 620 235 575 q 178 729 178 665 q 211 851 178 794 q 307 944 244 908 q 454 979 369 979 q 618 940 549 979 q 719 825 688 900 l 668 799 q 588 892 643 860 q 454 925 532 925 q 338 899 388 925 q 263 828 289 872 q 236 731 236 783 q 263 639 236 674 q 336 581 290 604 q 439 533 382 557 q 565 472 510 506 q 651 390 619 439 q 683 265 683 342 q 642 119 683 182 q 528 23 600 57 q 364 -11 456 -11 m 165 -303 l 304 -79 l 368 -79 l 208 -303 l 165 -303 z "},"ẞ":{"ha":997,"x_min":78,"x_max":968,"o":"m 78 0 l 214 968 l 968 968 l 961 914 l 267 914 l 138 0 l 78 0 m 572 -11 q 422 22 486 -11 q 324 115 358 56 q 288 251 289 175 l 347 264 q 413 99 349 156 q 576 43 476 43 q 722 78 660 43 q 819 169 783 113 q 854 286 854 225 q 824 377 854 342 q 744 438 793 413 q 636 488 694 464 q 519 543 571 514 q 438 613 468 572 q 408 715 408 653 q 437 821 408 772 q 517 901 465 869 q 635 936 568 932 l 685 924 q 574 894 624 922 q 497 822 525 867 q 468 718 468 776 q 495 637 468 669 q 569 581 522 604 q 671 533 615 557 q 791 477 736 507 q 880 404 846 447 q 914 293 914 361 q 868 138 914 207 q 744 29 822 69 q 572 -11 667 -11 z "},"T":{"ha":826,"x_min":111,"x_max":882,"o":"m 335 0 l 463 914 l 111 914 l 118 968 l 882 968 l 875 914 l 524 914 l 394 0 l 335 0 z "},"Ŧ":{"ha":826,"x_min":111,"x_max":882,"o":"m 335 0 l 463 914 l 111 914 l 118 968 l 882 968 l 875 914 l 524 914 l 394 0 l 335 0 m 264 464 l 269 506 l 597 506 l 592 464 l 264 464 z "},"Ť":{"ha":826,"x_min":111,"x_max":882,"o":"m 335 0 l 463 914 l 111 914 l 118 968 l 882 968 l 875 914 l 524 914 l 394 0 l 335 0 m 511 1047 l 342 1251 l 389 1251 l 517 1100 l 688 1251 l 738 1251 l 511 1047 z "},"Ţ":{"ha":826,"x_min":111,"x_max":882,"o":"m 335 0 l 463 914 l 111 914 l 118 968 l 882 968 l 875 914 l 524 914 l 394 0 l 335 0 m 335 -353 q 262 -333 297 -353 q 208 -276 226 -312 l 235 -250 q 276 -297 247 -279 q 335 -315 304 -315 q 408 -292 382 -315 q 433 -226 433 -269 q 417 -176 433 -196 q 374 -147 400 -157 q 322 -134 349 -137 q 274 -129 294 -131 l 349 7 l 389 7 l 326 -101 q 398 -121 365 -108 q 451 -158 431 -133 q 472 -225 472 -183 q 435 -318 472 -283 q 335 -353 397 -353 z "},"Ț":{"ha":826,"x_min":111,"x_max":882,"o":"m 335 0 l 463 914 l 111 914 l 118 968 l 882 968 l 875 914 l 524 914 l 394 0 l 335 0 m 193 -303 l 332 -79 l 396 -79 l 236 -303 l 193 -303 z "},"U":{"ha":904,"x_min":111,"x_max":876,"o":"m 404 -11 q 185 61 260 -11 q 111 271 111 133 q 113 308 111 286 q 117 351 114 329 l 203 968 l 263 968 l 178 354 q 174 312 175 332 q 172 274 172 292 q 230 103 172 163 q 406 44 288 44 q 567 82 500 44 q 676 190 635 119 q 732 361 717 260 l 817 968 l 876 968 l 790 356 q 663 80 764 171 q 404 -11 561 -11 z "},"Ú":{"ha":904,"x_min":111,"x_max":876,"o":"m 404 -11 q 185 61 260 -11 q 111 271 111 133 q 113 308 111 286 q 117 351 114 329 l 203 968 l 263 968 l 178 354 q 174 312 175 332 q 172 274 172 292 q 230 103 172 163 q 406 44 288 44 q 567 82 500 44 q 676 190 635 119 q 732 361 717 260 l 817 968 l 876 968 l 790 356 q 663 80 764 171 q 404 -11 561 -11 m 522 1057 l 685 1251 l 749 1251 l 569 1057 l 522 1057 z "},"Ŭ":{"ha":904,"x_min":111,"x_max":876,"o":"m 404 -11 q 185 61 260 -11 q 111 271 111 133 q 113 308 111 286 q 117 351 114 329 l 203 968 l 263 968 l 178 354 q 174 312 175 332 q 172 274 172 292 q 230 103 172 163 q 406 44 288 44 q 567 82 500 44 q 676 190 635 119 q 732 361 717 260 l 817 968 l 876 968 l 790 356 q 663 80 764 171 q 404 -11 561 -11 m 547 1031 q 448 1049 490 1031 q 386 1107 406 1068 q 375 1210 367 1146 l 414 1210 q 440 1104 404 1140 q 556 1068 475 1068 q 685 1103 632 1068 q 754 1210 738 1138 l 793 1210 q 708 1072 771 1114 q 547 1031 644 1031 z "},"Ǔ":{"ha":904,"x_min":111,"x_max":876,"o":"m 404 -11 q 185 61 260 -11 q 111 271 111 133 q 113 308 111 286 q 117 351 114 329 l 203 968 l 263 968 l 178 354 q 174 312 175 332 q 172 274 172 292 q 230 103 172 163 q 406 44 288 44 q 567 82 500 44 q 676 190 635 119 q 732 361 717 260 l 817 968 l 876 968 l 790 356 q 663 80 764 171 q 404 -11 561 -11 m 551 1047 l 382 1251 l 429 1251 l 557 1100 l 728 1251 l 778 1251 l 551 1047 z "},"Û":{"ha":904,"x_min":111,"x_max":876,"o":"m 404 -11 q 185 61 260 -11 q 111 271 111 133 q 113 308 111 286 q 117 351 114 329 l 203 968 l 263 968 l 178 354 q 174 312 175 332 q 172 274 172 292 q 230 103 172 163 q 406 44 288 44 q 567 82 500 44 q 676 190 635 119 q 732 361 717 260 l 817 968 l 876 968 l 790 356 q 663 80 764 171 q 404 -11 561 -11 m 347 1051 l 581 1258 l 753 1051 l 700 1051 l 574 1204 l 404 1051 l 347 1051 z "},"Ü":{"ha":904,"x_min":111,"x_max":876,"o":"m 404 -11 q 185 61 260 -11 q 111 271 111 133 q 113 308 111 286 q 117 351 114 329 l 203 968 l 263 968 l 178 354 q 174 312 175 332 q 172 274 172 292 q 230 103 172 163 q 406 44 288 44 q 567 82 500 44 q 676 190 635 119 q 732 361 717 260 l 817 968 l 876 968 l 790 356 q 663 80 764 171 q 404 -11 561 -11 m 642 1111 l 661 1251 l 731 1251 l 711 1111 l 642 1111 m 407 1111 l 426 1251 l 494 1251 l 476 1111 l 407 1111 z "},"Ụ":{"ha":904,"x_min":111,"x_max":876,"o":"m 404 -11 q 185 61 260 -11 q 111 271 111 133 q 113 308 111 286 q 117 351 114 329 l 203 968 l 263 968 l 178 354 q 174 312 175 332 q 172 274 172 292 q 230 103 172 163 q 406 44 288 44 q 567 82 500 44 q 676 190 635 119 q 732 361 717 260 l 817 968 l 876 968 l 790 356 q 663 80 764 171 q 404 -11 561 -11 m 349 -242 l 358 -107 l 431 -107 l 419 -242 l 349 -242 z "},"Ù":{"ha":904,"x_min":111,"x_max":876,"o":"m 404 -11 q 185 61 260 -11 q 111 271 111 133 q 113 308 111 286 q 117 351 114 329 l 203 968 l 263 968 l 178 354 q 174 312 175 332 q 172 274 172 292 q 230 103 172 163 q 406 44 288 44 q 567 82 500 44 q 676 190 635 119 q 732 361 717 260 l 817 968 l 876 968 l 790 356 q 663 80 764 171 q 404 -11 561 -11 m 524 1057 l 379 1251 l 440 1251 l 571 1057 l 524 1057 z "},"Ủ":{"ha":904,"x_min":111,"x_max":876,"o":"m 404 -11 q 185 61 260 -11 q 111 271 111 133 q 113 308 111 286 q 117 351 114 329 l 203 968 l 263 968 l 178 354 q 174 312 175 332 q 172 274 172 292 q 230 103 172 163 q 406 44 288 44 q 567 82 500 44 q 676 190 635 119 q 732 361 717 260 l 817 968 l 876 968 l 790 356 q 663 80 764 171 q 404 -11 561 -11 m 521 1018 l 515 1044 q 574 1061 544 1051 q 626 1089 604 1071 q 649 1140 647 1107 q 610 1198 650 1181 q 518 1215 571 1215 l 496 1215 l 501 1253 l 519 1253 q 645 1222 596 1253 q 692 1138 694 1192 q 663 1072 690 1094 q 597 1038 636 1049 q 521 1018 558 1026 z "},"Ư":{"ha":985,"x_min":111,"x_max":1028,"o":"m 404 -11 q 185 61 260 -11 q 111 271 111 133 q 113 308 111 286 q 117 351 114 329 l 203 968 l 263 968 l 178 354 q 174 312 175 332 q 172 274 172 292 q 230 103 172 163 q 406 44 288 44 q 567 82 500 44 q 676 190 635 119 q 732 361 717 260 l 817 968 l 876 968 l 790 356 q 663 80 764 171 q 404 -11 561 -11 m 815 693 l 817 733 q 928 777 890 733 q 975 900 965 821 l 985 968 l 1028 968 l 1017 893 q 955 746 1003 799 q 815 693 907 693 z "},"Ứ":{"ha":985,"x_min":111,"x_max":1028,"o":"m 404 -11 q 185 61 260 -11 q 111 271 111 133 q 113 308 111 286 q 117 351 114 329 l 203 968 l 263 968 l 178 354 q 174 312 175 332 q 172 274 172 292 q 230 103 172 163 q 406 44 288 44 q 567 82 500 44 q 676 190 635 119 q 732 361 717 260 l 817 968 l 876 968 l 790 356 q 663 80 764 171 q 404 -11 561 -11 m 815 693 l 817 733 q 928 777 890 733 q 975 900 965 821 l 985 968 l 1028 968 l 1017 893 q 955 746 1003 799 q 815 693 907 693 m 522 1057 l 685 1251 l 749 1251 l 569 1057 l 522 1057 z "},"Ự":{"ha":985,"x_min":111,"x_max":1028,"o":"m 404 -11 q 185 61 260 -11 q 111 271 111 133 q 113 308 111 286 q 117 351 114 329 l 203 968 l 263 968 l 178 354 q 174 312 175 332 q 172 274 172 292 q 230 103 172 163 q 406 44 288 44 q 567 82 500 44 q 676 190 635 119 q 732 361 717 260 l 817 968 l 876 968 l 790 356 q 663 80 764 171 q 404 -11 561 -11 m 815 693 l 817 733 q 928 777 890 733 q 975 900 965 821 l 985 968 l 1028 968 l 1017 893 q 955 746 1003 799 q 815 693 907 693 m 349 -242 l 358 -107 l 431 -107 l 419 -242 l 349 -242 z "},"Ừ":{"ha":985,"x_min":111,"x_max":1028,"o":"m 404 -11 q 185 61 260 -11 q 111 271 111 133 q 113 308 111 286 q 117 351 114 329 l 203 968 l 263 968 l 178 354 q 174 312 175 332 q 172 274 172 292 q 230 103 172 163 q 406 44 288 44 q 567 82 500 44 q 676 190 635 119 q 732 361 717 260 l 817 968 l 876 968 l 790 356 q 663 80 764 171 q 404 -11 561 -11 m 815 693 l 817 733 q 928 777 890 733 q 975 900 965 821 l 985 968 l 1028 968 l 1017 893 q 955 746 1003 799 q 815 693 907 693 m 524 1057 l 379 1251 l 440 1251 l 571 1057 l 524 1057 z "},"Ử":{"ha":985,"x_min":111,"x_max":1028,"o":"m 404 -11 q 185 61 260 -11 q 111 271 111 133 q 113 308 111 286 q 117 351 114 329 l 203 968 l 263 968 l 178 354 q 174 312 175 332 q 172 274 172 292 q 230 103 172 163 q 406 44 288 44 q 567 82 500 44 q 676 190 635 119 q 732 361 717 260 l 817 968 l 876 968 l 790 356 q 663 80 764 171 q 404 -11 561 -11 m 815 693 l 817 733 q 928 777 890 733 q 975 900 965 821 l 985 968 l 1028 968 l 1017 893 q 955 746 1003 799 q 815 693 907 693 m 521 1018 l 515 1044 q 574 1061 544 1051 q 626 1089 604 1071 q 649 1140 647 1107 q 610 1198 650 1181 q 518 1215 571 1215 l 496 1215 l 501 1253 l 519 1253 q 645 1222 596 1253 q 692 1138 694 1192 q 663 1072 690 1094 q 597 1038 636 1049 q 521 1018 558 1026 z "},"Ữ":{"ha":985,"x_min":111,"x_max":1028,"o":"m 404 -11 q 185 61 260 -11 q 111 271 111 133 q 113 308 111 286 q 117 351 114 329 l 203 968 l 263 968 l 178 354 q 174 312 175 332 q 172 274 172 292 q 230 103 172 163 q 406 44 288 44 q 567 82 500 44 q 676 190 635 119 q 732 361 717 260 l 817 968 l 876 968 l 790 356 q 663 80 764 171 q 404 -11 561 -11 m 815 693 l 817 733 q 928 777 890 733 q 975 900 965 821 l 985 968 l 1028 968 l 1017 893 q 955 746 1003 799 q 815 693 907 693 m 650 1033 q 594 1048 615 1033 q 562 1085 574 1063 q 540 1129 550 1107 q 516 1166 531 1151 q 475 1181 501 1181 q 408 1145 436 1181 q 372 1049 381 1110 l 335 1053 q 384 1174 346 1131 q 476 1217 422 1217 q 528 1202 508 1217 q 558 1165 547 1188 q 581 1121 569 1143 q 608 1084 592 1099 q 650 1069 624 1069 q 712 1109 683 1069 q 749 1211 740 1149 l 786 1208 q 738 1081 775 1128 q 650 1033 700 1033 z "},"Ű":{"ha":904,"x_min":111,"x_max":876,"o":"m 404 -11 q 185 61 260 -11 q 111 271 111 133 q 113 308 111 286 q 117 351 114 329 l 203 968 l 263 968 l 178 354 q 174 312 175 332 q 172 274 172 292 q 230 103 172 163 q 406 44 288 44 q 567 82 500 44 q 676 190 635 119 q 732 361 717 260 l 817 968 l 876 968 l 790 356 q 663 80 764 171 q 404 -11 561 -11 m 638 1057 l 796 1251 l 857 1251 l 686 1057 l 638 1057 m 418 1057 l 575 1251 l 629 1251 l 465 1057 l 418 1057 z "},"Ū":{"ha":904,"x_min":111,"x_max":876,"o":"m 404 -11 q 185 61 260 -11 q 111 271 111 133 q 113 308 111 286 q 117 351 114 329 l 203 968 l 263 968 l 178 354 q 174 312 175 332 q 172 274 172 292 q 230 103 172 163 q 406 44 288 44 q 567 82 500 44 q 676 190 635 119 q 732 361 717 260 l 817 968 l 876 968 l 790 356 q 663 80 764 171 q 404 -11 561 -11 m 382 1140 l 386 1178 l 751 1178 l 746 1140 l 382 1140 z "},"Ų":{"ha":904,"x_min":111,"x_max":876,"o":"m 404 -11 q 185 61 260 -11 q 111 271 111 133 q 113 308 111 286 q 117 351 114 329 l 203 968 l 263 968 l 178 354 q 174 312 175 332 q 172 274 172 292 q 230 103 172 163 q 406 44 288 44 q 567 82 500 44 q 676 190 635 119 q 732 361 717 260 l 817 968 l 876 968 l 790 356 q 663 80 764 171 q 404 -11 561 -11 m 424 -290 q 344 -264 376 -290 q 311 -187 311 -237 q 330 -112 311 -147 q 379 -46 349 -76 q 443 4 410 -15 l 490 0 q 438 -36 463 -15 q 393 -81 413 -57 q 362 -130 374 -104 q 350 -183 350 -156 q 372 -235 350 -218 q 421 -251 393 -251 q 465 -243 442 -251 q 507 -219 488 -235 l 531 -250 q 478 -281 506 -271 q 424 -290 450 -290 z "},"Ů":{"ha":904,"x_min":111,"x_max":876,"o":"m 404 -11 q 185 61 260 -11 q 111 271 111 133 q 113 308 111 286 q 117 351 114 329 l 203 968 l 263 968 l 178 354 q 174 312 175 332 q 172 274 172 292 q 230 103 172 163 q 406 44 288 44 q 567 82 500 44 q 676 190 635 119 q 732 361 717 260 l 817 968 l 876 968 l 790 356 q 663 80 764 171 q 404 -11 561 -11 m 540 950 q 462 981 493 950 q 431 1057 431 1013 q 450 1125 431 1094 q 501 1174 469 1156 q 568 1193 532 1193 q 645 1163 614 1193 q 676 1085 676 1132 q 658 1018 676 1049 q 608 969 639 988 q 540 950 578 950 m 543 986 q 611 1015 582 986 q 640 1083 640 1043 q 620 1137 640 1115 q 567 1158 600 1158 q 497 1130 526 1158 q 467 1060 467 1101 q 488 1006 467 1026 q 543 986 510 986 z "},"Ũ":{"ha":904,"x_min":111,"x_max":876,"o":"m 404 -11 q 185 61 260 -11 q 111 271 111 133 q 113 308 111 286 q 117 351 114 329 l 203 968 l 263 968 l 178 354 q 174 312 175 332 q 172 274 172 292 q 230 103 172 163 q 406 44 288 44 q 567 82 500 44 q 676 190 635 119 q 732 361 717 260 l 817 968 l 876 968 l 790 356 q 663 80 764 171 q 404 -11 561 -11 m 650 1033 q 594 1048 615 1033 q 562 1085 574 1063 q 540 1129 550 1107 q 516 1166 531 1151 q 475 1181 501 1181 q 408 1145 436 1181 q 372 1049 381 1110 l 335 1053 q 384 1174 346 1131 q 476 1217 422 1217 q 528 1202 508 1217 q 558 1165 547 1188 q 581 1121 569 1143 q 608 1084 592 1099 q 650 1069 624 1069 q 712 1109 683 1069 q 749 1211 740 1149 l 786 1208 q 738 1081 775 1128 q 650 1033 700 1033 z "},"V":{"ha":894,"x_min":128,"x_max":943,"o":"m 374 0 l 128 968 l 192 968 l 415 71 l 404 71 l 876 968 l 943 968 l 426 0 l 374 0 z "},"W":{"ha":1300,"x_min":136,"x_max":1339,"o":"m 274 0 l 136 968 l 199 968 l 321 86 l 699 918 l 761 918 l 904 86 l 1275 968 l 1339 968 l 929 0 l 864 0 l 717 847 l 726 847 l 339 0 l 274 0 z "},"Ẃ":{"ha":1300,"x_min":136,"x_max":1339,"o":"m 274 0 l 136 968 l 199 968 l 321 86 l 699 918 l 761 918 l 904 86 l 1275 968 l 1339 968 l 929 0 l 864 0 l 717 847 l 726 847 l 339 0 l 274 0 m 721 1057 l 883 1251 l 947 1251 l 768 1057 l 721 1057 z "},"Ŵ":{"ha":1300,"x_min":136,"x_max":1339,"o":"m 274 0 l 136 968 l 199 968 l 321 86 l 699 918 l 761 918 l 904 86 l 1275 968 l 1339 968 l 929 0 l 864 0 l 717 847 l 726 847 l 339 0 l 274 0 m 546 1051 l 779 1258 l 951 1051 l 899 1051 l 772 1204 l 603 1051 l 546 1051 z "},"Ẅ":{"ha":1300,"x_min":136,"x_max":1339,"o":"m 274 0 l 136 968 l 199 968 l 321 86 l 699 918 l 761 918 l 904 86 l 1275 968 l 1339 968 l 929 0 l 864 0 l 717 847 l 726 847 l 339 0 l 274 0 m 840 1111 l 860 1251 l 929 1251 l 910 1111 l 840 1111 m 606 1111 l 625 1251 l 693 1251 l 675 1111 l 606 1111 z "},"Ẁ":{"ha":1300,"x_min":136,"x_max":1339,"o":"m 274 0 l 136 968 l 199 968 l 321 86 l 699 918 l 761 918 l 904 86 l 1275 968 l 1339 968 l 929 0 l 864 0 l 717 847 l 726 847 l 339 0 l 274 0 m 722 1057 l 578 1251 l 639 1251 l 769 1057 l 722 1057 z "},"X":{"ha":856,"x_min":-6,"x_max":892,"o":"m -6 0 l 407 490 l 140 968 l 210 968 l 451 533 l 818 968 l 892 968 l 488 490 l 763 0 l 693 0 l 442 444 l 67 0 l -6 0 z "},"Y":{"ha":810,"x_min":121,"x_max":865,"o":"m 328 0 l 379 367 l 121 968 l 188 968 l 415 428 l 796 968 l 865 968 l 439 367 l 386 0 l 328 0 z "},"Ý":{"ha":810,"x_min":121,"x_max":865,"o":"m 328 0 l 379 367 l 121 968 l 188 968 l 415 428 l 796 968 l 865 968 l 439 367 l 386 0 l 328 0 m 476 1057 l 639 1251 l 703 1251 l 524 1057 l 476 1057 z "},"Ŷ":{"ha":810,"x_min":121,"x_max":865,"o":"m 328 0 l 379 367 l 121 968 l 188 968 l 415 428 l 796 968 l 865 968 l 439 367 l 386 0 l 328 0 m 300 1051 l 533 1258 l 706 1051 l 653 1051 l 526 1204 l 357 1051 l 300 1051 z "},"Ÿ":{"ha":810,"x_min":121,"x_max":865,"o":"m 328 0 l 379 367 l 121 968 l 188 968 l 415 428 l 796 968 l 865 968 l 439 367 l 386 0 l 328 0 m 596 1111 l 615 1251 l 685 1251 l 665 1111 l 596 1111 m 361 1111 l 381 1251 l 449 1251 l 431 1111 l 361 1111 z "},"Ỵ":{"ha":810,"x_min":121,"x_max":865,"o":"m 328 0 l 379 367 l 121 968 l 188 968 l 415 428 l 796 968 l 865 968 l 439 367 l 386 0 l 328 0 m 303 -242 l 313 -107 l 385 -107 l 374 -242 l 303 -242 z "},"Ỳ":{"ha":810,"x_min":121,"x_max":865,"o":"m 328 0 l 379 367 l 121 968 l 188 968 l 415 428 l 796 968 l 865 968 l 439 367 l 386 0 l 328 0 m 476 1057 l 332 1251 l 393 1251 l 524 1057 l 476 1057 z "},"Ỷ":{"ha":810,"x_min":121,"x_max":865,"o":"m 328 0 l 379 367 l 121 968 l 188 968 l 415 428 l 796 968 l 865 968 l 439 367 l 386 0 l 328 0 m 475 1018 l 469 1044 q 528 1061 499 1051 q 580 1089 558 1071 q 603 1140 601 1107 q 565 1198 604 1181 q 472 1215 525 1215 l 450 1215 l 456 1253 l 474 1253 q 599 1222 550 1253 q 646 1138 649 1192 q 617 1072 644 1094 q 551 1038 590 1049 q 475 1018 513 1026 z "},"Ȳ":{"ha":810,"x_min":121,"x_max":865,"o":"m 328 0 l 379 367 l 121 968 l 188 968 l 415 428 l 796 968 l 865 968 l 439 367 l 386 0 l 328 0 m 335 1140 l 339 1178 l 704 1178 l 699 1140 l 335 1140 z "},"Ỹ":{"ha":810,"x_min":121,"x_max":865,"o":"m 328 0 l 379 367 l 121 968 l 188 968 l 415 428 l 796 968 l 865 968 l 439 367 l 386 0 l 328 0 m 604 1033 q 549 1048 569 1033 q 516 1085 528 1063 q 494 1129 504 1107 q 470 1166 485 1151 q 429 1181 456 1181 q 363 1145 390 1181 q 326 1049 335 1110 l 289 1053 q 338 1174 300 1131 q 431 1217 376 1217 q 482 1202 463 1217 q 513 1165 501 1188 q 535 1121 524 1143 q 562 1084 546 1099 q 604 1069 578 1069 q 666 1109 638 1069 q 703 1211 694 1149 l 740 1208 q 692 1081 729 1128 q 604 1033 654 1033 z "},"Z":{"ha":772,"x_min":3,"x_max":794,"o":"m 3 0 l 10 57 l 731 929 l 735 914 l 165 914 l 172 968 l 794 968 l 789 913 l 74 47 l 67 54 l 681 54 l 674 0 l 3 0 z "},"Ź":{"ha":772,"x_min":3,"x_max":794,"o":"m 3 0 l 10 57 l 731 929 l 735 914 l 165 914 l 172 968 l 794 968 l 789 913 l 74 47 l 67 54 l 681 54 l 674 0 l 3 0 m 458 1057 l 621 1251 l 685 1251 l 506 1057 l 458 1057 z "},"Ž":{"ha":772,"x_min":3,"x_max":794,"o":"m 3 0 l 10 57 l 731 929 l 735 914 l 165 914 l 172 968 l 794 968 l 789 913 l 74 47 l 67 54 l 681 54 l 674 0 l 3 0 m 488 1047 l 318 1251 l 365 1251 l 493 1100 l 664 1251 l 714 1251 l 488 1047 z "},"Ż":{"ha":772,"x_min":3,"x_max":794,"o":"m 3 0 l 10 57 l 731 929 l 735 914 l 165 914 l 172 968 l 794 968 l 789 913 l 74 47 l 67 54 l 681 54 l 674 0 l 3 0 m 461 1111 l 481 1251 l 551 1251 l 532 1111 l 461 1111 z "},"a":{"ha":833,"x_min":81,"x_max":764,"o":"m 350 -8 q 208 29 268 -8 q 114 133 147 67 q 81 286 81 200 q 108 438 81 365 q 184 569 135 511 q 299 660 233 626 q 443 693 365 693 q 566 665 513 693 q 653 589 619 638 q 693 474 686 540 l 678 460 l 708 685 l 764 685 l 668 0 l 611 0 l 643 225 l 658 211 q 585 94 632 143 q 479 19 539 46 q 350 -8 419 -8 m 360 46 q 484 75 428 46 q 582 155 540 104 q 646 269 624 206 q 668 400 668 332 q 641 525 668 471 q 565 610 614 579 q 449 640 515 640 q 324 610 381 640 q 225 530 267 581 q 160 416 183 479 q 138 288 138 353 q 165 162 138 217 q 243 76 193 107 q 360 46 293 46 z "},"á":{"ha":833,"x_min":81,"x_max":764,"o":"m 350 -8 q 208 29 268 -8 q 114 133 147 67 q 81 286 81 200 q 108 438 81 365 q 184 569 135 511 q 299 660 233 626 q 443 693 365 693 q 566 665 513 693 q 653 589 619 638 q 693 474 686 540 l 678 460 l 708 685 l 764 685 l 668 0 l 611 0 l 643 225 l 658 211 q 585 94 632 143 q 479 19 539 46 q 350 -8 419 -8 m 360 46 q 484 75 428 46 q 582 155 540 104 q 646 269 624 206 q 668 400 668 332 q 641 525 668 471 q 565 610 614 579 q 449 640 515 640 q 324 610 381 640 q 225 530 267 581 q 160 416 183 479 q 138 288 138 353 q 165 162 138 217 q 243 76 193 107 q 360 46 293 46 m 449 774 l 611 968 l 675 968 l 496 774 l 449 774 z "},"ă":{"ha":833,"x_min":81,"x_max":764,"o":"m 350 -8 q 208 29 268 -8 q 114 133 147 67 q 81 286 81 200 q 108 438 81 365 q 184 569 135 511 q 299 660 233 626 q 443 693 365 693 q 566 665 513 693 q 653 589 619 638 q 693 474 686 540 l 678 460 l 708 685 l 764 685 l 668 0 l 611 0 l 643 225 l 658 211 q 585 94 632 143 q 479 19 539 46 q 350 -8 419 -8 m 360 46 q 484 75 428 46 q 582 155 540 104 q 646 269 624 206 q 668 400 668 332 q 641 525 668 471 q 565 610 614 579 q 449 640 515 640 q 324 610 381 640 q 225 530 267 581 q 160 416 183 479 q 138 288 138 353 q 165 162 138 217 q 243 76 193 107 q 360 46 293 46 m 481 782 q 339 820 390 782 q 286 933 288 858 q 287 948 286 939 q 289 968 288 957 l 325 968 q 324 951 324 958 q 324 938 324 944 q 365 851 325 881 q 481 821 404 821 q 609 860 563 821 q 664 968 656 899 l 701 968 q 633 828 690 875 q 481 782 575 782 z "},"ắ":{"ha":833,"x_min":81,"x_max":764,"o":"m 350 -8 q 208 29 268 -8 q 114 133 147 67 q 81 286 81 200 q 108 438 81 365 q 184 569 135 511 q 299 660 233 626 q 443 693 365 693 q 566 665 513 693 q 653 589 619 638 q 693 474 686 540 l 678 460 l 708 685 l 764 685 l 668 0 l 611 0 l 643 225 l 658 211 q 585 94 632 143 q 479 19 539 46 q 350 -8 419 -8 m 360 46 q 484 75 428 46 q 582 155 540 104 q 646 269 624 206 q 668 400 668 332 q 641 525 668 471 q 565 610 614 579 q 449 640 515 640 q 324 610 381 640 q 225 530 267 581 q 160 416 183 479 q 138 288 138 353 q 165 162 138 217 q 243 76 193 107 q 360 46 293 46 m 483 782 q 344 821 392 782 q 297 933 297 860 q 298 950 297 940 q 300 969 299 960 l 340 967 q 338 950 339 957 q 338 936 338 943 q 375 849 338 878 q 482 821 413 821 q 612 858 563 821 q 671 969 661 896 l 711 967 q 640 827 699 872 q 483 782 581 782 m 460 942 l 594 1131 l 646 1131 l 501 942 l 460 942 z "},"ặ":{"ha":833,"x_min":81,"x_max":764,"o":"m 350 -8 q 208 29 268 -8 q 114 133 147 67 q 81 286 81 200 q 108 438 81 365 q 184 569 135 511 q 299 660 233 626 q 443 693 365 693 q 566 665 513 693 q 653 589 619 638 q 693 474 686 540 l 678 460 l 708 685 l 764 685 l 668 0 l 611 0 l 643 225 l 658 211 q 585 94 632 143 q 479 19 539 46 q 350 -8 419 -8 m 360 46 q 484 75 428 46 q 582 155 540 104 q 646 269 624 206 q 668 400 668 332 q 641 525 668 471 q 565 610 614 579 q 449 640 515 640 q 324 610 381 640 q 225 530 267 581 q 160 416 183 479 q 138 288 138 353 q 165 162 138 217 q 243 76 193 107 q 360 46 293 46 m 314 -242 l 324 -107 l 396 -107 l 385 -242 l 314 -242 m 481 782 q 339 820 390 782 q 286 933 288 858 q 287 948 286 939 q 289 968 288 957 l 325 968 q 324 951 324 958 q 324 938 324 944 q 365 851 325 881 q 481 821 404 821 q 609 860 563 821 q 664 968 656 899 l 701 968 q 633 828 690 875 q 481 782 575 782 z "},"ằ":{"ha":833,"x_min":81,"x_max":764,"o":"m 350 -8 q 208 29 268 -8 q 114 133 147 67 q 81 286 81 200 q 108 438 81 365 q 184 569 135 511 q 299 660 233 626 q 443 693 365 693 q 566 665 513 693 q 653 589 619 638 q 693 474 686 540 l 678 460 l 708 685 l 764 685 l 668 0 l 611 0 l 643 225 l 658 211 q 585 94 632 143 q 479 19 539 46 q 350 -8 419 -8 m 360 46 q 484 75 428 46 q 582 155 540 104 q 646 269 624 206 q 668 400 668 332 q 641 525 668 471 q 565 610 614 579 q 449 640 515 640 q 324 610 381 640 q 225 530 267 581 q 160 416 183 479 q 138 288 138 353 q 165 162 138 217 q 243 76 193 107 q 360 46 293 46 m 483 782 q 344 821 392 782 q 297 933 297 860 q 298 950 297 940 q 300 969 299 960 l 340 967 q 338 950 339 957 q 338 936 338 943 q 375 849 338 878 q 482 821 413 821 q 612 858 563 821 q 671 969 661 896 l 711 967 q 640 827 699 872 q 483 782 581 782 m 504 942 l 414 1131 l 464 1131 l 544 942 l 504 942 z "},"ẳ":{"ha":833,"x_min":81,"x_max":764,"o":"m 350 -8 q 208 29 268 -8 q 114 133 147 67 q 81 286 81 200 q 108 438 81 365 q 184 569 135 511 q 299 660 233 626 q 443 693 365 693 q 566 665 513 693 q 653 589 619 638 q 693 474 686 540 l 678 460 l 708 685 l 764 685 l 668 0 l 611 0 l 643 225 l 658 211 q 585 94 632 143 q 479 19 539 46 q 350 -8 419 -8 m 360 46 q 484 75 428 46 q 582 155 540 104 q 646 269 624 206 q 668 400 668 332 q 641 525 668 471 q 565 610 614 579 q 449 640 515 640 q 324 610 381 640 q 225 530 267 581 q 160 416 183 479 q 138 288 138 353 q 165 162 138 217 q 243 76 193 107 q 360 46 293 46 m 483 782 q 344 821 392 782 q 297 933 297 860 q 298 950 297 940 q 300 969 299 960 l 340 967 q 338 950 339 957 q 338 936 338 943 q 375 849 338 878 q 482 821 413 821 q 612 858 563 821 q 671 969 661 896 l 711 967 q 640 827 699 872 q 483 782 581 782 m 471 928 l 464 956 q 557 984 518 963 q 596 1051 596 1006 q 557 1108 596 1090 q 467 1126 518 1126 l 444 1126 l 450 1161 l 469 1161 q 591 1130 544 1161 q 633 1046 638 1099 q 606 981 631 1004 q 547 945 582 957 q 471 928 511 933 z "},"ẵ":{"ha":833,"x_min":81,"x_max":764,"o":"m 350 -8 q 208 29 268 -8 q 114 133 147 67 q 81 286 81 200 q 108 438 81 365 q 184 569 135 511 q 299 660 233 626 q 443 693 365 693 q 566 665 513 693 q 653 589 619 638 q 693 474 686 540 l 678 460 l 708 685 l 764 685 l 668 0 l 611 0 l 643 225 l 658 211 q 585 94 632 143 q 479 19 539 46 q 350 -8 419 -8 m 360 46 q 484 75 428 46 q 582 155 540 104 q 646 269 624 206 q 668 400 668 332 q 641 525 668 471 q 565 610 614 579 q 449 640 515 640 q 324 610 381 640 q 225 530 267 581 q 160 416 183 479 q 138 288 138 353 q 165 162 138 217 q 243 76 193 107 q 360 46 293 46 m 483 782 q 344 821 392 782 q 297 933 297 860 q 298 950 297 940 q 300 969 299 960 l 340 967 q 338 950 339 957 q 338 936 338 943 q 375 849 338 878 q 482 821 413 821 q 612 858 563 821 q 671 969 661 896 l 711 967 q 640 827 699 872 q 483 782 581 782 m 607 1014 q 551 1023 572 1014 q 516 1045 531 1032 q 484 1068 501 1058 q 439 1078 467 1078 q 386 1063 408 1078 q 351 1019 364 1049 l 315 1026 q 357 1087 328 1061 q 435 1113 386 1113 q 489 1103 468 1113 q 526 1082 510 1094 q 559 1060 542 1069 q 603 1050 576 1050 q 688 1107 661 1050 l 725 1100 q 683 1040 711 1065 q 607 1014 656 1014 z "},"ǎ":{"ha":833,"x_min":81,"x_max":764,"o":"m 350 -8 q 208 29 268 -8 q 114 133 147 67 q 81 286 81 200 q 108 438 81 365 q 184 569 135 511 q 299 660 233 626 q 443 693 365 693 q 566 665 513 693 q 653 589 619 638 q 693 474 686 540 l 678 460 l 708 685 l 764 685 l 668 0 l 611 0 l 643 225 l 658 211 q 585 94 632 143 q 479 19 539 46 q 350 -8 419 -8 m 360 46 q 484 75 428 46 q 582 155 540 104 q 646 269 624 206 q 668 400 668 332 q 641 525 668 471 q 565 610 614 579 q 449 640 515 640 q 324 610 381 640 q 225 530 267 581 q 160 416 183 479 q 138 288 138 353 q 165 162 138 217 q 243 76 193 107 q 360 46 293 46 m 478 764 l 308 968 l 356 968 l 483 817 l 654 968 l 704 968 l 478 764 z "},"â":{"ha":833,"x_min":81,"x_max":764,"o":"m 350 -8 q 208 29 268 -8 q 114 133 147 67 q 81 286 81 200 q 108 438 81 365 q 184 569 135 511 q 299 660 233 626 q 443 693 365 693 q 566 665 513 693 q 653 589 619 638 q 693 474 686 540 l 678 460 l 708 685 l 764 685 l 668 0 l 611 0 l 643 225 l 658 211 q 585 94 632 143 q 479 19 539 46 q 350 -8 419 -8 m 360 46 q 484 75 428 46 q 582 155 540 104 q 646 269 624 206 q 668 400 668 332 q 641 525 668 471 q 565 610 614 579 q 449 640 515 640 q 324 610 381 640 q 225 530 267 581 q 160 416 183 479 q 138 288 138 353 q 165 162 138 217 q 243 76 193 107 q 360 46 293 46 m 278 768 l 506 975 l 675 768 l 626 768 l 500 921 l 329 768 l 278 768 z "},"ấ":{"ha":833,"x_min":81,"x_max":799,"o":"m 350 -8 q 208 29 268 -8 q 114 133 147 67 q 81 286 81 200 q 108 438 81 365 q 184 569 135 511 q 299 660 233 626 q 443 693 365 693 q 566 665 513 693 q 653 589 619 638 q 693 474 686 540 l 678 460 l 708 685 l 764 685 l 668 0 l 611 0 l 643 225 l 658 211 q 585 94 632 143 q 479 19 539 46 q 350 -8 419 -8 m 360 46 q 484 75 428 46 q 582 155 540 104 q 646 269 624 206 q 668 400 668 332 q 641 525 668 471 q 565 610 614 579 q 449 640 515 640 q 324 610 381 640 q 225 530 267 581 q 160 416 183 479 q 138 288 138 353 q 165 162 138 217 q 243 76 193 107 q 360 46 293 46 m 274 768 l 504 969 l 679 768 l 626 768 l 500 914 l 328 768 l 274 768 m 610 899 l 746 1089 l 799 1089 l 651 899 l 610 899 z "},"ậ":{"ha":833,"x_min":81,"x_max":764,"o":"m 350 -8 q 208 29 268 -8 q 114 133 147 67 q 81 286 81 200 q 108 438 81 365 q 184 569 135 511 q 299 660 233 626 q 443 693 365 693 q 566 665 513 693 q 653 589 619 638 q 693 474 686 540 l 678 460 l 708 685 l 764 685 l 668 0 l 611 0 l 643 225 l 658 211 q 585 94 632 143 q 479 19 539 46 q 350 -8 419 -8 m 360 46 q 484 75 428 46 q 582 155 540 104 q 646 269 624 206 q 668 400 668 332 q 641 525 668 471 q 565 610 614 579 q 449 640 515 640 q 324 610 381 640 q 225 530 267 581 q 160 416 183 479 q 138 288 138 353 q 165 162 138 217 q 243 76 193 107 q 360 46 293 46 m 314 -242 l 324 -107 l 396 -107 l 385 -242 l 314 -242 m 278 768 l 506 975 l 675 768 l 626 768 l 500 921 l 329 768 l 278 768 z "},"ầ":{"ha":833,"x_min":81,"x_max":764,"o":"m 350 -8 q 208 29 268 -8 q 114 133 147 67 q 81 286 81 200 q 108 438 81 365 q 184 569 135 511 q 299 660 233 626 q 443 693 365 693 q 566 665 513 693 q 653 589 619 638 q 693 474 686 540 l 678 460 l 708 685 l 764 685 l 668 0 l 611 0 l 643 225 l 658 211 q 585 94 632 143 q 479 19 539 46 q 350 -8 419 -8 m 360 46 q 484 75 428 46 q 582 155 540 104 q 646 269 624 206 q 668 400 668 332 q 641 525 668 471 q 565 610 614 579 q 449 640 515 640 q 324 610 381 640 q 225 530 267 581 q 160 416 183 479 q 138 288 138 353 q 165 162 138 217 q 243 76 193 107 q 360 46 293 46 m 274 768 l 504 969 l 679 768 l 626 768 l 500 914 l 329 768 l 274 768 m 690 899 l 597 1089 l 647 1089 l 729 899 l 690 899 z "},"ẩ":{"ha":833,"x_min":81,"x_max":786,"o":"m 350 -8 q 208 29 268 -8 q 114 133 147 67 q 81 286 81 200 q 108 438 81 365 q 184 569 135 511 q 299 660 233 626 q 443 693 365 693 q 566 665 513 693 q 653 589 619 638 q 693 474 686 540 l 678 460 l 708 685 l 764 685 l 668 0 l 611 0 l 643 225 l 658 211 q 585 94 632 143 q 479 19 539 46 q 350 -8 419 -8 m 360 46 q 484 75 428 46 q 582 155 540 104 q 646 269 624 206 q 668 400 668 332 q 641 525 668 471 q 565 610 614 579 q 449 640 515 640 q 324 610 381 640 q 225 530 267 581 q 160 416 183 479 q 138 288 138 353 q 165 162 138 217 q 243 76 193 107 q 360 46 293 46 m 274 768 l 504 969 l 679 768 l 626 768 l 500 914 l 329 768 l 274 768 m 621 882 l 613 910 q 676 926 646 915 q 726 954 707 936 q 746 1001 744 972 q 707 1061 747 1043 q 617 1079 667 1079 l 594 1079 l 599 1114 l 618 1114 q 740 1083 694 1114 q 782 996 786 1053 q 755 935 779 957 q 695 901 731 913 q 621 882 660 889 z "},"ẫ":{"ha":833,"x_min":81,"x_max":764,"o":"m 350 -8 q 208 29 268 -8 q 114 133 147 67 q 81 286 81 200 q 108 438 81 365 q 184 569 135 511 q 299 660 233 626 q 443 693 365 693 q 566 665 513 693 q 653 589 619 638 q 693 474 686 540 l 678 460 l 708 685 l 764 685 l 668 0 l 611 0 l 643 225 l 658 211 q 585 94 632 143 q 479 19 539 46 q 350 -8 419 -8 m 360 46 q 484 75 428 46 q 582 155 540 104 q 646 269 624 206 q 668 400 668 332 q 641 525 668 471 q 565 610 614 579 q 449 640 515 640 q 324 610 381 640 q 225 530 267 581 q 160 416 183 479 q 138 288 138 353 q 165 162 138 217 q 243 76 193 107 q 360 46 293 46 m 275 768 l 506 969 l 681 768 l 628 768 l 501 914 l 329 768 l 275 768 m 604 1001 q 549 1011 569 1001 q 514 1034 529 1021 q 482 1056 499 1047 q 438 1065 465 1065 q 382 1050 403 1065 q 349 1007 361 1035 l 313 1014 q 359 1077 329 1054 q 433 1100 389 1100 q 487 1091 465 1100 q 524 1069 508 1082 q 556 1047 539 1057 q 599 1038 574 1038 q 651 1051 631 1038 q 685 1094 672 1065 l 722 1088 q 680 1026 708 1050 q 604 1001 651 1001 z "},"ä":{"ha":833,"x_min":81,"x_max":764,"o":"m 350 -8 q 208 29 268 -8 q 114 133 147 67 q 81 286 81 200 q 108 438 81 365 q 184 569 135 511 q 299 660 233 626 q 443 693 365 693 q 566 665 513 693 q 653 589 619 638 q 693 474 686 540 l 678 460 l 708 685 l 764 685 l 668 0 l 611 0 l 643 225 l 658 211 q 585 94 632 143 q 479 19 539 46 q 350 -8 419 -8 m 360 46 q 484 75 428 46 q 582 155 540 104 q 646 269 624 206 q 668 400 668 332 q 641 525 668 471 q 565 610 614 579 q 449 640 515 640 q 324 610 381 640 q 225 530 267 581 q 160 416 183 479 q 138 288 138 353 q 165 162 138 217 q 243 76 193 107 q 360 46 293 46 m 569 828 l 589 968 l 658 968 l 639 828 l 569 828 m 335 828 l 354 968 l 422 968 l 404 828 l 335 828 z "},"ạ":{"ha":833,"x_min":81,"x_max":764,"o":"m 350 -8 q 208 29 268 -8 q 114 133 147 67 q 81 286 81 200 q 108 438 81 365 q 184 569 135 511 q 299 660 233 626 q 443 693 365 693 q 566 665 513 693 q 653 589 619 638 q 693 474 686 540 l 678 460 l 708 685 l 764 685 l 668 0 l 611 0 l 643 225 l 658 211 q 585 94 632 143 q 479 19 539 46 q 350 -8 419 -8 m 360 46 q 484 75 428 46 q 582 155 540 104 q 646 269 624 206 q 668 400 668 332 q 641 525 668 471 q 565 610 614 579 q 449 640 515 640 q 324 610 381 640 q 225 530 267 581 q 160 416 183 479 q 138 288 138 353 q 165 162 138 217 q 243 76 193 107 q 360 46 293 46 m 314 -242 l 324 -107 l 396 -107 l 385 -242 l 314 -242 z "},"à":{"ha":833,"x_min":81,"x_max":764,"o":"m 350 -8 q 208 29 268 -8 q 114 133 147 67 q 81 286 81 200 q 108 438 81 365 q 184 569 135 511 q 299 660 233 626 q 443 693 365 693 q 566 665 513 693 q 653 589 619 638 q 693 474 686 540 l 678 460 l 708 685 l 764 685 l 668 0 l 611 0 l 643 225 l 658 211 q 585 94 632 143 q 479 19 539 46 q 350 -8 419 -8 m 360 46 q 484 75 428 46 q 582 155 540 104 q 646 269 624 206 q 668 400 668 332 q 641 525 668 471 q 565 610 614 579 q 449 640 515 640 q 324 610 381 640 q 225 530 267 581 q 160 416 183 479 q 138 288 138 353 q 165 162 138 217 q 243 76 193 107 q 360 46 293 46 m 450 774 l 306 968 l 367 968 l 497 774 l 450 774 z "},"ả":{"ha":833,"x_min":81,"x_max":764,"o":"m 350 -8 q 208 29 268 -8 q 114 133 147 67 q 81 286 81 200 q 108 438 81 365 q 184 569 135 511 q 299 660 233 626 q 443 693 365 693 q 566 665 513 693 q 653 589 619 638 q 693 474 686 540 l 678 460 l 708 685 l 764 685 l 668 0 l 611 0 l 643 225 l 658 211 q 585 94 632 143 q 479 19 539 46 q 350 -8 419 -8 m 360 46 q 484 75 428 46 q 582 155 540 104 q 646 269 624 206 q 668 400 668 332 q 641 525 668 471 q 565 610 614 579 q 449 640 515 640 q 324 610 381 640 q 225 530 267 581 q 160 416 183 479 q 138 288 138 353 q 165 162 138 217 q 243 76 193 107 q 360 46 293 46 m 449 735 l 443 761 q 502 778 472 768 q 553 806 532 788 q 576 857 575 824 q 538 915 578 897 q 446 932 499 932 l 424 932 l 429 969 l 447 969 q 573 939 524 969 q 619 854 622 908 q 591 788 618 811 q 525 754 564 765 q 449 735 486 743 z "},"ā":{"ha":833,"x_min":81,"x_max":764,"o":"m 350 -8 q 208 29 268 -8 q 114 133 147 67 q 81 286 81 200 q 108 438 81 365 q 184 569 135 511 q 299 660 233 626 q 443 693 365 693 q 566 665 513 693 q 653 589 619 638 q 693 474 686 540 l 678 460 l 708 685 l 764 685 l 668 0 l 611 0 l 643 225 l 658 211 q 585 94 632 143 q 479 19 539 46 q 350 -8 419 -8 m 360 46 q 484 75 428 46 q 582 155 540 104 q 646 269 624 206 q 668 400 668 332 q 641 525 668 471 q 565 610 614 579 q 449 640 515 640 q 324 610 381 640 q 225 530 267 581 q 160 416 183 479 q 138 288 138 353 q 165 162 138 217 q 243 76 193 107 q 360 46 293 46 m 308 857 l 313 894 l 678 894 l 672 857 l 308 857 z "},"ą":{"ha":833,"x_min":81,"x_max":764,"o":"m 350 -8 q 208 29 268 -8 q 114 133 147 67 q 81 286 81 200 q 108 438 81 365 q 184 569 135 511 q 299 660 233 626 q 443 693 365 693 q 566 665 513 693 q 653 589 619 638 q 693 474 686 540 l 678 460 l 708 685 l 764 685 l 668 0 l 611 0 l 643 225 l 658 211 q 585 94 632 143 q 479 19 539 46 q 350 -8 419 -8 m 360 46 q 484 75 428 46 q 582 155 540 104 q 646 269 624 206 q 668 400 668 332 q 641 525 668 471 q 565 610 614 579 q 449 640 515 640 q 324 610 381 640 q 225 530 267 581 q 160 416 183 479 q 138 288 138 353 q 165 162 138 217 q 243 76 193 107 q 360 46 293 46 m 603 -290 q 523 -264 556 -290 q 490 -187 490 -237 q 509 -112 490 -147 q 558 -46 528 -76 q 622 4 589 -15 l 669 0 q 617 -36 642 -15 q 572 -81 592 -57 q 541 -130 553 -104 q 529 -183 529 -156 q 551 -235 529 -218 q 600 -251 572 -251 q 644 -243 621 -251 q 686 -219 667 -235 l 710 -250 q 657 -281 685 -271 q 603 -290 629 -290 z "},"å":{"ha":833,"x_min":81,"x_max":764,"o":"m 350 -8 q 208 29 268 -8 q 114 133 147 67 q 81 286 81 200 q 108 438 81 365 q 184 569 135 511 q 299 660 233 626 q 443 693 365 693 q 566 665 513 693 q 653 589 619 638 q 693 474 686 540 l 678 460 l 708 685 l 764 685 l 668 0 l 611 0 l 643 225 l 658 211 q 585 94 632 143 q 479 19 539 46 q 350 -8 419 -8 m 360 46 q 484 75 428 46 q 582 155 540 104 q 646 269 624 206 q 668 400 668 332 q 641 525 668 471 q 565 610 614 579 q 449 640 515 640 q 324 610 381 640 q 225 530 267 581 q 160 416 183 479 q 138 288 138 353 q 165 162 138 217 q 243 76 193 107 q 360 46 293 46 m 479 758 q 401 790 432 758 q 369 865 369 821 q 389 933 369 903 q 440 983 408 964 q 507 1001 471 1001 q 584 971 553 1001 q 615 893 615 940 q 597 826 615 857 q 547 777 578 796 q 479 758 517 758 m 483 794 q 550 823 521 794 q 579 890 579 851 q 558 944 579 924 q 506 965 536 965 q 437 937 467 965 q 407 868 407 908 q 428 816 407 838 q 483 794 449 794 z "},"ǻ":{"ha":833,"x_min":81,"x_max":768,"o":"m 350 -8 q 208 29 268 -8 q 114 133 147 67 q 81 286 81 200 q 108 438 81 365 q 184 569 135 511 q 299 660 233 626 q 443 693 365 693 q 566 665 513 693 q 653 589 619 638 q 693 474 686 540 l 678 460 l 708 685 l 764 685 l 668 0 l 611 0 l 643 225 l 658 211 q 585 94 632 143 q 479 19 539 46 q 350 -8 419 -8 m 360 46 q 484 75 428 46 q 582 155 540 104 q 646 269 624 206 q 668 400 668 332 q 641 525 668 471 q 565 610 614 579 q 449 640 515 640 q 324 610 381 640 q 225 530 267 581 q 160 416 183 479 q 138 288 138 353 q 165 162 138 217 q 243 76 193 107 q 360 46 293 46 m 479 758 q 401 790 432 758 q 369 865 369 821 q 389 933 369 903 q 440 983 408 964 q 507 1001 471 1001 q 584 971 553 1001 q 615 893 615 940 q 597 826 615 857 q 547 777 578 796 q 479 758 517 758 m 483 794 q 550 823 521 794 q 579 890 579 851 q 558 944 579 924 q 506 965 536 965 q 437 937 467 965 q 407 868 407 908 q 428 816 407 838 q 483 794 449 794 m 542 954 l 704 1149 l 768 1149 l 589 954 l 542 954 z "},"ã":{"ha":833,"x_min":81,"x_max":764,"o":"m 350 -8 q 208 29 268 -8 q 114 133 147 67 q 81 286 81 200 q 108 438 81 365 q 184 569 135 511 q 299 660 233 626 q 443 693 365 693 q 566 665 513 693 q 653 589 619 638 q 693 474 686 540 l 678 460 l 708 685 l 764 685 l 668 0 l 611 0 l 643 225 l 658 211 q 585 94 632 143 q 479 19 539 46 q 350 -8 419 -8 m 360 46 q 484 75 428 46 q 582 155 540 104 q 646 269 624 206 q 668 400 668 332 q 641 525 668 471 q 565 610 614 579 q 449 640 515 640 q 324 610 381 640 q 225 530 267 581 q 160 416 183 479 q 138 288 138 353 q 165 162 138 217 q 243 76 193 107 q 360 46 293 46 m 585 803 q 517 826 538 803 q 482 876 497 850 q 453 917 468 900 q 410 935 439 935 q 345 903 372 935 q 311 817 318 872 l 275 819 q 321 934 285 893 q 411 975 357 975 q 474 952 454 975 q 507 903 493 929 q 538 859 522 876 q 585 842 554 842 q 644 877 617 842 q 679 969 672 913 l 717 967 q 669 847 706 890 q 585 803 632 803 z "},"æ":{"ha":1236,"x_min":61,"x_max":1163,"o":"m 274 -8 q 162 12 210 -8 q 88 72 114 32 q 61 168 61 113 q 103 291 61 246 q 219 357 144 336 q 394 378 293 378 l 585 378 l 592 425 q 588 539 603 490 q 531 615 572 588 q 417 643 489 643 q 291 616 349 643 q 179 526 233 589 l 139 564 q 274 664 206 635 q 421 693 342 693 q 584 642 529 693 q 639 497 639 592 q 756 641 685 590 q 918 692 826 692 q 1062 656 1008 692 q 1139 563 1115 619 q 1163 443 1163 506 q 1158 385 1163 417 q 1146 329 1153 353 l 632 329 q 628 299 629 313 q 628 275 628 285 q 679 105 628 164 q 833 46 731 46 q 954 67 903 46 q 1061 139 1006 88 l 1100 100 q 976 17 1036 42 q 833 -8 915 -8 q 660 52 724 -8 q 588 226 596 113 l 581 226 q 494 85 543 136 q 389 13 446 33 q 274 -8 332 -8 m 281 42 q 401 69 342 42 q 507 158 460 96 q 578 324 554 221 l 583 360 l 606 335 l 394 335 q 251 319 313 335 q 154 268 189 304 q 119 169 119 232 q 163 76 119 110 q 281 42 206 42 m 1100 368 q 1107 404 1106 388 q 1108 443 1108 421 q 1090 538 1108 492 q 1029 613 1072 583 q 913 643 986 643 q 785 608 843 643 q 690 512 728 572 q 638 375 651 451 l 1111 376 l 1100 368 z "},"ǽ":{"ha":1236,"x_min":61,"x_max":1163,"o":"m 274 -8 q 162 12 210 -8 q 88 72 114 32 q 61 168 61 113 q 103 291 61 246 q 219 357 144 336 q 394 378 293 378 l 585 378 l 592 425 q 588 539 603 490 q 531 615 572 588 q 417 643 489 643 q 291 616 349 643 q 179 526 233 589 l 139 564 q 274 664 206 635 q 421 693 342 693 q 584 642 529 693 q 639 497 639 592 q 756 641 685 590 q 918 692 826 692 q 1062 656 1008 692 q 1139 563 1115 619 q 1163 443 1163 506 q 1158 385 1163 417 q 1146 329 1153 353 l 632 329 q 628 299 629 313 q 628 275 628 285 q 679 105 628 164 q 833 46 731 46 q 954 67 903 46 q 1061 139 1006 88 l 1100 100 q 976 17 1036 42 q 833 -8 915 -8 q 660 52 724 -8 q 588 226 596 113 l 581 226 q 494 85 543 136 q 389 13 446 33 q 274 -8 332 -8 m 281 42 q 401 69 342 42 q 507 158 460 96 q 578 324 554 221 l 583 360 l 606 335 l 394 335 q 251 319 313 335 q 154 268 189 304 q 119 169 119 232 q 163 76 119 110 q 281 42 206 42 m 1100 368 q 1107 404 1106 388 q 1108 443 1108 421 q 1090 538 1108 492 q 1029 613 1072 583 q 913 643 986 643 q 785 608 843 643 q 690 512 728 572 q 638 375 651 451 l 1111 376 l 1100 368 m 650 774 l 813 968 l 876 968 l 697 774 l 650 774 z "},"b":{"ha":833,"x_min":68,"x_max":754,"o":"m 392 -8 q 269 19 322 -8 q 182 97 215 47 q 140 214 149 147 l 157 225 l 125 0 l 68 0 l 204 968 l 261 968 l 192 460 l 178 476 q 249 589 203 540 q 354 665 294 638 q 483 693 414 693 q 624 656 564 693 q 719 554 685 619 q 754 401 754 489 q 727 251 754 324 q 651 119 700 178 q 537 26 603 61 q 392 -8 471 -8 m 385 46 q 510 75 453 46 q 608 155 567 104 q 673 268 650 206 q 696 397 696 331 q 669 523 696 468 q 592 609 642 578 q 474 640 542 640 q 350 610 407 640 q 252 531 293 581 q 188 417 211 481 q 165 288 165 354 q 193 162 165 217 q 270 76 221 107 q 385 46 319 46 z "},"c":{"ha":715,"x_min":81,"x_max":667,"o":"m 336 -8 q 198 28 256 -8 q 110 130 140 65 q 81 278 81 194 q 104 429 81 356 q 174 563 128 503 q 284 658 219 622 q 429 693 349 693 q 585 647 522 693 q 667 510 647 600 l 613 493 q 551 603 599 564 q 428 643 504 643 q 303 610 357 643 q 212 524 249 578 q 156 406 175 469 q 138 278 138 342 q 159 159 138 213 q 225 74 181 106 q 338 43 269 43 q 476 83 417 43 q 569 194 536 124 l 619 171 q 501 37 575 82 q 336 -8 428 -8 z "},"ć":{"ha":715,"x_min":81,"x_max":667,"o":"m 336 -8 q 198 28 256 -8 q 110 130 140 65 q 81 278 81 194 q 104 429 81 356 q 174 563 128 503 q 284 658 219 622 q 429 693 349 693 q 585 647 522 693 q 667 510 647 600 l 613 493 q 551 603 599 564 q 428 643 504 643 q 303 610 357 643 q 212 524 249 578 q 156 406 175 469 q 138 278 138 342 q 159 159 138 213 q 225 74 181 106 q 338 43 269 43 q 476 83 417 43 q 569 194 536 124 l 619 171 q 501 37 575 82 q 336 -8 428 -8 m 410 774 l 572 968 l 636 968 l 457 774 l 410 774 z "},"č":{"ha":715,"x_min":81,"x_max":667,"o":"m 336 -8 q 198 28 256 -8 q 110 130 140 65 q 81 278 81 194 q 104 429 81 356 q 174 563 128 503 q 284 658 219 622 q 429 693 349 693 q 585 647 522 693 q 667 510 647 600 l 613 493 q 551 603 599 564 q 428 643 504 643 q 303 610 357 643 q 212 524 249 578 q 156 406 175 469 q 138 278 138 342 q 159 159 138 213 q 225 74 181 106 q 338 43 269 43 q 476 83 417 43 q 569 194 536 124 l 619 171 q 501 37 575 82 q 336 -8 428 -8 m 439 764 l 269 968 l 317 968 l 444 817 l 615 968 l 665 968 l 439 764 z "},"ç":{"ha":715,"x_min":81,"x_max":667,"o":"m 336 -8 q 198 28 256 -8 q 110 130 140 65 q 81 278 81 194 q 104 429 81 356 q 174 563 128 503 q 284 658 219 622 q 429 693 349 693 q 585 647 522 693 q 667 510 647 600 l 613 493 q 551 603 599 564 q 428 643 504 643 q 303 610 357 643 q 212 524 249 578 q 156 406 175 469 q 138 278 138 342 q 159 159 138 213 q 225 74 181 106 q 338 43 269 43 q 476 83 417 43 q 569 194 536 124 l 619 171 q 501 37 575 82 q 336 -8 428 -8 m 321 -353 q 248 -333 283 -353 q 194 -276 213 -312 l 221 -250 q 262 -297 233 -279 q 321 -315 290 -315 q 394 -292 368 -315 q 419 -226 419 -269 q 403 -176 419 -196 q 360 -147 386 -157 q 308 -134 335 -137 q 260 -129 281 -131 l 335 7 l 375 7 l 313 -101 q 384 -121 351 -108 q 438 -158 417 -133 q 458 -225 458 -183 q 421 -318 458 -283 q 321 -353 383 -353 z "},"ĉ":{"ha":715,"x_min":81,"x_max":667,"o":"m 336 -8 q 198 28 256 -8 q 110 130 140 65 q 81 278 81 194 q 104 429 81 356 q 174 563 128 503 q 284 658 219 622 q 429 693 349 693 q 585 647 522 693 q 667 510 647 600 l 613 493 q 551 603 599 564 q 428 643 504 643 q 303 610 357 643 q 212 524 249 578 q 156 406 175 469 q 138 278 138 342 q 159 159 138 213 q 225 74 181 106 q 338 43 269 43 q 476 83 417 43 q 569 194 536 124 l 619 171 q 501 37 575 82 q 336 -8 428 -8 m 239 768 l 467 975 l 636 768 l 588 768 l 461 921 l 290 768 l 239 768 z "},"ċ":{"ha":715,"x_min":81,"x_max":667,"o":"m 336 -8 q 198 28 256 -8 q 110 130 140 65 q 81 278 81 194 q 104 429 81 356 q 174 563 128 503 q 284 658 219 622 q 429 693 349 693 q 585 647 522 693 q 667 510 647 600 l 613 493 q 551 603 599 564 q 428 643 504 643 q 303 610 357 643 q 212 524 249 578 q 156 406 175 469 q 138 278 138 342 q 159 159 138 213 q 225 74 181 106 q 338 43 269 43 q 476 83 417 43 q 569 194 536 124 l 619 171 q 501 37 575 82 q 336 -8 428 -8 m 411 828 l 431 968 l 501 968 l 482 828 l 411 828 z "},"d":{"ha":833,"x_min":81,"x_max":804,"o":"m 350 -8 q 208 29 268 -8 q 114 133 147 67 q 81 286 81 200 q 108 438 81 365 q 184 569 135 511 q 299 660 233 626 q 443 693 365 693 q 566 665 513 693 q 653 589 619 638 q 693 474 686 540 l 678 460 l 747 968 l 804 968 l 668 0 l 611 0 l 643 225 l 658 211 q 585 94 632 143 q 479 19 539 46 q 350 -8 419 -8 m 360 46 q 484 75 428 46 q 582 155 540 104 q 646 269 624 206 q 668 400 668 332 q 641 525 668 471 q 565 610 614 579 q 449 640 515 640 q 324 610 381 640 q 225 530 267 581 q 160 416 183 479 q 138 288 138 353 q 165 162 138 217 q 243 76 193 107 q 360 46 293 46 z "},"ð":{"ha":889,"x_min":94,"x_max":928,"o":"m 349 -8 q 162 61 229 -8 q 94 243 94 131 q 126 410 94 329 q 216 557 157 492 q 356 662 275 622 q 533 701 436 701 q 644 672 600 701 q 713 595 689 643 q 743 489 738 547 q 747 468 746 479 q 747 446 749 457 q 767 546 761 499 q 772 635 772 593 q 727 813 772 744 q 588 914 682 881 q 347 950 494 947 l 354 992 q 633 944 531 986 q 778 825 735 903 q 821 635 821 747 q 792 406 821 519 q 703 199 763 293 q 556 49 644 106 q 349 -8 468 -8 m 353 42 q 506 78 436 42 q 625 175 575 115 q 701 303 675 235 q 728 438 728 372 q 710 540 728 490 q 650 620 692 589 q 538 651 608 651 q 378 617 450 651 q 254 524 306 582 q 176 393 203 465 q 149 246 149 321 q 205 97 149 153 q 353 42 261 42 m 472 769 l 468 797 l 924 940 l 928 913 l 472 769 z "},"ď":{"ha":976,"x_min":81,"x_max":1015,"o":"m 350 -8 q 208 29 268 -8 q 114 133 147 67 q 81 286 81 200 q 108 438 81 365 q 184 569 135 511 q 299 660 233 626 q 443 693 365 693 q 566 665 513 693 q 653 589 619 638 q 693 474 686 540 l 678 460 l 747 968 l 804 968 l 668 0 l 611 0 l 643 225 l 658 211 q 585 94 632 143 q 479 19 539 46 q 350 -8 419 -8 m 360 46 q 484 75 428 46 q 582 155 540 104 q 646 269 624 206 q 668 400 668 332 q 641 525 668 471 q 565 610 614 579 q 449 640 515 640 q 324 610 381 640 q 225 530 267 581 q 160 416 183 479 q 138 288 138 353 q 165 162 138 217 q 243 76 193 107 q 360 46 293 46 m 851 690 l 953 968 l 1015 968 l 889 690 l 851 690 z "},"đ":{"ha":833,"x_min":81,"x_max":874,"o":"m 350 -8 q 208 29 268 -8 q 114 133 147 67 q 81 286 81 200 q 108 438 81 365 q 184 569 135 511 q 299 660 233 626 q 443 693 365 693 q 566 665 513 693 q 653 589 619 638 q 693 474 686 540 l 678 460 l 747 968 l 804 968 l 668 0 l 611 0 l 643 225 l 658 211 q 585 94 632 143 q 479 19 539 46 q 350 -8 419 -8 m 360 46 q 484 75 428 46 q 582 155 540 104 q 646 269 624 206 q 668 400 668 332 q 641 525 668 471 q 565 610 614 579 q 449 640 515 640 q 324 610 381 640 q 225 530 267 581 q 160 416 183 479 q 138 288 138 353 q 165 162 138 217 q 243 76 193 107 q 360 46 293 46 m 540 824 l 546 865 l 874 865 l 868 824 l 540 824 z "},"e":{"ha":750,"x_min":81,"x_max":676,"o":"m 343 -8 q 200 26 258 -8 q 111 124 142 61 q 81 269 81 188 q 103 422 81 347 q 171 558 126 497 q 280 656 215 619 q 425 693 344 693 q 573 656 518 693 q 652 560 628 618 q 676 439 676 501 q 672 380 676 411 q 663 329 668 349 l 142 329 q 139 299 139 314 q 139 269 139 283 q 193 103 139 163 q 346 44 247 44 q 466 65 414 44 q 576 139 518 86 l 614 100 q 488 17 549 42 q 343 -8 426 -8 m 615 363 q 621 404 618 383 q 624 447 624 425 q 605 540 624 494 q 543 614 586 585 q 425 643 500 643 q 299 608 356 643 q 203 512 242 572 q 147 374 164 451 l 633 374 l 615 363 z "},"é":{"ha":750,"x_min":81,"x_max":676,"o":"m 343 -8 q 200 26 258 -8 q 111 124 142 61 q 81 269 81 188 q 103 422 81 347 q 171 558 126 497 q 280 656 215 619 q 425 693 344 693 q 573 656 518 693 q 652 560 628 618 q 676 439 676 501 q 672 380 676 411 q 663 329 668 349 l 142 329 q 139 299 139 314 q 139 269 139 283 q 193 103 139 163 q 346 44 247 44 q 466 65 414 44 q 576 139 518 86 l 614 100 q 488 17 549 42 q 343 -8 426 -8 m 615 363 q 621 404 618 383 q 624 447 624 425 q 605 540 624 494 q 543 614 586 585 q 425 643 500 643 q 299 608 356 643 q 203 512 242 572 q 147 374 164 451 l 633 374 l 615 363 m 411 774 l 574 968 l 638 968 l 458 774 l 411 774 z "},"ĕ":{"ha":750,"x_min":81,"x_max":676,"o":"m 343 -8 q 200 26 258 -8 q 111 124 142 61 q 81 269 81 188 q 103 422 81 347 q 171 558 126 497 q 280 656 215 619 q 425 693 344 693 q 573 656 518 693 q 652 560 628 618 q 676 439 676 501 q 672 380 676 411 q 663 329 668 349 l 142 329 q 139 299 139 314 q 139 269 139 283 q 193 103 139 163 q 346 44 247 44 q 466 65 414 44 q 576 139 518 86 l 614 100 q 488 17 549 42 q 343 -8 426 -8 m 615 363 q 621 404 618 383 q 624 447 624 425 q 605 540 624 494 q 543 614 586 585 q 425 643 500 643 q 299 608 356 643 q 203 512 242 572 q 147 374 164 451 l 633 374 l 615 363 m 443 782 q 301 820 353 782 q 249 933 250 858 q 249 948 249 939 q 251 968 250 957 l 288 968 q 286 951 286 958 q 286 938 286 944 q 327 851 288 881 q 443 821 367 821 q 572 860 525 821 q 626 968 618 899 l 664 968 q 595 828 653 875 q 443 782 538 782 z "},"ě":{"ha":750,"x_min":81,"x_max":676,"o":"m 343 -8 q 200 26 258 -8 q 111 124 142 61 q 81 269 81 188 q 103 422 81 347 q 171 558 126 497 q 280 656 215 619 q 425 693 344 693 q 573 656 518 693 q 652 560 628 618 q 676 439 676 501 q 672 380 676 411 q 663 329 668 349 l 142 329 q 139 299 139 314 q 139 269 139 283 q 193 103 139 163 q 346 44 247 44 q 466 65 414 44 q 576 139 518 86 l 614 100 q 488 17 549 42 q 343 -8 426 -8 m 615 363 q 621 404 618 383 q 624 447 624 425 q 605 540 624 494 q 543 614 586 585 q 425 643 500 643 q 299 608 356 643 q 203 512 242 572 q 147 374 164 451 l 633 374 l 615 363 m 439 764 l 269 968 l 317 968 l 444 817 l 615 968 l 665 968 l 439 764 z "},"ê":{"ha":750,"x_min":81,"x_max":676,"o":"m 343 -8 q 200 26 258 -8 q 111 124 142 61 q 81 269 81 188 q 103 422 81 347 q 171 558 126 497 q 280 656 215 619 q 425 693 344 693 q 573 656 518 693 q 652 560 628 618 q 676 439 676 501 q 672 380 676 411 q 663 329 668 349 l 142 329 q 139 299 139 314 q 139 269 139 283 q 193 103 139 163 q 346 44 247 44 q 466 65 414 44 q 576 139 518 86 l 614 100 q 488 17 549 42 q 343 -8 426 -8 m 615 363 q 621 404 618 383 q 624 447 624 425 q 605 540 624 494 q 543 614 586 585 q 425 643 500 643 q 299 608 356 643 q 203 512 242 572 q 147 374 164 451 l 633 374 l 615 363 m 240 768 l 468 975 l 638 768 l 589 768 l 463 921 l 292 768 l 240 768 z "},"ế":{"ha":750,"x_min":81,"x_max":760,"o":"m 343 -8 q 200 26 258 -8 q 111 124 142 61 q 81 269 81 188 q 103 422 81 347 q 171 558 126 497 q 280 656 215 619 q 425 693 344 693 q 573 656 518 693 q 652 560 628 618 q 676 439 676 501 q 672 380 676 411 q 663 329 668 349 l 142 329 q 139 299 139 314 q 139 269 139 283 q 193 103 139 163 q 346 44 247 44 q 466 65 414 44 q 576 139 518 86 l 614 100 q 488 17 549 42 q 343 -8 426 -8 m 615 363 q 621 404 618 383 q 624 447 624 425 q 605 540 624 494 q 543 614 586 585 q 425 643 500 643 q 299 608 356 643 q 203 512 242 572 q 147 374 164 451 l 633 374 l 615 363 m 235 768 l 465 969 l 640 768 l 588 768 l 461 914 l 289 768 l 235 768 m 571 899 l 707 1089 l 760 1089 l 613 899 l 571 899 z "},"ệ":{"ha":750,"x_min":81,"x_max":676,"o":"m 343 -8 q 200 26 258 -8 q 111 124 142 61 q 81 269 81 188 q 103 422 81 347 q 171 558 126 497 q 280 656 215 619 q 425 693 344 693 q 573 656 518 693 q 652 560 628 618 q 676 439 676 501 q 672 380 676 411 q 663 329 668 349 l 142 329 q 139 299 139 314 q 139 269 139 283 q 193 103 139 163 q 346 44 247 44 q 466 65 414 44 q 576 139 518 86 l 614 100 q 488 17 549 42 q 343 -8 426 -8 m 615 363 q 621 404 618 383 q 624 447 624 425 q 605 540 624 494 q 543 614 586 585 q 425 643 500 643 q 299 608 356 643 q 203 512 242 572 q 147 374 164 451 l 633 374 l 615 363 m 288 -242 l 297 -107 l 369 -107 l 358 -242 l 288 -242 m 240 768 l 468 975 l 638 768 l 589 768 l 463 921 l 292 768 l 240 768 z "},"ề":{"ha":750,"x_min":81,"x_max":692,"o":"m 343 -8 q 200 26 258 -8 q 111 124 142 61 q 81 269 81 188 q 103 422 81 347 q 171 558 126 497 q 280 656 215 619 q 425 693 344 693 q 573 656 518 693 q 652 560 628 618 q 676 439 676 501 q 672 380 676 411 q 663 329 668 349 l 142 329 q 139 299 139 314 q 139 269 139 283 q 193 103 139 163 q 346 44 247 44 q 466 65 414 44 q 576 139 518 86 l 614 100 q 488 17 549 42 q 343 -8 426 -8 m 615 363 q 621 404 618 383 q 624 447 624 425 q 605 540 624 494 q 543 614 586 585 q 425 643 500 643 q 299 608 356 643 q 203 512 242 572 q 147 374 164 451 l 633 374 l 615 363 m 235 768 l 465 969 l 640 768 l 588 768 l 461 914 l 290 768 l 235 768 m 651 899 l 558 1089 l 608 1089 l 690 899 l 651 899 z "},"ể":{"ha":750,"x_min":81,"x_max":747,"o":"m 343 -8 q 200 26 258 -8 q 111 124 142 61 q 81 269 81 188 q 103 422 81 347 q 171 558 126 497 q 280 656 215 619 q 425 693 344 693 q 573 656 518 693 q 652 560 628 618 q 676 439 676 501 q 672 380 676 411 q 663 329 668 349 l 142 329 q 139 299 139 314 q 139 269 139 283 q 193 103 139 163 q 346 44 247 44 q 466 65 414 44 q 576 139 518 86 l 614 100 q 488 17 549 42 q 343 -8 426 -8 m 615 363 q 621 404 618 383 q 624 447 624 425 q 605 540 624 494 q 543 614 586 585 q 425 643 500 643 q 299 608 356 643 q 203 512 242 572 q 147 374 164 451 l 633 374 l 615 363 m 235 768 l 465 969 l 640 768 l 588 768 l 461 914 l 290 768 l 235 768 m 582 882 l 574 910 q 638 926 607 915 q 687 954 668 936 q 707 1001 706 972 q 668 1061 708 1043 q 578 1079 628 1079 l 556 1079 l 560 1114 l 579 1114 q 701 1083 656 1114 q 743 996 747 1053 q 716 935 740 957 q 656 901 692 913 q 582 882 621 889 z "},"ễ":{"ha":750,"x_min":81,"x_max":683,"o":"m 343 -8 q 200 26 258 -8 q 111 124 142 61 q 81 269 81 188 q 103 422 81 347 q 171 558 126 497 q 280 656 215 619 q 425 693 344 693 q 573 656 518 693 q 652 560 628 618 q 676 439 676 501 q 672 380 676 411 q 663 329 668 349 l 142 329 q 139 299 139 314 q 139 269 139 283 q 193 103 139 163 q 346 44 247 44 q 466 65 414 44 q 576 139 518 86 l 614 100 q 488 17 549 42 q 343 -8 426 -8 m 615 363 q 621 404 618 383 q 624 447 624 425 q 605 540 624 494 q 543 614 586 585 q 425 643 500 643 q 299 608 356 643 q 203 512 242 572 q 147 374 164 451 l 633 374 l 615 363 m 236 768 l 467 969 l 642 768 l 589 768 l 463 914 l 290 768 l 236 768 m 565 1001 q 510 1011 531 1001 q 475 1034 490 1021 q 443 1056 460 1047 q 399 1065 426 1065 q 343 1050 364 1065 q 310 1007 322 1035 l 274 1014 q 320 1077 290 1054 q 394 1100 350 1100 q 448 1091 426 1100 q 485 1069 469 1082 q 517 1047 500 1057 q 560 1038 535 1038 q 613 1051 592 1038 q 646 1094 633 1065 l 683 1088 q 641 1026 669 1050 q 565 1001 613 1001 z "},"ë":{"ha":750,"x_min":81,"x_max":676,"o":"m 343 -8 q 200 26 258 -8 q 111 124 142 61 q 81 269 81 188 q 103 422 81 347 q 171 558 126 497 q 280 656 215 619 q 425 693 344 693 q 573 656 518 693 q 652 560 628 618 q 676 439 676 501 q 672 380 676 411 q 663 329 668 349 l 142 329 q 139 299 139 314 q 139 269 139 283 q 193 103 139 163 q 346 44 247 44 q 466 65 414 44 q 576 139 518 86 l 614 100 q 488 17 549 42 q 343 -8 426 -8 m 615 363 q 621 404 618 383 q 624 447 624 425 q 605 540 624 494 q 543 614 586 585 q 425 643 500 643 q 299 608 356 643 q 203 512 242 572 q 147 374 164 451 l 633 374 l 615 363 m 531 828 l 550 968 l 619 968 l 600 828 l 531 828 m 296 828 l 315 968 l 383 968 l 365 828 l 296 828 z "},"ė":{"ha":750,"x_min":81,"x_max":676,"o":"m 343 -8 q 200 26 258 -8 q 111 124 142 61 q 81 269 81 188 q 103 422 81 347 q 171 558 126 497 q 280 656 215 619 q 425 693 344 693 q 573 656 518 693 q 652 560 628 618 q 676 439 676 501 q 672 380 676 411 q 663 329 668 349 l 142 329 q 139 299 139 314 q 139 269 139 283 q 193 103 139 163 q 346 44 247 44 q 466 65 414 44 q 576 139 518 86 l 614 100 q 488 17 549 42 q 343 -8 426 -8 m 615 363 q 621 404 618 383 q 624 447 624 425 q 605 540 624 494 q 543 614 586 585 q 425 643 500 643 q 299 608 356 643 q 203 512 242 572 q 147 374 164 451 l 633 374 l 615 363 m 413 828 l 432 968 l 503 968 l 483 828 l 413 828 z "},"ẹ":{"ha":750,"x_min":81,"x_max":676,"o":"m 343 -8 q 200 26 258 -8 q 111 124 142 61 q 81 269 81 188 q 103 422 81 347 q 171 558 126 497 q 280 656 215 619 q 425 693 344 693 q 573 656 518 693 q 652 560 628 618 q 676 439 676 501 q 672 380 676 411 q 663 329 668 349 l 142 329 q 139 299 139 314 q 139 269 139 283 q 193 103 139 163 q 346 44 247 44 q 466 65 414 44 q 576 139 518 86 l 614 100 q 488 17 549 42 q 343 -8 426 -8 m 615 363 q 621 404 618 383 q 624 447 624 425 q 605 540 624 494 q 543 614 586 585 q 425 643 500 643 q 299 608 356 643 q 203 512 242 572 q 147 374 164 451 l 633 374 l 615 363 m 288 -242 l 297 -107 l 369 -107 l 358 -242 l 288 -242 z "},"è":{"ha":750,"x_min":81,"x_max":676,"o":"m 343 -8 q 200 26 258 -8 q 111 124 142 61 q 81 269 81 188 q 103 422 81 347 q 171 558 126 497 q 280 656 215 619 q 425 693 344 693 q 573 656 518 693 q 652 560 628 618 q 676 439 676 501 q 672 380 676 411 q 663 329 668 349 l 142 329 q 139 299 139 314 q 139 269 139 283 q 193 103 139 163 q 346 44 247 44 q 466 65 414 44 q 576 139 518 86 l 614 100 q 488 17 549 42 q 343 -8 426 -8 m 615 363 q 621 404 618 383 q 624 447 624 425 q 605 540 624 494 q 543 614 586 585 q 425 643 500 643 q 299 608 356 643 q 203 512 242 572 q 147 374 164 451 l 633 374 l 615 363 m 411 774 l 267 968 l 328 968 l 458 774 l 411 774 z "},"ẻ":{"ha":750,"x_min":81,"x_max":676,"o":"m 343 -8 q 200 26 258 -8 q 111 124 142 61 q 81 269 81 188 q 103 422 81 347 q 171 558 126 497 q 280 656 215 619 q 425 693 344 693 q 573 656 518 693 q 652 560 628 618 q 676 439 676 501 q 672 380 676 411 q 663 329 668 349 l 142 329 q 139 299 139 314 q 139 269 139 283 q 193 103 139 163 q 346 44 247 44 q 466 65 414 44 q 576 139 518 86 l 614 100 q 488 17 549 42 q 343 -8 426 -8 m 615 363 q 621 404 618 383 q 624 447 624 425 q 605 540 624 494 q 543 614 586 585 q 425 643 500 643 q 299 608 356 643 q 203 512 242 572 q 147 374 164 451 l 633 374 l 615 363 m 410 735 l 404 761 q 463 778 433 768 q 515 806 493 788 q 538 857 536 824 q 499 915 539 897 q 407 932 460 932 l 385 932 l 390 969 l 408 969 q 534 939 485 969 q 581 854 583 908 q 552 788 579 811 q 486 754 525 765 q 410 735 447 743 z "},"ē":{"ha":750,"x_min":81,"x_max":676,"o":"m 343 -8 q 200 26 258 -8 q 111 124 142 61 q 81 269 81 188 q 103 422 81 347 q 171 558 126 497 q 280 656 215 619 q 425 693 344 693 q 573 656 518 693 q 652 560 628 618 q 676 439 676 501 q 672 380 676 411 q 663 329 668 349 l 142 329 q 139 299 139 314 q 139 269 139 283 q 193 103 139 163 q 346 44 247 44 q 466 65 414 44 q 576 139 518 86 l 614 100 q 488 17 549 42 q 343 -8 426 -8 m 615 363 q 621 404 618 383 q 624 447 624 425 q 605 540 624 494 q 543 614 586 585 q 425 643 500 643 q 299 608 356 643 q 203 512 242 572 q 147 374 164 451 l 633 374 l 615 363 m 269 857 l 274 894 l 639 894 l 633 857 l 269 857 z "},"ę":{"ha":750,"x_min":81,"x_max":676,"o":"m 343 -8 q 200 26 258 -8 q 111 124 142 61 q 81 269 81 188 q 103 422 81 347 q 171 558 126 497 q 280 656 215 619 q 425 693 344 693 q 573 656 518 693 q 652 560 628 618 q 676 439 676 501 q 672 380 676 411 q 663 329 668 349 l 142 329 q 139 299 139 314 q 139 269 139 283 q 193 103 139 163 q 346 44 247 44 q 466 65 414 44 q 576 139 518 86 l 614 100 q 488 17 549 42 q 343 -8 426 -8 m 615 363 q 621 404 618 383 q 624 447 624 425 q 605 540 624 494 q 543 614 586 585 q 425 643 500 643 q 299 608 356 643 q 203 512 242 572 q 147 374 164 451 l 633 374 l 615 363 m 357 -290 q 277 -264 310 -290 q 244 -187 244 -237 q 263 -112 244 -147 q 313 -46 282 -76 q 376 4 343 -15 l 424 0 q 371 -36 396 -15 q 326 -81 346 -57 q 295 -130 307 -104 q 283 -183 283 -156 q 305 -235 283 -218 q 354 -251 326 -251 q 398 -243 375 -251 q 440 -219 421 -235 l 464 -250 q 411 -281 439 -271 q 357 -290 383 -290 z "},"ẽ":{"ha":750,"x_min":81,"x_max":678,"o":"m 343 -8 q 200 26 258 -8 q 111 124 142 61 q 81 269 81 188 q 103 422 81 347 q 171 558 126 497 q 280 656 215 619 q 425 693 344 693 q 573 656 518 693 q 652 560 628 618 q 676 439 676 501 q 672 380 676 411 q 663 329 668 349 l 142 329 q 139 299 139 314 q 139 269 139 283 q 193 103 139 163 q 346 44 247 44 q 466 65 414 44 q 576 139 518 86 l 614 100 q 488 17 549 42 q 343 -8 426 -8 m 615 363 q 621 404 618 383 q 624 447 624 425 q 605 540 624 494 q 543 614 586 585 q 425 643 500 643 q 299 608 356 643 q 203 512 242 572 q 147 374 164 451 l 633 374 l 615 363 m 546 803 q 478 826 499 803 q 443 876 458 850 q 415 917 429 900 q 371 935 400 935 q 306 903 333 935 q 272 817 279 872 l 236 819 q 282 934 246 893 q 372 975 318 975 q 435 952 415 975 q 468 903 454 929 q 499 859 483 876 q 546 842 515 842 q 606 877 578 842 q 640 969 633 913 l 678 967 q 630 847 667 890 q 546 803 593 803 z "},"ə":{"ha":750,"x_min":75,"x_max":669,"o":"m 407 693 q 551 658 492 693 q 640 560 610 624 q 669 415 669 497 q 647 263 669 338 q 579 126 624 188 q 471 28 535 65 q 325 -8 407 -8 q 178 29 233 -8 q 99 126 124 67 q 75 246 75 185 q 79 305 75 274 q 88 356 83 336 l 608 356 q 612 386 611 371 q 613 415 613 401 q 558 581 613 522 q 406 640 504 640 q 285 620 338 640 q 175 546 233 600 l 136 585 q 263 668 203 643 q 407 693 324 693 m 136 322 q 130 282 132 303 q 128 238 128 261 q 146 145 128 190 q 208 71 164 100 q 325 42 251 42 q 452 77 394 42 q 549 174 510 113 q 603 311 589 235 l 117 311 l 136 322 z "},"f":{"ha":450,"x_min":56,"x_max":536,"o":"m 126 0 l 217 639 l 56 639 l 63 685 l 224 685 l 238 793 q 274 900 247 860 q 340 958 300 940 q 429 976 381 976 q 490 969 464 976 q 536 951 515 963 l 513 908 q 476 922 496 918 q 435 926 457 926 q 341 892 376 926 q 296 790 306 857 l 282 685 l 454 685 l 447 639 l 274 639 l 185 0 l 126 0 z "},"g":{"ha":833,"x_min":44,"x_max":765,"o":"m 313 -292 q 191 -269 244 -292 q 100 -206 138 -247 q 44 -108 63 -164 l 92 -76 q 169 -195 113 -149 q 313 -242 226 -242 q 449 -218 385 -242 q 557 -138 513 -194 q 614 17 601 -82 l 643 232 l 651 224 q 527 66 608 124 q 347 8 446 8 q 207 46 267 8 q 115 149 147 83 q 82 296 82 214 q 109 444 82 374 q 184 572 136 515 q 297 660 232 628 q 438 693 361 693 q 603 634 538 693 q 685 478 669 575 l 679 471 l 708 685 l 765 685 l 671 14 q 606 -163 657 -96 q 481 -261 556 -231 q 313 -292 406 -292 m 361 64 q 484 92 428 64 q 582 167 540 119 q 647 276 624 215 q 669 403 669 336 q 642 525 669 472 q 566 609 615 578 q 449 640 517 640 q 327 612 383 640 q 228 535 271 583 q 163 426 186 488 q 139 299 139 364 q 167 178 139 232 q 244 94 194 125 q 361 64 294 64 z "},"ğ":{"ha":833,"x_min":44,"x_max":765,"o":"m 313 -292 q 191 -269 244 -292 q 100 -206 138 -247 q 44 -108 63 -164 l 92 -76 q 169 -195 113 -149 q 313 -242 226 -242 q 449 -218 385 -242 q 557 -138 513 -194 q 614 17 601 -82 l 643 232 l 651 224 q 527 66 608 124 q 347 8 446 8 q 207 46 267 8 q 115 149 147 83 q 82 296 82 214 q 109 444 82 374 q 184 572 136 515 q 297 660 232 628 q 438 693 361 693 q 603 634 538 693 q 685 478 669 575 l 679 471 l 708 685 l 765 685 l 671 14 q 606 -163 657 -96 q 481 -261 556 -231 q 313 -292 406 -292 m 361 64 q 484 92 428 64 q 582 167 540 119 q 647 276 624 215 q 669 403 669 336 q 642 525 669 472 q 566 609 615 578 q 449 640 517 640 q 327 612 383 640 q 228 535 271 583 q 163 426 186 488 q 139 299 139 364 q 167 178 139 232 q 244 94 194 125 q 361 64 294 64 m 489 782 q 347 820 399 782 q 294 933 296 858 q 295 948 294 939 q 297 968 296 957 l 333 968 q 332 951 332 958 q 332 938 332 944 q 373 851 333 881 q 489 821 413 821 q 617 860 571 821 q 672 968 664 899 l 710 968 q 641 828 699 875 q 489 782 583 782 z "},"ǧ":{"ha":833,"x_min":44,"x_max":765,"o":"m 313 -292 q 191 -269 244 -292 q 100 -206 138 -247 q 44 -108 63 -164 l 92 -76 q 169 -195 113 -149 q 313 -242 226 -242 q 449 -218 385 -242 q 557 -138 513 -194 q 614 17 601 -82 l 643 232 l 651 224 q 527 66 608 124 q 347 8 446 8 q 207 46 267 8 q 115 149 147 83 q 82 296 82 214 q 109 444 82 374 q 184 572 136 515 q 297 660 232 628 q 438 693 361 693 q 603 634 538 693 q 685 478 669 575 l 679 471 l 708 685 l 765 685 l 671 14 q 606 -163 657 -96 q 481 -261 556 -231 q 313 -292 406 -292 m 361 64 q 484 92 428 64 q 582 167 540 119 q 647 276 624 215 q 669 403 669 336 q 642 525 669 472 q 566 609 615 578 q 449 640 517 640 q 327 612 383 640 q 228 535 271 583 q 163 426 186 488 q 139 299 139 364 q 167 178 139 232 q 244 94 194 125 q 361 64 294 64 m 486 764 l 317 968 l 364 968 l 492 817 l 663 968 l 713 968 l 486 764 z "},"ĝ":{"ha":833,"x_min":44,"x_max":765,"o":"m 313 -292 q 191 -269 244 -292 q 100 -206 138 -247 q 44 -108 63 -164 l 92 -76 q 169 -195 113 -149 q 313 -242 226 -242 q 449 -218 385 -242 q 557 -138 513 -194 q 614 17 601 -82 l 643 232 l 651 224 q 527 66 608 124 q 347 8 446 8 q 207 46 267 8 q 115 149 147 83 q 82 296 82 214 q 109 444 82 374 q 184 572 136 515 q 297 660 232 628 q 438 693 361 693 q 603 634 538 693 q 685 478 669 575 l 679 471 l 708 685 l 765 685 l 671 14 q 606 -163 657 -96 q 481 -261 556 -231 q 313 -292 406 -292 m 361 64 q 484 92 428 64 q 582 167 540 119 q 647 276 624 215 q 669 403 669 336 q 642 525 669 472 q 566 609 615 578 q 449 640 517 640 q 327 612 383 640 q 228 535 271 583 q 163 426 186 488 q 139 299 139 364 q 167 178 139 232 q 244 94 194 125 q 361 64 294 64 m 286 768 l 514 975 l 683 768 l 635 768 l 508 921 l 338 768 l 286 768 z "},"ģ":{"ha":833,"x_min":44,"x_max":765,"o":"m 313 -292 q 191 -269 244 -292 q 100 -206 138 -247 q 44 -108 63 -164 l 92 -76 q 169 -195 113 -149 q 313 -242 226 -242 q 449 -218 385 -242 q 557 -138 513 -194 q 614 17 601 -82 l 643 232 l 651 224 q 527 66 608 124 q 347 8 446 8 q 207 46 267 8 q 115 149 147 83 q 82 296 82 214 q 109 444 82 374 q 184 572 136 515 q 297 660 232 628 q 438 693 361 693 q 603 634 538 693 q 685 478 669 575 l 679 471 l 708 685 l 765 685 l 671 14 q 606 -163 657 -96 q 481 -261 556 -231 q 313 -292 406 -292 m 361 64 q 484 92 428 64 q 582 167 540 119 q 647 276 624 215 q 669 403 669 336 q 642 525 669 472 q 566 609 615 578 q 449 640 517 640 q 327 612 383 640 q 228 535 271 583 q 163 426 186 488 q 139 299 139 364 q 167 178 139 232 q 244 94 194 125 q 361 64 294 64 m 381 772 l 556 972 l 597 972 l 443 772 l 381 772 z "},"ġ":{"ha":833,"x_min":44,"x_max":765,"o":"m 313 -292 q 191 -269 244 -292 q 100 -206 138 -247 q 44 -108 63 -164 l 92 -76 q 169 -195 113 -149 q 313 -242 226 -242 q 449 -218 385 -242 q 557 -138 513 -194 q 614 17 601 -82 l 643 232 l 651 224 q 527 66 608 124 q 347 8 446 8 q 207 46 267 8 q 115 149 147 83 q 82 296 82 214 q 109 444 82 374 q 184 572 136 515 q 297 660 232 628 q 438 693 361 693 q 603 634 538 693 q 685 478 669 575 l 679 471 l 708 685 l 765 685 l 671 14 q 606 -163 657 -96 q 481 -261 556 -231 q 313 -292 406 -292 m 361 64 q 484 92 428 64 q 582 167 540 119 q 647 276 624 215 q 669 403 669 336 q 642 525 669 472 q 566 609 615 578 q 449 640 517 640 q 327 612 383 640 q 228 535 271 583 q 163 426 186 488 q 139 299 139 364 q 167 178 139 232 q 244 94 194 125 q 361 64 294 64 m 460 828 l 479 968 l 550 968 l 531 828 l 460 828 z "},"ḡ":{"ha":833,"x_min":44,"x_max":765,"o":"m 313 -292 q 191 -269 244 -292 q 100 -206 138 -247 q 44 -108 63 -164 l 92 -76 q 169 -195 113 -149 q 313 -242 226 -242 q 449 -218 385 -242 q 557 -138 513 -194 q 614 17 601 -82 l 643 232 l 651 224 q 527 66 608 124 q 347 8 446 8 q 207 46 267 8 q 115 149 147 83 q 82 296 82 214 q 109 444 82 374 q 184 572 136 515 q 297 660 232 628 q 438 693 361 693 q 603 634 538 693 q 685 478 669 575 l 679 471 l 708 685 l 765 685 l 671 14 q 606 -163 657 -96 q 481 -261 556 -231 q 313 -292 406 -292 m 361 64 q 484 92 428 64 q 582 167 540 119 q 647 276 624 215 q 669 403 669 336 q 642 525 669 472 q 566 609 615 578 q 449 640 517 640 q 327 612 383 640 q 228 535 271 583 q 163 426 186 488 q 139 299 139 364 q 167 178 139 232 q 244 94 194 125 q 361 64 294 64 m 317 857 l 321 894 l 686 894 l 681 857 l 317 857 z "},"h":{"ha":731,"x_min":67,"x_max":640,"o":"m 67 0 l 203 968 l 260 968 l 196 513 l 183 514 q 244 613 207 574 q 332 673 282 653 q 439 693 382 693 q 588 641 536 693 q 640 488 640 589 q 639 456 640 472 q 635 418 638 439 l 576 0 l 518 0 l 575 401 q 578 439 578 421 q 579 472 579 457 q 542 601 579 558 q 426 643 504 643 q 258 569 322 643 q 174 353 194 496 l 124 0 l 67 0 z "},"ħ":{"ha":731,"x_min":67,"x_max":640,"o":"m 67 0 l 203 968 l 260 968 l 196 513 l 183 514 q 244 613 207 574 q 332 673 282 653 q 439 693 382 693 q 588 641 536 693 q 640 488 640 589 q 639 456 640 472 q 635 418 638 439 l 576 0 l 518 0 l 575 401 q 578 439 578 421 q 579 472 579 457 q 542 601 579 558 q 426 643 504 643 q 258 569 322 643 q 174 353 194 496 l 124 0 l 67 0 m 104 818 l 110 860 l 438 860 l 432 818 l 104 818 z "},"ĥ":{"ha":731,"x_min":39,"x_max":640,"o":"m 67 0 l 203 968 l 260 968 l 196 513 l 183 514 q 244 613 207 574 q 332 673 282 653 q 439 693 382 693 q 588 641 536 693 q 640 488 640 589 q 639 456 640 472 q 635 418 638 439 l 576 0 l 518 0 l 575 401 q 578 439 578 421 q 579 472 579 457 q 542 601 579 558 q 426 643 504 643 q 258 569 322 643 q 174 353 194 496 l 124 0 l 67 0 m 39 1051 l 272 1258 l 444 1051 l 392 1051 l 265 1204 l 96 1051 l 39 1051 z "},"i":{"ha":290,"x_min":68,"x_max":268,"o":"m 68 0 l 164 685 l 222 685 l 125 0 l 68 0 m 178 828 l 197 968 l 268 968 l 249 828 l 178 828 z "},"ı":{"ha":290,"x_min":68,"x_max":222,"o":"m 68 0 l 164 685 l 222 685 l 125 0 l 68 0 z "},"í":{"ha":290,"x_min":68,"x_max":403,"o":"m 68 0 l 164 685 l 222 685 l 125 0 l 68 0 m 176 774 l 339 968 l 403 968 l 224 774 l 176 774 z "},"ĭ":{"ha":290,"x_min":14,"x_max":429,"o":"m 68 0 l 164 685 l 222 685 l 125 0 l 68 0 m 208 782 q 67 820 118 782 q 14 933 15 858 q 15 948 14 939 q 17 968 15 957 l 53 968 q 51 951 51 958 q 51 938 51 944 q 92 851 53 881 q 208 821 132 821 q 337 860 290 821 q 392 968 383 899 l 429 968 q 360 828 418 875 q 208 782 303 782 z "},"ǐ":{"ha":290,"x_min":35,"x_max":432,"o":"m 68 0 l 164 685 l 222 685 l 125 0 l 68 0 m 206 764 l 36 968 l 83 968 l 211 817 l 382 968 l 432 968 l 206 764 z "},"î":{"ha":290,"x_min":6,"x_max":403,"o":"m 68 0 l 164 685 l 222 685 l 125 0 l 68 0 m 6 768 l 233 975 l 403 768 l 354 768 l 228 921 l 57 768 l 6 768 z "},"ï":{"ha":290,"x_min":61,"x_max":385,"o":"m 68 0 l 164 685 l 222 685 l 125 0 l 68 0 m 296 828 l 315 968 l 385 968 l 365 828 l 296 828 m 61 828 l 81 968 l 149 968 l 131 828 l 61 828 z "},"ị":{"ha":290,"x_min":42,"x_max":268,"o":"m 68 0 l 164 685 l 222 685 l 125 0 l 68 0 m 178 828 l 197 968 l 268 968 l 249 828 l 178 828 m 42 -242 l 51 -107 l 124 -107 l 113 -242 l 42 -242 z "},"ì":{"ha":290,"x_min":32,"x_max":224,"o":"m 68 0 l 164 685 l 222 685 l 125 0 l 68 0 m 178 774 l 33 968 l 94 968 l 225 774 l 178 774 z "},"ỉ":{"ha":290,"x_min":68,"x_max":349,"o":"m 68 0 l 164 685 l 222 685 l 125 0 l 68 0 m 175 735 l 169 761 q 228 778 199 768 q 280 806 258 788 q 303 857 301 824 q 265 915 304 897 q 172 932 225 932 l 150 932 l 156 969 l 174 969 q 299 939 250 969 q 346 854 349 908 q 317 788 344 811 q 251 754 290 765 q 175 735 213 743 z "},"ĳ":{"ha":579,"x_min":68,"x_max":558,"o":"m 68 0 l 164 685 l 222 685 l 125 0 l 68 0 m 178 828 l 197 968 l 268 968 l 249 828 l 178 828 m 261 -292 q 219 -287 240 -292 q 174 -275 197 -282 l 178 -225 q 216 -235 199 -232 q 246 -239 233 -239 q 308 -214 285 -239 q 339 -133 332 -189 l 454 685 l 513 685 l 394 -149 q 350 -258 385 -224 q 261 -292 315 -292 m 468 828 l 488 968 l 558 968 l 539 828 l 468 828 z "},"ī":{"ha":290,"x_min":35,"x_max":406,"o":"m 68 0 l 164 685 l 222 685 l 125 0 l 68 0 m 36 857 l 40 894 l 406 894 l 400 857 l 36 857 z "},"į":{"ha":290,"x_min":-53,"x_max":268,"o":"m 68 0 l 164 685 l 222 685 l 125 0 l 68 0 m 178 828 l 197 968 l 268 968 l 249 828 l 178 828 m 58 -290 q -22 -264 11 -290 q -54 -187 -54 -237 q -35 -112 -54 -147 q 14 -46 -17 -76 q 78 4 44 -15 l 125 0 q 72 -36 97 -15 q 28 -81 47 -57 q -3 -130 8 -104 q -15 -183 -15 -156 q 6 -235 -15 -218 q 56 -251 28 -251 q 99 -243 76 -251 q 142 -219 122 -235 l 165 -250 q 113 -281 140 -271 q 58 -290 85 -290 z "},"ĩ":{"ha":290,"x_min":1,"x_max":443,"o":"m 68 0 l 164 685 l 222 685 l 125 0 l 68 0 m 311 803 q 244 826 264 803 q 208 876 224 850 q 180 917 194 900 q 136 935 165 935 q 72 903 99 935 q 38 817 44 872 l 1 819 q 47 934 11 893 q 138 975 83 975 q 200 952 181 975 q 233 903 219 929 q 265 859 249 876 q 311 842 281 842 q 371 877 343 842 q 406 969 399 913 l 443 967 q 395 847 432 890 q 311 803 358 803 z "},"j":{"ha":290,"x_min":-117,"x_max":268,"o":"m -29 -292 q -72 -287 -50 -292 q -117 -275 -93 -282 l -112 -225 q -74 -235 -92 -232 q -44 -239 -57 -239 q 18 -214 -6 -239 q 49 -133 42 -189 l 164 685 l 222 685 l 104 -149 q 60 -258 94 -224 q -29 -292 25 -292 m 178 828 l 197 968 l 268 968 l 249 828 l 178 828 z "},"ȷ":{"ha":290,"x_min":-117,"x_max":222,"o":"m -29 -292 q -72 -287 -50 -292 q -117 -275 -93 -282 l -112 -225 q -74 -235 -92 -232 q -44 -239 -57 -239 q 18 -214 -6 -239 q 49 -133 42 -189 l 164 685 l 222 685 l 104 -149 q 60 -258 94 -224 q -29 -292 25 -292 z "},"ĵ":{"ha":290,"x_min":-117,"x_max":403,"o":"m -29 -292 q -72 -287 -50 -292 q -117 -275 -93 -282 l -112 -225 q -74 -235 -92 -232 q -44 -239 -57 -239 q 18 -214 -6 -239 q 49 -133 42 -189 l 164 685 l 222 685 l 104 -149 q 60 -258 94 -224 q -29 -292 25 -292 m 6 768 l 233 975 l 403 768 l 354 768 l 228 921 l 57 768 l 6 768 z "},"k":{"ha":701,"x_min":65,"x_max":658,"o":"m 539 0 l 333 396 l 143 224 l 153 297 l 579 685 l 658 685 l 375 432 l 604 0 l 539 0 m 65 0 l 201 968 l 260 968 l 124 0 l 65 0 z "},"ķ":{"ha":701,"x_min":65,"x_max":658,"o":"m 539 0 l 333 396 l 143 224 l 153 297 l 579 685 l 658 685 l 375 432 l 604 0 l 539 0 m 65 0 l 201 968 l 260 968 l 124 0 l 65 0 m 132 -303 l 271 -79 l 335 -79 l 175 -303 l 132 -303 z "},"ĸ":{"ha":703,"x_min":68,"x_max":660,"o":"m 144 224 l 154 297 l 581 685 l 660 685 l 376 432 l 606 0 l 542 0 l 335 396 l 144 224 m 68 0 l 164 685 l 221 685 l 125 0 l 68 0 z "},"l":{"ha":346,"x_min":83,"x_max":272,"o":"m 186 -8 q 107 21 131 -8 q 83 97 83 50 q 84 114 83 101 q 86 138 85 126 l 203 968 l 258 968 l 144 143 q 142 128 143 136 q 142 111 142 121 q 155 64 142 82 q 204 46 168 46 q 235 48 219 46 q 272 58 251 50 l 265 6 q 224 -6 242 -3 q 186 -8 206 -8 z "},"ĺ":{"ha":368,"x_min":83,"x_max":440,"o":"m 186 -8 q 107 21 131 -8 q 83 97 83 50 q 84 114 83 101 q 86 138 85 126 l 203 968 l 258 968 l 144 143 q 142 128 143 136 q 142 111 142 121 q 155 64 142 82 q 204 46 168 46 q 235 48 219 46 q 272 58 251 50 l 265 6 q 224 -6 242 -3 q 186 -8 206 -8 m 214 1057 l 376 1251 l 440 1251 l 261 1057 l 214 1057 z "},"ľ":{"ha":346,"x_min":83,"x_max":481,"o":"m 186 -8 q 107 21 131 -8 q 83 97 83 50 q 84 114 83 101 q 86 138 85 126 l 203 968 l 258 968 l 144 143 q 142 128 143 136 q 142 111 142 121 q 155 64 142 82 q 204 46 168 46 q 235 48 219 46 q 272 58 251 50 l 265 6 q 224 -6 242 -3 q 186 -8 206 -8 m 318 690 l 419 968 l 482 968 l 356 690 l 318 690 z "},"ļ":{"ha":368,"x_min":-26,"x_max":272,"o":"m 186 -8 q 107 21 131 -8 q 83 97 83 50 q 84 114 83 101 q 86 138 85 126 l 203 968 l 258 968 l 144 143 q 142 128 143 136 q 142 111 142 121 q 155 64 142 82 q 204 46 168 46 q 235 48 219 46 q 272 58 251 50 l 265 6 q 224 -6 242 -3 q 186 -8 206 -8 m -26 -303 l 113 -79 l 176 -79 l 17 -303 l -26 -303 z "},"ŀ":{"ha":482,"x_min":83,"x_max":415,"o":"m 186 -8 q 107 21 131 -8 q 83 97 83 50 q 84 114 83 101 q 86 138 85 126 l 203 968 l 258 968 l 144 143 q 142 128 143 136 q 142 111 142 121 q 155 64 142 82 q 204 46 168 46 q 235 48 219 46 q 272 58 251 50 l 265 6 q 224 -6 242 -3 q 186 -8 206 -8 m 324 415 l 343 553 l 415 553 l 396 415 l 324 415 z "},"ł":{"ha":368,"x_min":44,"x_max":356,"o":"m 186 -8 q 107 21 131 -8 q 83 97 83 50 q 84 114 83 101 q 86 138 85 126 l 203 968 l 258 968 l 144 143 q 142 128 143 136 q 142 111 142 121 q 155 64 142 82 q 204 46 168 46 q 235 48 219 46 q 272 58 251 50 l 265 6 q 224 -6 242 -3 q 186 -8 206 -8 m 43 411 l 44 471 l 356 703 l 354 644 l 43 411 z "},"m":{"ha":1126,"x_min":67,"x_max":1035,"o":"m 67 0 l 164 685 l 221 685 l 196 510 l 185 515 q 247 617 210 578 q 331 675 285 657 q 425 693 376 693 q 528 670 486 693 q 592 601 569 647 q 614 482 614 554 l 585 488 q 651 603 613 558 q 738 671 689 649 q 844 693 788 693 q 956 666 914 693 q 1016 591 997 639 q 1035 481 1035 543 q 1033 438 1035 457 q 1028 399 1031 419 l 972 0 l 914 0 l 969 390 q 974 431 972 411 q 975 472 975 450 q 943 597 975 551 q 832 643 911 643 q 683 578 744 643 q 603 389 621 514 l 547 0 l 490 0 l 547 404 q 551 442 550 424 q 551 475 551 461 q 516 602 551 561 q 408 643 481 643 q 258 577 321 643 q 179 389 196 511 l 125 0 l 67 0 z "},"n":{"ha":732,"x_min":67,"x_max":640,"o":"m 67 0 l 164 685 l 221 685 l 196 513 l 183 514 q 247 615 208 575 q 334 674 285 654 q 439 693 383 693 q 588 642 535 693 q 640 488 640 592 q 639 456 640 472 q 635 418 638 439 l 576 0 l 518 0 l 575 401 q 578 439 578 421 q 579 472 579 457 q 541 601 579 560 q 426 643 503 643 q 263 574 329 643 q 174 353 196 504 l 124 0 l 67 0 z "},"ń":{"ha":732,"x_min":67,"x_max":640,"o":"m 67 0 l 164 685 l 221 685 l 196 513 l 183 514 q 247 615 208 575 q 334 674 285 654 q 439 693 383 693 q 588 642 535 693 q 640 488 640 592 q 639 456 640 472 q 635 418 638 439 l 576 0 l 518 0 l 575 401 q 578 439 578 421 q 579 472 579 457 q 541 601 579 560 q 426 643 503 643 q 263 574 329 643 q 174 353 196 504 l 124 0 l 67 0 m 392 774 l 554 968 l 618 968 l 439 774 l 392 774 z "},"ŉ":{"ha":906,"x_min":40,"x_max":819,"o":"m 40 569 l 260 968 l 328 968 l 83 569 l 40 569 m 246 0 l 343 685 l 400 685 l 375 513 l 363 514 q 426 615 388 575 q 513 674 464 654 q 618 693 563 693 q 767 642 714 693 q 819 488 819 592 q 818 456 819 472 q 814 418 817 439 l 756 0 l 697 0 l 754 401 q 758 439 757 421 q 758 472 758 457 q 720 601 758 560 q 606 643 682 643 q 442 574 508 643 q 353 353 375 504 l 303 0 l 246 0 z "},"ň":{"ha":732,"x_min":67,"x_max":647,"o":"m 67 0 l 164 685 l 221 685 l 196 513 l 183 514 q 247 615 208 575 q 334 674 285 654 q 439 693 383 693 q 588 642 535 693 q 640 488 640 592 q 639 456 640 472 q 635 418 638 439 l 576 0 l 518 0 l 575 401 q 578 439 578 421 q 579 472 579 457 q 541 601 579 560 q 426 643 503 643 q 263 574 329 643 q 174 353 196 504 l 124 0 l 67 0 m 421 764 l 251 968 l 299 968 l 426 817 l 597 968 l 647 968 l 421 764 z "},"ņ":{"ha":732,"x_min":67,"x_max":640,"o":"m 67 0 l 164 685 l 221 685 l 196 513 l 183 514 q 247 615 208 575 q 334 674 285 654 q 439 693 383 693 q 588 642 535 693 q 640 488 640 592 q 639 456 640 472 q 635 418 638 439 l 576 0 l 518 0 l 575 401 q 578 439 578 421 q 579 472 579 457 q 541 601 579 560 q 426 643 503 643 q 263 574 329 643 q 174 353 196 504 l 124 0 l 67 0 m 146 -303 l 285 -79 l 349 -79 l 189 -303 l 146 -303 z "},"ṅ":{"ha":732,"x_min":67,"x_max":640,"o":"m 67 0 l 164 685 l 221 685 l 196 513 l 183 514 q 247 615 208 575 q 334 674 285 654 q 439 693 383 693 q 588 642 535 693 q 640 488 640 592 q 639 456 640 472 q 635 418 638 439 l 576 0 l 518 0 l 575 401 q 578 439 578 421 q 579 472 579 457 q 541 601 579 560 q 426 643 503 643 q 263 574 329 643 q 174 353 196 504 l 124 0 l 67 0 m 393 828 l 413 968 l 483 968 l 464 828 l 393 828 z "},"ɲ":{"ha":758,"x_min":-85,"x_max":672,"o":"m 94 0 l 192 685 l 249 685 l 226 521 l 217 533 q 278 622 240 586 q 364 675 315 657 q 467 693 413 693 q 617 644 563 693 q 672 504 672 596 q 672 482 672 494 q 668 454 671 469 l 604 0 l 546 0 l 606 429 q 609 457 608 443 q 610 483 610 471 q 594 567 610 532 q 543 623 578 603 q 450 643 508 643 q 353 623 396 643 q 281 567 311 603 q 233 487 251 532 q 207 392 215 442 l 151 0 l 94 0 m 0 -292 q -41 -287 -19 -292 q -85 -275 -62 -283 l -81 -228 q -44 -238 -62 -235 q -15 -242 -26 -242 q 45 -217 22 -242 q 75 -139 68 -192 l 94 0 l 151 0 l 131 -149 q 85 -260 121 -228 q 0 -292 50 -292 z "},"ñ":{"ha":732,"x_min":67,"x_max":658,"o":"m 67 0 l 164 685 l 221 685 l 196 513 l 183 514 q 247 615 208 575 q 334 674 285 654 q 439 693 383 693 q 588 642 535 693 q 640 488 640 592 q 639 456 640 472 q 635 418 638 439 l 576 0 l 518 0 l 575 401 q 578 439 578 421 q 579 472 579 457 q 541 601 579 560 q 426 643 503 643 q 263 574 329 643 q 174 353 196 504 l 124 0 l 67 0 m 526 803 q 459 826 479 803 q 424 876 439 850 q 395 917 410 900 q 351 935 381 935 q 287 903 314 935 q 253 817 260 872 l 217 819 q 263 934 226 893 q 353 975 299 975 q 415 952 396 975 q 449 903 435 929 q 480 859 464 876 q 526 842 496 842 q 586 877 558 842 q 621 969 614 913 l 658 967 q 610 847 647 890 q 526 803 574 803 z "},"ŋ":{"ha":814,"x_min":110,"x_max":688,"o":"m 468 -292 q 426 -287 447 -292 q 382 -275 406 -283 l 386 -228 q 423 -238 406 -235 q 453 -242 440 -242 q 513 -217 490 -242 q 542 -139 535 -193 l 622 429 q 626 456 625 443 q 626 483 626 469 q 610 567 626 532 q 558 623 593 603 q 467 643 524 643 q 303 575 365 643 q 224 392 240 507 l 168 0 l 110 0 l 207 685 l 265 685 l 242 521 l 232 533 q 294 622 256 586 q 380 675 332 657 q 483 693 428 693 q 634 644 581 693 q 688 503 688 594 q 687 481 688 493 q 683 454 686 468 l 599 -149 q 553 -259 588 -226 q 468 -292 518 -292 z "},"o":{"ha":807,"x_min":79,"x_max":728,"o":"m 357 -8 q 210 28 272 -8 q 114 131 149 65 q 79 282 79 196 q 106 437 79 363 q 181 568 132 511 q 299 659 231 625 q 450 693 367 693 q 598 656 536 693 q 694 555 660 619 q 728 403 728 490 q 701 249 728 324 q 626 117 675 175 q 508 25 576 58 q 357 -8 440 -8 m 360 43 q 488 73 431 43 q 587 153 546 103 q 649 269 628 204 q 671 404 671 335 q 611 577 671 513 q 447 642 551 642 q 317 612 375 642 q 219 531 260 582 q 158 415 179 479 q 136 282 136 350 q 196 108 136 174 q 360 43 256 43 z "},"ó":{"ha":807,"x_min":79,"x_max":728,"o":"m 357 -8 q 210 28 272 -8 q 114 131 149 65 q 79 282 79 196 q 106 437 79 363 q 181 568 132 511 q 299 659 231 625 q 450 693 367 693 q 598 656 536 693 q 694 555 660 619 q 728 403 728 490 q 701 249 728 324 q 626 117 675 175 q 508 25 576 58 q 357 -8 440 -8 m 360 43 q 488 73 431 43 q 587 153 546 103 q 649 269 628 204 q 671 404 671 335 q 611 577 671 513 q 447 642 551 642 q 317 612 375 642 q 219 531 260 582 q 158 415 179 479 q 136 282 136 350 q 196 108 136 174 q 360 43 256 43 m 435 774 l 597 968 l 661 968 l 482 774 l 435 774 z "},"ŏ":{"ha":807,"x_min":79,"x_max":728,"o":"m 357 -8 q 210 28 272 -8 q 114 131 149 65 q 79 282 79 196 q 106 437 79 363 q 181 568 132 511 q 299 659 231 625 q 450 693 367 693 q 598 656 536 693 q 694 555 660 619 q 728 403 728 490 q 701 249 728 324 q 626 117 675 175 q 508 25 576 58 q 357 -8 440 -8 m 360 43 q 488 73 431 43 q 587 153 546 103 q 649 269 628 204 q 671 404 671 335 q 611 577 671 513 q 447 642 551 642 q 317 612 375 642 q 219 531 260 582 q 158 415 179 479 q 136 282 136 350 q 196 108 136 174 q 360 43 256 43 m 467 782 q 325 820 376 782 q 272 933 274 858 q 273 948 272 939 q 275 968 274 957 l 311 968 q 310 951 310 958 q 310 938 310 944 q 351 851 311 881 q 467 821 390 821 q 595 860 549 821 q 650 968 642 899 l 688 968 q 619 828 676 875 q 467 782 561 782 z "},"ǒ":{"ha":807,"x_min":79,"x_max":728,"o":"m 357 -8 q 210 28 272 -8 q 114 131 149 65 q 79 282 79 196 q 106 437 79 363 q 181 568 132 511 q 299 659 231 625 q 450 693 367 693 q 598 656 536 693 q 694 555 660 619 q 728 403 728 490 q 701 249 728 324 q 626 117 675 175 q 508 25 576 58 q 357 -8 440 -8 m 360 43 q 488 73 431 43 q 587 153 546 103 q 649 269 628 204 q 671 404 671 335 q 611 577 671 513 q 447 642 551 642 q 317 612 375 642 q 219 531 260 582 q 158 415 179 479 q 136 282 136 350 q 196 108 136 174 q 360 43 256 43 m 464 764 l 294 968 l 342 968 l 469 817 l 640 968 l 690 968 l 464 764 z "},"ô":{"ha":807,"x_min":79,"x_max":728,"o":"m 357 -8 q 210 28 272 -8 q 114 131 149 65 q 79 282 79 196 q 106 437 79 363 q 181 568 132 511 q 299 659 231 625 q 450 693 367 693 q 598 656 536 693 q 694 555 660 619 q 728 403 728 490 q 701 249 728 324 q 626 117 675 175 q 508 25 576 58 q 357 -8 440 -8 m 360 43 q 488 73 431 43 q 587 153 546 103 q 649 269 628 204 q 671 404 671 335 q 611 577 671 513 q 447 642 551 642 q 317 612 375 642 q 219 531 260 582 q 158 415 179 479 q 136 282 136 350 q 196 108 136 174 q 360 43 256 43 m 264 768 l 492 975 l 661 768 l 613 768 l 486 921 l 315 768 l 264 768 z "},"ố":{"ha":807,"x_min":79,"x_max":783,"o":"m 357 -8 q 210 28 272 -8 q 114 131 149 65 q 79 282 79 196 q 106 437 79 363 q 181 568 132 511 q 299 659 231 625 q 450 693 367 693 q 598 656 536 693 q 694 555 660 619 q 728 403 728 490 q 701 249 728 324 q 626 117 675 175 q 508 25 576 58 q 357 -8 440 -8 m 360 43 q 488 73 431 43 q 587 153 546 103 q 649 269 628 204 q 671 404 671 335 q 611 577 671 513 q 447 642 551 642 q 317 612 375 642 q 219 531 260 582 q 158 415 179 479 q 136 282 136 350 q 196 108 136 174 q 360 43 256 43 m 260 768 l 490 969 l 665 768 l 613 768 l 486 914 l 314 768 l 260 768 m 596 899 l 732 1089 l 785 1089 l 638 899 l 596 899 z "},"ộ":{"ha":807,"x_min":79,"x_max":728,"o":"m 357 -8 q 210 28 272 -8 q 114 131 149 65 q 79 282 79 196 q 106 437 79 363 q 181 568 132 511 q 299 659 231 625 q 450 693 367 693 q 598 656 536 693 q 694 555 660 619 q 728 403 728 490 q 701 249 728 324 q 626 117 675 175 q 508 25 576 58 q 357 -8 440 -8 m 360 43 q 488 73 431 43 q 587 153 546 103 q 649 269 628 204 q 671 404 671 335 q 611 577 671 513 q 447 642 551 642 q 317 612 375 642 q 219 531 260 582 q 158 415 179 479 q 136 282 136 350 q 196 108 136 174 q 360 43 256 43 m 300 -242 l 310 -107 l 382 -107 l 371 -242 l 300 -242 m 264 768 l 492 975 l 661 768 l 613 768 l 486 921 l 315 768 l 264 768 z "},"ồ":{"ha":807,"x_min":79,"x_max":728,"o":"m 357 -8 q 210 28 272 -8 q 114 131 149 65 q 79 282 79 196 q 106 437 79 363 q 181 568 132 511 q 299 659 231 625 q 450 693 367 693 q 598 656 536 693 q 694 555 660 619 q 728 403 728 490 q 701 249 728 324 q 626 117 675 175 q 508 25 576 58 q 357 -8 440 -8 m 360 43 q 488 73 431 43 q 587 153 546 103 q 649 269 628 204 q 671 404 671 335 q 611 577 671 513 q 447 642 551 642 q 317 612 375 642 q 219 531 260 582 q 158 415 179 479 q 136 282 136 350 q 196 108 136 174 q 360 43 256 43 m 260 768 l 490 969 l 665 768 l 613 768 l 486 914 l 315 768 l 260 768 m 676 899 l 583 1089 l 633 1089 l 715 899 l 676 899 z "},"ổ":{"ha":807,"x_min":79,"x_max":772,"o":"m 357 -8 q 210 28 272 -8 q 114 131 149 65 q 79 282 79 196 q 106 437 79 363 q 181 568 132 511 q 299 659 231 625 q 450 693 367 693 q 598 656 536 693 q 694 555 660 619 q 728 403 728 490 q 701 249 728 324 q 626 117 675 175 q 508 25 576 58 q 357 -8 440 -8 m 360 43 q 488 73 431 43 q 587 153 546 103 q 649 269 628 204 q 671 404 671 335 q 611 577 671 513 q 447 642 551 642 q 317 612 375 642 q 219 531 260 582 q 158 415 179 479 q 136 282 136 350 q 196 108 136 174 q 360 43 256 43 m 260 768 l 490 969 l 665 768 l 613 768 l 486 914 l 315 768 l 260 768 m 607 882 l 599 910 q 663 926 632 915 q 712 954 693 936 q 732 1001 731 972 q 693 1061 733 1043 q 603 1079 653 1079 l 581 1079 l 585 1114 l 604 1114 q 726 1083 681 1114 q 768 996 772 1053 q 741 935 765 957 q 681 901 717 913 q 607 882 646 889 z "},"ỗ":{"ha":807,"x_min":79,"x_max":728,"o":"m 357 -8 q 210 28 272 -8 q 114 131 149 65 q 79 282 79 196 q 106 437 79 363 q 181 568 132 511 q 299 659 231 625 q 450 693 367 693 q 598 656 536 693 q 694 555 660 619 q 728 403 728 490 q 701 249 728 324 q 626 117 675 175 q 508 25 576 58 q 357 -8 440 -8 m 360 43 q 488 73 431 43 q 587 153 546 103 q 649 269 628 204 q 671 404 671 335 q 611 577 671 513 q 447 642 551 642 q 317 612 375 642 q 219 531 260 582 q 158 415 179 479 q 136 282 136 350 q 196 108 136 174 q 360 43 256 43 m 260 768 l 490 969 l 665 768 l 613 768 l 486 914 l 314 768 l 260 768 m 589 1001 q 534 1011 554 1001 q 499 1034 514 1021 q 467 1056 483 1047 q 422 1065 450 1065 q 367 1050 388 1065 q 333 1007 346 1035 l 297 1014 q 344 1077 314 1054 q 418 1100 374 1100 q 472 1091 450 1100 q 508 1069 493 1082 q 541 1047 524 1057 q 583 1038 558 1038 q 636 1051 615 1038 q 669 1094 657 1065 l 707 1088 q 665 1026 693 1050 q 589 1001 636 1001 z "},"ö":{"ha":807,"x_min":79,"x_max":728,"o":"m 357 -8 q 210 28 272 -8 q 114 131 149 65 q 79 282 79 196 q 106 437 79 363 q 181 568 132 511 q 299 659 231 625 q 450 693 367 693 q 598 656 536 693 q 694 555 660 619 q 728 403 728 490 q 701 249 728 324 q 626 117 675 175 q 508 25 576 58 q 357 -8 440 -8 m 360 43 q 488 73 431 43 q 587 153 546 103 q 649 269 628 204 q 671 404 671 335 q 611 577 671 513 q 447 642 551 642 q 317 612 375 642 q 219 531 260 582 q 158 415 179 479 q 136 282 136 350 q 196 108 136 174 q 360 43 256 43 m 554 828 l 574 968 l 643 968 l 624 828 l 554 828 m 319 828 l 339 968 l 407 968 l 389 828 l 319 828 z "},"ọ":{"ha":807,"x_min":79,"x_max":728,"o":"m 357 -8 q 210 28 272 -8 q 114 131 149 65 q 79 282 79 196 q 106 437 79 363 q 181 568 132 511 q 299 659 231 625 q 450 693 367 693 q 598 656 536 693 q 694 555 660 619 q 728 403 728 490 q 701 249 728 324 q 626 117 675 175 q 508 25 576 58 q 357 -8 440 -8 m 360 43 q 488 73 431 43 q 587 153 546 103 q 649 269 628 204 q 671 404 671 335 q 611 577 671 513 q 447 642 551 642 q 317 612 375 642 q 219 531 260 582 q 158 415 179 479 q 136 282 136 350 q 196 108 136 174 q 360 43 256 43 m 300 -242 l 310 -107 l 382 -107 l 371 -242 l 300 -242 z "},"ò":{"ha":807,"x_min":79,"x_max":728,"o":"m 357 -8 q 210 28 272 -8 q 114 131 149 65 q 79 282 79 196 q 106 437 79 363 q 181 568 132 511 q 299 659 231 625 q 450 693 367 693 q 598 656 536 693 q 694 555 660 619 q 728 403 728 490 q 701 249 728 324 q 626 117 675 175 q 508 25 576 58 q 357 -8 440 -8 m 360 43 q 488 73 431 43 q 587 153 546 103 q 649 269 628 204 q 671 404 671 335 q 611 577 671 513 q 447 642 551 642 q 317 612 375 642 q 219 531 260 582 q 158 415 179 479 q 136 282 136 350 q 196 108 136 174 q 360 43 256 43 m 436 774 l 292 968 l 353 968 l 483 774 l 436 774 z "},"ỏ":{"ha":807,"x_min":79,"x_max":728,"o":"m 357 -8 q 210 28 272 -8 q 114 131 149 65 q 79 282 79 196 q 106 437 79 363 q 181 568 132 511 q 299 659 231 625 q 450 693 367 693 q 598 656 536 693 q 694 555 660 619 q 728 403 728 490 q 701 249 728 324 q 626 117 675 175 q 508 25 576 58 q 357 -8 440 -8 m 360 43 q 488 73 431 43 q 587 153 546 103 q 649 269 628 204 q 671 404 671 335 q 611 577 671 513 q 447 642 551 642 q 317 612 375 642 q 219 531 260 582 q 158 415 179 479 q 136 282 136 350 q 196 108 136 174 q 360 43 256 43 m 433 735 l 428 761 q 487 778 457 768 q 538 806 517 788 q 561 857 560 824 q 523 915 563 897 q 431 932 483 932 l 408 932 l 414 969 l 432 969 q 558 939 508 969 q 604 854 607 908 q 576 788 603 811 q 510 754 549 765 q 433 735 471 743 z "},"ơ":{"ha":807,"x_min":79,"x_max":896,"o":"m 357 -8 q 210 28 272 -8 q 114 131 149 65 q 79 282 79 196 q 106 437 79 363 q 181 568 132 511 q 299 659 231 625 q 450 693 367 693 q 598 656 536 693 q 694 555 660 619 q 728 403 728 490 q 701 249 728 324 q 626 117 675 175 q 508 25 576 58 q 357 -8 440 -8 m 360 43 q 488 73 431 43 q 587 153 546 103 q 649 269 628 204 q 671 404 671 335 q 611 577 671 513 q 447 642 551 642 q 317 612 375 642 q 219 531 260 582 q 158 415 179 479 q 136 282 136 350 q 196 108 136 174 q 360 43 256 43 m 683 410 l 685 450 q 796 494 758 450 q 843 617 833 538 l 853 685 l 896 685 l 885 610 q 823 463 871 515 q 683 410 775 410 z "},"ớ":{"ha":807,"x_min":79,"x_max":896,"o":"m 357 -8 q 210 28 272 -8 q 114 131 149 65 q 79 282 79 196 q 106 437 79 363 q 181 568 132 511 q 299 659 231 625 q 450 693 367 693 q 598 656 536 693 q 694 555 660 619 q 728 403 728 490 q 701 249 728 324 q 626 117 675 175 q 508 25 576 58 q 357 -8 440 -8 m 360 43 q 488 73 431 43 q 587 153 546 103 q 649 269 628 204 q 671 404 671 335 q 611 577 671 513 q 447 642 551 642 q 317 612 375 642 q 219 531 260 582 q 158 415 179 479 q 136 282 136 350 q 196 108 136 174 q 360 43 256 43 m 683 410 l 685 450 q 796 494 758 450 q 843 617 833 538 l 853 685 l 896 685 l 885 610 q 823 463 871 515 q 683 410 775 410 m 435 774 l 597 968 l 661 968 l 482 774 l 435 774 z "},"ợ":{"ha":807,"x_min":79,"x_max":896,"o":"m 357 -8 q 210 28 272 -8 q 114 131 149 65 q 79 282 79 196 q 106 437 79 363 q 181 568 132 511 q 299 659 231 625 q 450 693 367 693 q 598 656 536 693 q 694 555 660 619 q 728 403 728 490 q 701 249 728 324 q 626 117 675 175 q 508 25 576 58 q 357 -8 440 -8 m 360 43 q 488 73 431 43 q 587 153 546 103 q 649 269 628 204 q 671 404 671 335 q 611 577 671 513 q 447 642 551 642 q 317 612 375 642 q 219 531 260 582 q 158 415 179 479 q 136 282 136 350 q 196 108 136 174 q 360 43 256 43 m 683 410 l 685 450 q 796 494 758 450 q 843 617 833 538 l 853 685 l 896 685 l 885 610 q 823 463 871 515 q 683 410 775 410 m 300 -242 l 310 -107 l 382 -107 l 371 -242 l 300 -242 z "},"ờ":{"ha":807,"x_min":79,"x_max":896,"o":"m 357 -8 q 210 28 272 -8 q 114 131 149 65 q 79 282 79 196 q 106 437 79 363 q 181 568 132 511 q 299 659 231 625 q 450 693 367 693 q 598 656 536 693 q 694 555 660 619 q 728 403 728 490 q 701 249 728 324 q 626 117 675 175 q 508 25 576 58 q 357 -8 440 -8 m 360 43 q 488 73 431 43 q 587 153 546 103 q 649 269 628 204 q 671 404 671 335 q 611 577 671 513 q 447 642 551 642 q 317 612 375 642 q 219 531 260 582 q 158 415 179 479 q 136 282 136 350 q 196 108 136 174 q 360 43 256 43 m 683 410 l 685 450 q 796 494 758 450 q 843 617 833 538 l 853 685 l 896 685 l 885 610 q 823 463 871 515 q 683 410 775 410 m 436 774 l 292 968 l 353 968 l 483 774 l 436 774 z "},"ở":{"ha":807,"x_min":79,"x_max":896,"o":"m 357 -8 q 210 28 272 -8 q 114 131 149 65 q 79 282 79 196 q 106 437 79 363 q 181 568 132 511 q 299 659 231 625 q 450 693 367 693 q 598 656 536 693 q 694 555 660 619 q 728 403 728 490 q 701 249 728 324 q 626 117 675 175 q 508 25 576 58 q 357 -8 440 -8 m 360 43 q 488 73 431 43 q 587 153 546 103 q 649 269 628 204 q 671 404 671 335 q 611 577 671 513 q 447 642 551 642 q 317 612 375 642 q 219 531 260 582 q 158 415 179 479 q 136 282 136 350 q 196 108 136 174 q 360 43 256 43 m 683 410 l 685 450 q 796 494 758 450 q 843 617 833 538 l 853 685 l 896 685 l 885 610 q 823 463 871 515 q 683 410 775 410 m 433 735 l 428 761 q 487 778 457 768 q 538 806 517 788 q 561 857 560 824 q 523 915 563 897 q 431 932 483 932 l 408 932 l 414 969 l 432 969 q 558 939 508 969 q 604 854 607 908 q 576 788 603 811 q 510 754 549 765 q 433 735 471 743 z "},"ỡ":{"ha":807,"x_min":79,"x_max":896,"o":"m 357 -8 q 210 28 272 -8 q 114 131 149 65 q 79 282 79 196 q 106 437 79 363 q 181 568 132 511 q 299 659 231 625 q 450 693 367 693 q 598 656 536 693 q 694 555 660 619 q 728 403 728 490 q 701 249 728 324 q 626 117 675 175 q 508 25 576 58 q 357 -8 440 -8 m 360 43 q 488 73 431 43 q 587 153 546 103 q 649 269 628 204 q 671 404 671 335 q 611 577 671 513 q 447 642 551 642 q 317 612 375 642 q 219 531 260 582 q 158 415 179 479 q 136 282 136 350 q 196 108 136 174 q 360 43 256 43 m 683 410 l 685 450 q 796 494 758 450 q 843 617 833 538 l 853 685 l 896 685 l 885 610 q 823 463 871 515 q 683 410 775 410 m 569 803 q 502 826 522 803 q 467 876 482 850 q 438 917 453 900 q 394 935 424 935 q 330 903 357 935 q 296 817 303 872 l 260 819 q 306 934 269 893 q 396 975 342 975 q 458 952 439 975 q 492 903 478 929 q 523 859 507 876 q 569 842 539 842 q 629 877 601 842 q 664 969 657 913 l 701 967 q 653 847 690 890 q 569 803 617 803 z "},"ő":{"ha":807,"x_min":79,"x_max":769,"o":"m 357 -8 q 210 28 272 -8 q 114 131 149 65 q 79 282 79 196 q 106 437 79 363 q 181 568 132 511 q 299 659 231 625 q 450 693 367 693 q 598 656 536 693 q 694 555 660 619 q 728 403 728 490 q 701 249 728 324 q 626 117 675 175 q 508 25 576 58 q 357 -8 440 -8 m 360 43 q 488 73 431 43 q 587 153 546 103 q 649 269 628 204 q 671 404 671 335 q 611 577 671 513 q 447 642 551 642 q 317 612 375 642 q 219 531 260 582 q 158 415 179 479 q 136 282 136 350 q 196 108 136 174 q 360 43 256 43 m 550 774 l 708 968 l 769 968 l 599 774 l 550 774 m 331 774 l 488 968 l 542 968 l 378 774 l 331 774 z "},"ō":{"ha":807,"x_min":79,"x_max":728,"o":"m 357 -8 q 210 28 272 -8 q 114 131 149 65 q 79 282 79 196 q 106 437 79 363 q 181 568 132 511 q 299 659 231 625 q 450 693 367 693 q 598 656 536 693 q 694 555 660 619 q 728 403 728 490 q 701 249 728 324 q 626 117 675 175 q 508 25 576 58 q 357 -8 440 -8 m 360 43 q 488 73 431 43 q 587 153 546 103 q 649 269 628 204 q 671 404 671 335 q 611 577 671 513 q 447 642 551 642 q 317 612 375 642 q 219 531 260 582 q 158 415 179 479 q 136 282 136 350 q 196 108 136 174 q 360 43 256 43 m 294 857 l 299 894 l 664 894 l 658 857 l 294 857 z "},"ǫ":{"ha":807,"x_min":79,"x_max":728,"o":"m 357 -8 q 210 28 272 -8 q 114 131 149 65 q 79 282 79 196 q 106 437 79 363 q 181 568 132 511 q 299 659 231 625 q 450 693 367 693 q 598 656 536 693 q 694 555 660 619 q 728 403 728 490 q 701 249 728 324 q 626 117 675 175 q 508 25 576 58 q 357 -8 440 -8 m 360 43 q 488 73 431 43 q 587 153 546 103 q 649 269 628 204 q 671 404 671 335 q 611 577 671 513 q 447 642 551 642 q 317 612 375 642 q 219 531 260 582 q 158 415 179 479 q 136 282 136 350 q 196 108 136 174 q 360 43 256 43 m 364 -290 q 284 -264 317 -290 q 251 -187 251 -237 q 270 -112 251 -147 q 319 -46 289 -76 q 383 4 350 -15 l 431 0 q 378 -36 403 -15 q 333 -81 353 -57 q 302 -130 314 -104 q 290 -183 290 -156 q 312 -235 290 -218 q 361 -251 333 -251 q 405 -243 382 -251 q 447 -219 428 -235 l 471 -250 q 418 -281 446 -271 q 364 -290 390 -290 z "},"ø":{"ha":807,"x_min":79,"x_max":728,"o":"m 357 -8 q 210 28 272 -8 q 114 131 149 65 q 79 282 79 196 q 106 437 79 363 q 181 568 132 511 q 299 659 231 625 q 450 693 367 693 q 598 656 536 693 q 694 555 660 619 q 728 403 728 490 q 701 249 728 324 q 626 117 675 175 q 508 25 576 58 q 357 -8 440 -8 m 360 43 q 488 73 431 43 q 587 153 546 103 q 649 269 628 204 q 671 404 671 335 q 611 577 671 513 q 447 642 551 642 q 317 612 375 642 q 219 531 260 582 q 158 415 179 479 q 136 282 136 350 q 196 108 136 174 q 360 43 256 43 m 90 -74 l 679 757 l 714 757 l 124 -74 l 90 -74 z "},"ǿ":{"ha":807,"x_min":79,"x_max":728,"o":"m 357 -8 q 210 28 272 -8 q 114 131 149 65 q 79 282 79 196 q 106 437 79 363 q 181 568 132 511 q 299 659 231 625 q 450 693 367 693 q 598 656 536 693 q 694 555 660 619 q 728 403 728 490 q 701 249 728 324 q 626 117 675 175 q 508 25 576 58 q 357 -8 440 -8 m 360 43 q 488 73 431 43 q 587 153 546 103 q 649 269 628 204 q 671 404 671 335 q 611 577 671 513 q 447 642 551 642 q 317 612 375 642 q 219 531 260 582 q 158 415 179 479 q 136 282 136 350 q 196 108 136 174 q 360 43 256 43 m 90 -74 l 679 757 l 714 757 l 124 -74 l 90 -74 m 435 774 l 597 968 l 661 968 l 482 774 l 435 774 z "},"õ":{"ha":807,"x_min":79,"x_max":728,"o":"m 357 -8 q 210 28 272 -8 q 114 131 149 65 q 79 282 79 196 q 106 437 79 363 q 181 568 132 511 q 299 659 231 625 q 450 693 367 693 q 598 656 536 693 q 694 555 660 619 q 728 403 728 490 q 701 249 728 324 q 626 117 675 175 q 508 25 576 58 q 357 -8 440 -8 m 360 43 q 488 73 431 43 q 587 153 546 103 q 649 269 628 204 q 671 404 671 335 q 611 577 671 513 q 447 642 551 642 q 317 612 375 642 q 219 531 260 582 q 158 415 179 479 q 136 282 136 350 q 196 108 136 174 q 360 43 256 43 m 569 803 q 502 826 522 803 q 467 876 482 850 q 438 917 453 900 q 394 935 424 935 q 330 903 357 935 q 296 817 303 872 l 260 819 q 306 934 269 893 q 396 975 342 975 q 458 952 439 975 q 492 903 478 929 q 523 859 507 876 q 569 842 539 842 q 629 877 601 842 q 664 969 657 913 l 701 967 q 653 847 690 890 q 569 803 617 803 z "},"œ":{"ha":1339,"x_min":79,"x_max":1264,"o":"m 931 -8 q 788 26 846 -8 q 699 124 729 61 q 668 269 668 188 q 691 422 668 347 q 758 558 714 497 q 867 656 803 619 q 1013 693 932 693 q 1160 656 1106 693 q 1240 560 1215 618 q 1264 439 1264 501 q 1260 380 1264 411 q 1250 329 1256 349 l 729 329 q 726 299 726 314 q 726 269 726 283 q 781 103 726 163 q 933 44 835 44 q 1053 65 1001 44 q 1164 139 1106 86 l 1201 100 q 1075 17 1136 42 q 931 -8 1014 -8 m 1203 363 q 1208 404 1206 383 q 1211 447 1211 425 q 1192 540 1211 494 q 1131 614 1174 585 q 1013 643 1088 643 q 886 608 943 643 q 790 512 829 572 q 735 374 751 451 l 1221 374 l 1203 363 m 357 -8 q 210 28 272 -8 q 114 131 149 65 q 79 282 79 196 q 106 437 79 363 q 181 568 132 511 q 299 659 231 625 q 450 693 367 693 q 598 656 536 693 q 694 555 660 619 q 728 403 728 490 q 701 249 728 324 q 626 117 675 175 q 508 25 576 58 q 357 -8 440 -8 m 360 43 q 488 73 431 43 q 587 153 546 103 q 649 269 628 204 q 671 404 671 335 q 611 577 671 513 q 447 642 551 642 q 317 612 375 642 q 219 531 260 582 q 158 415 179 479 q 136 282 136 350 q 196 108 136 174 q 360 43 256 43 z "},"p":{"ha":833,"x_min":29,"x_max":754,"o":"m 29 -283 l 165 685 l 222 685 l 192 460 l 175 472 q 249 590 203 540 q 355 666 294 639 q 483 693 415 693 q 626 656 565 693 q 720 551 686 618 q 754 399 754 485 q 727 247 754 319 q 651 116 700 174 q 535 25 601 58 q 392 -8 469 -8 q 267 19 321 -8 q 181 97 214 47 q 140 211 149 147 l 156 225 l 86 -283 l 29 -283 m 385 44 q 510 74 453 44 q 609 154 567 104 q 674 267 651 204 q 696 396 696 331 q 669 522 696 467 q 591 608 642 576 q 474 639 540 639 q 349 610 406 639 q 252 530 293 581 q 188 416 211 479 q 165 285 165 353 q 193 160 165 214 q 269 75 221 106 q 385 44 318 44 z "},"þ":{"ha":881,"x_min":72,"x_max":778,"o":"m 72 -283 l 247 968 l 306 968 l 235 461 l 225 474 q 301 590 253 542 q 409 666 349 639 q 535 693 469 693 q 668 657 614 693 q 750 557 722 621 q 778 410 778 493 q 755 259 778 333 q 689 124 732 185 q 583 28 646 64 q 442 -8 521 -8 q 321 19 375 -8 q 232 97 267 47 q 189 211 197 147 l 200 225 l 131 -283 l 72 -283 m 431 43 q 556 75 501 43 q 647 160 610 107 q 702 279 683 214 q 721 411 721 344 q 669 578 721 514 q 519 642 618 642 q 394 612 451 642 q 295 530 336 582 q 231 414 254 478 q 208 283 208 350 q 235 159 208 214 q 313 74 263 104 q 431 43 363 43 z "},"q":{"ha":833,"x_min":79,"x_max":765,"o":"m 571 -283 l 642 225 l 656 208 q 585 96 631 144 q 478 19 539 47 q 349 -8 418 -8 q 210 28 271 -8 q 114 131 149 65 q 79 283 79 197 q 106 434 79 361 q 181 565 132 507 q 296 658 229 624 q 442 693 363 693 q 566 665 513 693 q 652 588 619 638 q 693 471 685 538 l 676 460 l 707 685 l 765 685 l 629 -283 l 571 -283 m 358 44 q 483 74 426 44 q 581 154 539 104 q 644 267 622 204 q 667 397 667 331 q 640 523 667 468 q 563 608 613 578 q 449 639 514 639 q 324 610 381 639 q 225 530 267 581 q 160 417 183 479 q 136 288 136 354 q 164 162 136 217 q 242 76 192 107 q 358 44 292 44 z "},"r":{"ha":536,"x_min":65,"x_max":542,"o":"m 65 0 l 163 685 l 221 685 l 196 504 l 181 506 q 249 612 204 571 q 345 673 293 653 q 443 693 397 693 q 493 688 468 693 q 542 669 518 682 l 507 619 q 470 631 492 626 q 429 636 449 636 q 301 599 354 636 q 217 505 249 563 q 178 386 186 447 l 124 0 l 65 0 z "},"ŕ":{"ha":536,"x_min":65,"x_max":542,"o":"m 65 0 l 163 685 l 221 685 l 196 504 l 181 506 q 249 612 204 571 q 345 673 293 653 q 443 693 397 693 q 493 688 468 693 q 542 669 518 682 l 507 619 q 470 631 492 626 q 429 636 449 636 q 301 599 354 636 q 217 505 249 563 q 178 386 186 447 l 124 0 l 65 0 m 283 774 l 446 968 l 510 968 l 331 774 l 283 774 z "},"ř":{"ha":536,"x_min":65,"x_max":542,"o":"m 65 0 l 163 685 l 221 685 l 196 504 l 181 506 q 249 612 204 571 q 345 673 293 653 q 443 693 397 693 q 493 688 468 693 q 542 669 518 682 l 507 619 q 470 631 492 626 q 429 636 449 636 q 301 599 354 636 q 217 505 249 563 q 178 386 186 447 l 124 0 l 65 0 m 313 764 l 143 968 l 190 968 l 318 817 l 489 968 l 539 968 l 313 764 z "},"ŗ":{"ha":536,"x_min":33,"x_max":542,"o":"m 65 0 l 163 685 l 221 685 l 196 504 l 181 506 q 249 612 204 571 q 345 673 293 653 q 443 693 397 693 q 493 688 468 693 q 542 669 518 682 l 507 619 q 470 631 492 626 q 429 636 449 636 q 301 599 354 636 q 217 505 249 563 q 178 386 186 447 l 124 0 l 65 0 m 32 -303 l 171 -79 l 235 -79 l 75 -303 l 32 -303 z "},"s":{"ha":653,"x_min":33,"x_max":575,"o":"m 286 -8 q 167 13 219 -8 q 81 69 115 33 q 33 153 47 106 l 78 183 q 149 81 94 119 q 288 42 204 42 q 390 61 344 42 q 464 117 436 81 q 492 206 492 154 q 467 274 492 250 q 401 313 442 299 q 310 340 360 328 q 238 363 272 350 q 178 392 204 375 q 136 434 151 408 q 121 497 121 460 q 152 599 121 554 q 238 668 183 643 q 361 693 292 693 q 494 659 438 693 q 575 558 551 625 l 533 533 q 467 619 513 593 q 360 646 421 646 q 228 606 282 646 q 175 503 175 565 q 217 431 175 453 q 328 390 258 408 q 433 360 382 378 q 517 310 483 343 q 550 215 550 276 q 517 97 550 147 q 424 19 483 47 q 286 -8 364 -8 z "},"ś":{"ha":653,"x_min":33,"x_max":576,"o":"m 286 -8 q 167 13 219 -8 q 81 69 115 33 q 33 153 47 106 l 78 183 q 149 81 94 119 q 288 42 204 42 q 390 61 344 42 q 464 117 436 81 q 492 206 492 154 q 467 274 492 250 q 401 313 442 299 q 310 340 360 328 q 238 363 272 350 q 178 392 204 375 q 136 434 151 408 q 121 497 121 460 q 152 599 121 554 q 238 668 183 643 q 361 693 292 693 q 494 659 438 693 q 575 558 551 625 l 533 533 q 467 619 513 593 q 360 646 421 646 q 228 606 282 646 q 175 503 175 565 q 217 431 175 453 q 328 390 258 408 q 433 360 382 378 q 517 310 483 343 q 550 215 550 276 q 517 97 550 147 q 424 19 483 47 q 286 -8 364 -8 m 350 774 l 513 968 l 576 968 l 397 774 l 350 774 z "},"š":{"ha":653,"x_min":33,"x_max":606,"o":"m 286 -8 q 167 13 219 -8 q 81 69 115 33 q 33 153 47 106 l 78 183 q 149 81 94 119 q 288 42 204 42 q 390 61 344 42 q 464 117 436 81 q 492 206 492 154 q 467 274 492 250 q 401 313 442 299 q 310 340 360 328 q 238 363 272 350 q 178 392 204 375 q 136 434 151 408 q 121 497 121 460 q 152 599 121 554 q 238 668 183 643 q 361 693 292 693 q 494 659 438 693 q 575 558 551 625 l 533 533 q 467 619 513 593 q 360 646 421 646 q 228 606 282 646 q 175 503 175 565 q 217 431 175 453 q 328 390 258 408 q 433 360 382 378 q 517 310 483 343 q 550 215 550 276 q 517 97 550 147 q 424 19 483 47 q 286 -8 364 -8 m 379 764 l 210 968 l 257 968 l 385 817 l 556 968 l 606 968 l 379 764 z "},"ş":{"ha":653,"x_min":33,"x_max":575,"o":"m 286 -8 q 167 13 219 -8 q 81 69 115 33 q 33 153 47 106 l 78 183 q 149 81 94 119 q 288 42 204 42 q 390 61 344 42 q 464 117 436 81 q 492 206 492 154 q 467 274 492 250 q 401 313 442 299 q 310 340 360 328 q 238 363 272 350 q 178 392 204 375 q 136 434 151 408 q 121 497 121 460 q 152 599 121 554 q 238 668 183 643 q 361 693 292 693 q 494 659 438 693 q 575 558 551 625 l 533 533 q 467 619 513 593 q 360 646 421 646 q 228 606 282 646 q 175 503 175 565 q 217 431 175 453 q 328 390 258 408 q 433 360 382 378 q 517 310 483 343 q 550 215 550 276 q 517 97 550 147 q 424 19 483 47 q 286 -8 364 -8 m 240 -353 q 167 -333 203 -353 q 114 -276 132 -312 l 140 -250 q 181 -297 153 -279 q 240 -315 210 -315 q 313 -292 288 -315 q 339 -226 339 -269 q 322 -176 339 -196 q 280 -147 306 -157 q 227 -134 254 -137 q 179 -129 200 -131 l 254 7 l 294 7 l 232 -101 q 303 -121 271 -108 q 357 -158 336 -133 q 378 -225 378 -183 q 340 -318 378 -283 q 240 -353 303 -353 z "},"ŝ":{"ha":653,"x_min":33,"x_max":578,"o":"m 286 -8 q 167 13 219 -8 q 81 69 115 33 q 33 153 47 106 l 78 183 q 149 81 94 119 q 288 42 204 42 q 390 61 344 42 q 464 117 436 81 q 492 206 492 154 q 467 274 492 250 q 401 313 442 299 q 310 340 360 328 q 238 363 272 350 q 178 392 204 375 q 136 434 151 408 q 121 497 121 460 q 152 599 121 554 q 238 668 183 643 q 361 693 292 693 q 494 659 438 693 q 575 558 551 625 l 533 533 q 467 619 513 593 q 360 646 421 646 q 228 606 282 646 q 175 503 175 565 q 217 431 175 453 q 328 390 258 408 q 433 360 382 378 q 517 310 483 343 q 550 215 550 276 q 517 97 550 147 q 424 19 483 47 q 286 -8 364 -8 m 179 768 l 407 975 l 576 768 l 528 768 l 401 921 l 231 768 l 179 768 z "},"ș":{"ha":653,"x_min":33,"x_max":575,"o":"m 286 -8 q 167 13 219 -8 q 81 69 115 33 q 33 153 47 106 l 78 183 q 149 81 94 119 q 288 42 204 42 q 390 61 344 42 q 464 117 436 81 q 492 206 492 154 q 467 274 492 250 q 401 313 442 299 q 310 340 360 328 q 238 363 272 350 q 178 392 204 375 q 136 434 151 408 q 121 497 121 460 q 152 599 121 554 q 238 668 183 643 q 361 693 292 693 q 494 659 438 693 q 575 558 551 625 l 533 533 q 467 619 513 593 q 360 646 421 646 q 228 606 282 646 q 175 503 175 565 q 217 431 175 453 q 328 390 258 408 q 433 360 382 378 q 517 310 483 343 q 550 215 550 276 q 517 97 550 147 q 424 19 483 47 q 286 -8 364 -8 m 99 -303 l 238 -79 l 301 -79 l 142 -303 l 99 -303 z "},"ß":{"ha":857,"x_min":67,"x_max":771,"o":"m 510 -8 q 391 15 444 -8 q 303 77 338 38 q 260 167 269 117 l 310 185 q 345 111 318 144 q 414 60 372 78 q 511 42 456 42 q 657 87 600 42 q 714 208 714 132 q 690 276 714 251 q 624 314 665 300 q 535 339 583 328 q 441 367 488 351 q 365 415 394 383 q 336 501 336 446 q 389 629 336 586 q 540 697 442 672 q 611 719 578 707 q 665 753 644 732 q 685 807 685 774 q 633 891 685 860 q 510 922 582 922 q 367 898 422 922 q 283 835 313 874 q 240 750 253 796 q 221 663 226 704 l 126 0 l 67 0 l 161 667 q 189 781 169 725 q 246 880 208 836 q 347 950 283 924 q 507 976 411 976 q 676 933 610 976 q 742 815 742 889 q 728 749 742 775 q 691 703 715 722 q 634 673 667 685 q 564 650 601 661 q 474 619 513 638 q 414 574 435 601 q 393 503 393 546 q 415 441 393 463 q 476 408 438 419 q 557 386 514 397 q 635 365 597 376 q 704 335 674 354 q 753 285 735 315 q 771 210 771 256 q 735 92 771 140 q 641 17 700 43 q 510 -8 582 -8 z "},"t":{"ha":449,"x_min":56,"x_max":449,"o":"m 268 -8 q 200 5 228 -8 q 158 44 172 18 q 144 110 144 71 q 145 128 144 118 q 147 147 146 138 l 251 894 l 314 931 l 206 157 q 203 140 204 150 q 203 121 203 129 q 222 61 203 82 q 283 40 240 40 q 319 43 300 40 q 361 56 338 46 l 353 6 q 309 -5 331 -1 q 268 -8 288 -8 m 56 639 l 63 685 l 449 685 l 442 639 l 56 639 z "},"ŧ":{"ha":511,"x_min":42,"x_max":481,"o":"m 292 -8 q 229 5 256 -8 q 189 44 203 18 q 175 110 175 71 q 176 128 175 118 q 178 147 176 138 l 283 894 l 346 931 l 238 157 q 235 139 236 149 q 235 121 235 129 q 252 61 235 82 q 307 40 269 40 q 347 44 326 40 q 390 54 367 47 l 386 7 q 337 -4 361 0 q 292 -8 313 -8 m 42 322 l 49 364 l 436 364 l 429 322 l 42 322 m 86 639 l 93 685 l 481 685 l 474 639 l 86 639 z "},"ť":{"ha":525,"x_min":56,"x_max":574,"o":"m 268 -8 q 200 5 228 -8 q 158 44 172 18 q 144 110 144 71 q 145 128 144 118 q 147 147 146 138 l 251 894 l 314 931 l 206 157 q 203 140 204 150 q 203 121 203 129 q 222 61 203 82 q 283 40 240 40 q 319 43 300 40 q 361 56 338 46 l 353 6 q 309 -5 331 -1 q 268 -8 288 -8 m 56 639 l 63 685 l 449 685 l 442 639 l 56 639 m 410 756 l 511 1033 l 574 1033 l 447 756 l 410 756 z "},"ţ":{"ha":488,"x_min":56,"x_max":449,"o":"m 268 -8 q 200 5 228 -8 q 158 44 172 18 q 144 110 144 71 q 145 128 144 118 q 147 147 146 138 l 251 894 l 314 931 l 206 157 q 203 140 204 150 q 203 121 203 129 q 222 61 203 82 q 283 40 240 40 q 319 43 300 40 q 361 56 338 46 l 353 6 q 309 -5 331 -1 q 268 -8 288 -8 m 56 639 l 63 685 l 449 685 l 442 639 l 56 639 m 215 -353 q 142 -333 178 -353 q 89 -276 107 -312 l 115 -250 q 156 -297 128 -279 q 215 -315 185 -315 q 288 -292 263 -315 q 314 -226 314 -269 q 297 -176 314 -196 q 255 -147 281 -157 q 202 -134 229 -137 q 154 -129 175 -131 l 229 7 l 269 7 l 207 -101 q 278 -121 246 -108 q 332 -158 311 -133 q 353 -225 353 -183 q 315 -318 353 -283 q 215 -353 278 -353 z "},"ț":{"ha":488,"x_min":56,"x_max":449,"o":"m 268 -8 q 200 5 228 -8 q 158 44 172 18 q 144 110 144 71 q 145 128 144 118 q 147 147 146 138 l 251 894 l 314 931 l 206 157 q 203 140 204 150 q 203 121 203 129 q 222 61 203 82 q 283 40 240 40 q 319 43 300 40 q 361 56 338 46 l 353 6 q 309 -5 331 -1 q 268 -8 288 -8 m 56 639 l 63 685 l 449 685 l 442 639 l 56 639 m 74 -303 l 213 -79 l 276 -79 l 117 -303 l 74 -303 z "},"u":{"ha":732,"x_min":90,"x_max":664,"o":"m 292 -8 q 143 42 196 -8 q 90 197 90 93 q 92 229 90 213 q 96 267 93 246 l 154 685 l 213 685 l 156 283 q 151 245 153 264 q 150 214 150 226 q 189 84 150 125 q 303 43 228 43 q 422 74 371 43 q 508 168 474 104 q 557 332 542 232 l 607 685 l 664 685 l 567 0 l 510 0 l 535 172 l 547 171 q 441 34 508 76 q 292 -8 374 -8 z "},"ú":{"ha":732,"x_min":90,"x_max":664,"o":"m 292 -8 q 143 42 196 -8 q 90 197 90 93 q 92 229 90 213 q 96 267 93 246 l 154 685 l 213 685 l 156 283 q 151 245 153 264 q 150 214 150 226 q 189 84 150 125 q 303 43 228 43 q 422 74 371 43 q 508 168 474 104 q 557 332 542 232 l 607 685 l 664 685 l 567 0 l 510 0 l 535 172 l 547 171 q 441 34 508 76 q 292 -8 374 -8 m 392 774 l 554 968 l 618 968 l 439 774 l 392 774 z "},"ŭ":{"ha":732,"x_min":90,"x_max":664,"o":"m 292 -8 q 143 42 196 -8 q 90 197 90 93 q 92 229 90 213 q 96 267 93 246 l 154 685 l 213 685 l 156 283 q 151 245 153 264 q 150 214 150 226 q 189 84 150 125 q 303 43 228 43 q 422 74 371 43 q 508 168 474 104 q 557 332 542 232 l 607 685 l 664 685 l 567 0 l 510 0 l 535 172 l 547 171 q 441 34 508 76 q 292 -8 374 -8 m 424 782 q 282 820 333 782 q 229 933 231 858 q 230 948 229 939 q 232 968 231 957 l 268 968 q 267 951 267 958 q 267 938 267 944 q 308 851 268 881 q 424 821 347 821 q 552 860 506 821 q 607 968 599 899 l 644 968 q 576 828 633 875 q 424 782 518 782 z "},"ǔ":{"ha":732,"x_min":90,"x_max":664,"o":"m 292 -8 q 143 42 196 -8 q 90 197 90 93 q 92 229 90 213 q 96 267 93 246 l 154 685 l 213 685 l 156 283 q 151 245 153 264 q 150 214 150 226 q 189 84 150 125 q 303 43 228 43 q 422 74 371 43 q 508 168 474 104 q 557 332 542 232 l 607 685 l 664 685 l 567 0 l 510 0 l 535 172 l 547 171 q 441 34 508 76 q 292 -8 374 -8 m 421 764 l 251 968 l 299 968 l 426 817 l 597 968 l 647 968 l 421 764 z "},"û":{"ha":732,"x_min":90,"x_max":664,"o":"m 292 -8 q 143 42 196 -8 q 90 197 90 93 q 92 229 90 213 q 96 267 93 246 l 154 685 l 213 685 l 156 283 q 151 245 153 264 q 150 214 150 226 q 189 84 150 125 q 303 43 228 43 q 422 74 371 43 q 508 168 474 104 q 557 332 542 232 l 607 685 l 664 685 l 567 0 l 510 0 l 535 172 l 547 171 q 441 34 508 76 q 292 -8 374 -8 m 221 768 l 449 975 l 618 768 l 569 768 l 443 921 l 272 768 l 221 768 z "},"ü":{"ha":732,"x_min":90,"x_max":664,"o":"m 292 -8 q 143 42 196 -8 q 90 197 90 93 q 92 229 90 213 q 96 267 93 246 l 154 685 l 213 685 l 156 283 q 151 245 153 264 q 150 214 150 226 q 189 84 150 125 q 303 43 228 43 q 422 74 371 43 q 508 168 474 104 q 557 332 542 232 l 607 685 l 664 685 l 567 0 l 510 0 l 535 172 l 547 171 q 441 34 508 76 q 292 -8 374 -8 m 511 828 l 531 968 l 600 968 l 581 828 l 511 828 m 276 828 l 296 968 l 364 968 l 346 828 l 276 828 z "},"ụ":{"ha":732,"x_min":90,"x_max":664,"o":"m 292 -8 q 143 42 196 -8 q 90 197 90 93 q 92 229 90 213 q 96 267 93 246 l 154 685 l 213 685 l 156 283 q 151 245 153 264 q 150 214 150 226 q 189 84 150 125 q 303 43 228 43 q 422 74 371 43 q 508 168 474 104 q 557 332 542 232 l 607 685 l 664 685 l 567 0 l 510 0 l 535 172 l 547 171 q 441 34 508 76 q 292 -8 374 -8 m 265 -242 l 275 -107 l 347 -107 l 336 -242 l 265 -242 z "},"ù":{"ha":732,"x_min":90,"x_max":664,"o":"m 292 -8 q 143 42 196 -8 q 90 197 90 93 q 92 229 90 213 q 96 267 93 246 l 154 685 l 213 685 l 156 283 q 151 245 153 264 q 150 214 150 226 q 189 84 150 125 q 303 43 228 43 q 422 74 371 43 q 508 168 474 104 q 557 332 542 232 l 607 685 l 664 685 l 567 0 l 510 0 l 535 172 l 547 171 q 441 34 508 76 q 292 -8 374 -8 m 393 774 l 249 968 l 310 968 l 440 774 l 393 774 z "},"ủ":{"ha":732,"x_min":90,"x_max":664,"o":"m 292 -8 q 143 42 196 -8 q 90 197 90 93 q 92 229 90 213 q 96 267 93 246 l 154 685 l 213 685 l 156 283 q 151 245 153 264 q 150 214 150 226 q 189 84 150 125 q 303 43 228 43 q 422 74 371 43 q 508 168 474 104 q 557 332 542 232 l 607 685 l 664 685 l 567 0 l 510 0 l 535 172 l 547 171 q 441 34 508 76 q 292 -8 374 -8 m 390 735 l 385 761 q 444 778 414 768 q 495 806 474 788 q 518 857 517 824 q 480 915 519 897 q 388 932 440 932 l 365 932 l 371 969 l 389 969 q 515 939 465 969 q 561 854 564 908 q 533 788 560 811 q 467 754 506 765 q 390 735 428 743 z "},"ư":{"ha":732,"x_min":90,"x_max":821,"o":"m 292 -8 q 143 42 196 -8 q 90 197 90 93 q 92 229 90 213 q 96 267 93 246 l 154 685 l 213 685 l 156 283 q 151 245 153 264 q 150 214 150 226 q 189 84 150 125 q 303 43 228 43 q 422 74 371 43 q 508 168 474 104 q 557 332 542 232 l 607 685 l 664 685 l 567 0 l 510 0 l 535 172 l 547 171 q 441 34 508 76 q 292 -8 374 -8 m 608 410 l 610 450 q 721 494 683 450 q 768 617 758 538 l 778 685 l 821 685 l 810 610 q 748 463 796 515 q 608 410 700 410 z "},"ứ":{"ha":732,"x_min":90,"x_max":821,"o":"m 292 -8 q 143 42 196 -8 q 90 197 90 93 q 92 229 90 213 q 96 267 93 246 l 154 685 l 213 685 l 156 283 q 151 245 153 264 q 150 214 150 226 q 189 84 150 125 q 303 43 228 43 q 422 74 371 43 q 508 168 474 104 q 557 332 542 232 l 607 685 l 664 685 l 567 0 l 510 0 l 535 172 l 547 171 q 441 34 508 76 q 292 -8 374 -8 m 608 410 l 610 450 q 721 494 683 450 q 768 617 758 538 l 778 685 l 821 685 l 810 610 q 748 463 796 515 q 608 410 700 410 m 392 774 l 554 968 l 618 968 l 439 774 l 392 774 z "},"ự":{"ha":732,"x_min":90,"x_max":821,"o":"m 292 -8 q 143 42 196 -8 q 90 197 90 93 q 92 229 90 213 q 96 267 93 246 l 154 685 l 213 685 l 156 283 q 151 245 153 264 q 150 214 150 226 q 189 84 150 125 q 303 43 228 43 q 422 74 371 43 q 508 168 474 104 q 557 332 542 232 l 607 685 l 664 685 l 567 0 l 510 0 l 535 172 l 547 171 q 441 34 508 76 q 292 -8 374 -8 m 608 410 l 610 450 q 721 494 683 450 q 768 617 758 538 l 778 685 l 821 685 l 810 610 q 748 463 796 515 q 608 410 700 410 m 265 -242 l 275 -107 l 347 -107 l 336 -242 l 265 -242 z "},"ừ":{"ha":732,"x_min":90,"x_max":821,"o":"m 292 -8 q 143 42 196 -8 q 90 197 90 93 q 92 229 90 213 q 96 267 93 246 l 154 685 l 213 685 l 156 283 q 151 245 153 264 q 150 214 150 226 q 189 84 150 125 q 303 43 228 43 q 422 74 371 43 q 508 168 474 104 q 557 332 542 232 l 607 685 l 664 685 l 567 0 l 510 0 l 535 172 l 547 171 q 441 34 508 76 q 292 -8 374 -8 m 608 410 l 610 450 q 721 494 683 450 q 768 617 758 538 l 778 685 l 821 685 l 810 610 q 748 463 796 515 q 608 410 700 410 m 393 774 l 249 968 l 310 968 l 440 774 l 393 774 z "},"ử":{"ha":732,"x_min":90,"x_max":821,"o":"m 292 -8 q 143 42 196 -8 q 90 197 90 93 q 92 229 90 213 q 96 267 93 246 l 154 685 l 213 685 l 156 283 q 151 245 153 264 q 150 214 150 226 q 189 84 150 125 q 303 43 228 43 q 422 74 371 43 q 508 168 474 104 q 557 332 542 232 l 607 685 l 664 685 l 567 0 l 510 0 l 535 172 l 547 171 q 441 34 508 76 q 292 -8 374 -8 m 608 410 l 610 450 q 721 494 683 450 q 768 617 758 538 l 778 685 l 821 685 l 810 610 q 748 463 796 515 q 608 410 700 410 m 390 735 l 385 761 q 444 778 414 768 q 495 806 474 788 q 518 857 517 824 q 480 915 519 897 q 388 932 440 932 l 365 932 l 371 969 l 389 969 q 515 939 465 969 q 561 854 564 908 q 533 788 560 811 q 467 754 506 765 q 390 735 428 743 z "},"ữ":{"ha":732,"x_min":90,"x_max":821,"o":"m 292 -8 q 143 42 196 -8 q 90 197 90 93 q 92 229 90 213 q 96 267 93 246 l 154 685 l 213 685 l 156 283 q 151 245 153 264 q 150 214 150 226 q 189 84 150 125 q 303 43 228 43 q 422 74 371 43 q 508 168 474 104 q 557 332 542 232 l 607 685 l 664 685 l 567 0 l 510 0 l 535 172 l 547 171 q 441 34 508 76 q 292 -8 374 -8 m 608 410 l 610 450 q 721 494 683 450 q 768 617 758 538 l 778 685 l 821 685 l 810 610 q 748 463 796 515 q 608 410 700 410 m 526 803 q 459 826 479 803 q 424 876 439 850 q 395 917 410 900 q 351 935 381 935 q 287 903 314 935 q 253 817 260 872 l 217 819 q 263 934 226 893 q 353 975 299 975 q 415 952 396 975 q 449 903 435 929 q 480 859 464 876 q 526 842 496 842 q 586 877 558 842 q 621 969 614 913 l 658 967 q 610 847 647 890 q 526 803 574 803 z "},"ű":{"ha":732,"x_min":90,"x_max":726,"o":"m 292 -8 q 143 42 196 -8 q 90 197 90 93 q 92 229 90 213 q 96 267 93 246 l 154 685 l 213 685 l 156 283 q 151 245 153 264 q 150 214 150 226 q 189 84 150 125 q 303 43 228 43 q 422 74 371 43 q 508 168 474 104 q 557 332 542 232 l 607 685 l 664 685 l 567 0 l 510 0 l 535 172 l 547 171 q 441 34 508 76 q 292 -8 374 -8 m 507 774 l 665 968 l 726 968 l 556 774 l 507 774 m 288 774 l 444 968 l 499 968 l 335 774 l 288 774 z "},"ū":{"ha":732,"x_min":90,"x_max":664,"o":"m 292 -8 q 143 42 196 -8 q 90 197 90 93 q 92 229 90 213 q 96 267 93 246 l 154 685 l 213 685 l 156 283 q 151 245 153 264 q 150 214 150 226 q 189 84 150 125 q 303 43 228 43 q 422 74 371 43 q 508 168 474 104 q 557 332 542 232 l 607 685 l 664 685 l 567 0 l 510 0 l 535 172 l 547 171 q 441 34 508 76 q 292 -8 374 -8 m 251 857 l 256 894 l 621 894 l 615 857 l 251 857 z "},"ų":{"ha":732,"x_min":90,"x_max":664,"o":"m 292 -8 q 143 42 196 -8 q 90 197 90 93 q 92 229 90 213 q 96 267 93 246 l 154 685 l 213 685 l 156 283 q 151 245 153 264 q 150 214 150 226 q 189 84 150 125 q 303 43 228 43 q 422 74 371 43 q 508 168 474 104 q 557 332 542 232 l 607 685 l 664 685 l 567 0 l 510 0 l 535 172 l 547 171 q 441 34 508 76 q 292 -8 374 -8 m 500 -290 q 420 -264 453 -290 q 388 -187 388 -237 q 406 -112 388 -147 q 456 -46 425 -76 q 519 4 486 -15 l 567 0 q 514 -36 539 -15 q 469 -81 489 -57 q 438 -130 450 -104 q 426 -183 426 -156 q 448 -235 426 -218 q 497 -251 469 -251 q 541 -243 518 -251 q 583 -219 564 -235 l 607 -250 q 554 -281 582 -271 q 500 -290 526 -290 z "},"ů":{"ha":732,"x_min":90,"x_max":664,"o":"m 292 -8 q 143 42 196 -8 q 90 197 90 93 q 92 229 90 213 q 96 267 93 246 l 154 685 l 213 685 l 156 283 q 151 245 153 264 q 150 214 150 226 q 189 84 150 125 q 303 43 228 43 q 422 74 371 43 q 508 168 474 104 q 557 332 542 232 l 607 685 l 664 685 l 567 0 l 510 0 l 535 172 l 547 171 q 441 34 508 76 q 292 -8 374 -8 m 421 758 q 342 790 374 758 q 311 865 311 821 q 331 933 311 903 q 381 983 350 964 q 449 1001 413 1001 q 526 971 494 1001 q 557 893 557 940 q 538 826 557 857 q 489 777 519 796 q 421 758 458 758 m 425 794 q 492 823 463 794 q 521 890 521 851 q 499 944 521 924 q 447 965 478 965 q 378 937 408 965 q 349 868 349 908 q 369 816 349 838 q 425 794 390 794 z "},"ũ":{"ha":732,"x_min":90,"x_max":664,"o":"m 292 -8 q 143 42 196 -8 q 90 197 90 93 q 92 229 90 213 q 96 267 93 246 l 154 685 l 213 685 l 156 283 q 151 245 153 264 q 150 214 150 226 q 189 84 150 125 q 303 43 228 43 q 422 74 371 43 q 508 168 474 104 q 557 332 542 232 l 607 685 l 664 685 l 567 0 l 510 0 l 535 172 l 547 171 q 441 34 508 76 q 292 -8 374 -8 m 526 803 q 459 826 479 803 q 424 876 439 850 q 395 917 410 900 q 351 935 381 935 q 287 903 314 935 q 253 817 260 872 l 217 819 q 263 934 226 893 q 353 975 299 975 q 415 952 396 975 q 449 903 435 929 q 480 859 464 876 q 526 842 496 842 q 586 877 558 842 q 621 969 614 913 l 658 967 q 610 847 647 890 q 526 803 574 803 z "},"v":{"ha":710,"x_min":96,"x_max":710,"o":"m 281 0 l 96 685 l 160 685 l 314 72 l 644 685 l 710 685 l 332 0 l 281 0 z "},"w":{"ha":1035,"x_min":104,"x_max":1028,"o":"m 201 0 l 104 685 l 165 685 l 246 85 l 538 685 l 594 685 l 717 86 l 965 685 l 1028 685 l 738 0 l 681 0 l 558 608 l 263 0 l 201 0 z "},"ẃ":{"ha":1035,"x_min":104,"x_max":1028,"o":"m 201 0 l 104 685 l 165 685 l 246 85 l 538 685 l 594 685 l 717 86 l 965 685 l 1028 685 l 738 0 l 681 0 l 558 608 l 263 0 l 201 0 m 549 774 l 711 968 l 775 968 l 596 774 l 549 774 z "},"ŵ":{"ha":1035,"x_min":104,"x_max":1028,"o":"m 201 0 l 104 685 l 165 685 l 246 85 l 538 685 l 594 685 l 717 86 l 965 685 l 1028 685 l 738 0 l 681 0 l 558 608 l 263 0 l 201 0 m 378 768 l 606 975 l 775 768 l 726 768 l 600 921 l 429 768 l 378 768 z "},"ẅ":{"ha":1035,"x_min":104,"x_max":1028,"o":"m 201 0 l 104 685 l 165 685 l 246 85 l 538 685 l 594 685 l 717 86 l 965 685 l 1028 685 l 738 0 l 681 0 l 558 608 l 263 0 l 201 0 m 669 828 l 689 968 l 758 968 l 739 828 l 669 828 m 435 828 l 454 968 l 522 968 l 504 828 l 435 828 z "},"ẁ":{"ha":1035,"x_min":104,"x_max":1028,"o":"m 201 0 l 104 685 l 165 685 l 246 85 l 538 685 l 594 685 l 717 86 l 965 685 l 1028 685 l 738 0 l 681 0 l 558 608 l 263 0 l 201 0 m 550 774 l 406 968 l 467 968 l 597 774 l 550 774 z "},"x":{"ha":697,"x_min":3,"x_max":693,"o":"m 3 0 l 311 343 l 101 685 l 169 685 l 351 385 l 621 685 l 693 685 l 386 343 l 597 0 l 528 0 l 344 301 l 76 0 l 3 0 z "},"y":{"ha":710,"x_min":96,"x_max":710,"o":"m 114 -282 l 276 13 l 96 685 l 158 685 l 314 72 l 646 685 l 710 685 l 178 -282 l 114 -282 z "},"ý":{"ha":710,"x_min":96,"x_max":710,"o":"m 114 -282 l 276 13 l 96 685 l 158 685 l 314 72 l 646 685 l 710 685 l 178 -282 l 114 -282 m 386 774 l 549 968 l 613 968 l 433 774 l 386 774 z "},"ŷ":{"ha":710,"x_min":96,"x_max":710,"o":"m 114 -282 l 276 13 l 96 685 l 158 685 l 314 72 l 646 685 l 710 685 l 178 -282 l 114 -282 m 215 768 l 443 975 l 613 768 l 564 768 l 438 921 l 267 768 l 215 768 z "},"ÿ":{"ha":710,"x_min":96,"x_max":710,"o":"m 114 -282 l 276 13 l 96 685 l 158 685 l 314 72 l 646 685 l 710 685 l 178 -282 l 114 -282 m 506 828 l 525 968 l 594 968 l 575 828 l 506 828 m 271 828 l 290 968 l 358 968 l 340 828 l 271 828 z "},"ỵ":{"ha":710,"x_min":96,"x_max":710,"o":"m 114 -282 l 276 13 l 96 685 l 158 685 l 314 72 l 646 685 l 710 685 l 178 -282 l 114 -282 m 458 -283 l 468 -149 l 540 -149 l 529 -283 l 458 -283 z "},"ỳ":{"ha":710,"x_min":96,"x_max":710,"o":"m 114 -282 l 276 13 l 96 685 l 158 685 l 314 72 l 646 685 l 710 685 l 178 -282 l 114 -282 m 388 774 l 243 968 l 304 968 l 435 774 l 388 774 z "},"ỷ":{"ha":710,"x_min":96,"x_max":710,"o":"m 114 -282 l 276 13 l 96 685 l 158 685 l 314 72 l 646 685 l 710 685 l 178 -282 l 114 -282 m 385 735 l 379 761 q 438 778 408 768 q 490 806 468 788 q 513 857 511 824 q 474 915 514 897 q 382 932 435 932 l 360 932 l 365 969 l 383 969 q 509 939 460 969 q 556 854 558 908 q 527 788 554 811 q 461 754 500 765 q 385 735 422 743 z "},"ȳ":{"ha":710,"x_min":96,"x_max":710,"o":"m 114 -282 l 276 13 l 96 685 l 158 685 l 314 72 l 646 685 l 710 685 l 178 -282 l 114 -282 m 246 857 l 250 894 l 615 894 l 610 857 l 246 857 z "},"ỹ":{"ha":710,"x_min":96,"x_max":710,"o":"m 114 -282 l 276 13 l 96 685 l 158 685 l 314 72 l 646 685 l 710 685 l 178 -282 l 114 -282 m 521 803 q 453 826 474 803 q 418 876 433 850 q 390 917 404 900 q 346 935 375 935 q 281 903 308 935 q 247 817 254 872 l 211 819 q 257 934 221 893 q 347 975 293 975 q 410 952 390 975 q 443 903 429 929 q 474 859 458 876 q 521 842 490 842 q 581 877 553 842 q 615 969 608 913 l 653 967 q 605 847 642 890 q 521 803 568 803 z "},"z":{"ha":660,"x_min":10,"x_max":647,"o":"m 10 0 l 15 49 l 581 642 l 586 635 l 124 635 l 131 685 l 647 685 l 639 632 l 76 38 l 72 50 l 553 50 l 544 0 l 10 0 z "},"ź":{"ha":660,"x_min":10,"x_max":647,"o":"m 10 0 l 15 49 l 581 642 l 586 635 l 124 635 l 131 685 l 647 685 l 639 632 l 76 38 l 72 50 l 553 50 l 544 0 l 10 0 m 363 774 l 525 968 l 589 968 l 410 774 l 363 774 z "},"ž":{"ha":660,"x_min":10,"x_max":647,"o":"m 10 0 l 15 49 l 581 642 l 586 635 l 124 635 l 131 685 l 647 685 l 639 632 l 76 38 l 72 50 l 553 50 l 544 0 l 10 0 m 392 764 l 222 968 l 269 968 l 397 817 l 568 968 l 618 968 l 392 764 z "},"ż":{"ha":660,"x_min":10,"x_max":647,"o":"m 10 0 l 15 49 l 581 642 l 586 635 l 124 635 l 131 685 l 647 685 l 639 632 l 76 38 l 72 50 l 553 50 l 544 0 l 10 0 m 365 828 l 385 968 l 456 968 l 436 828 l 365 828 z "},"ﬁ":{"ha":651,"x_min":56,"x_max":621,"o":"m 89 0 l 178 639 l 56 639 l 63 685 l 185 685 l 193 746 q 238 874 204 822 q 323 951 271 925 q 442 976 375 976 q 543 960 500 976 q 621 914 586 943 l 589 876 q 525 915 561 901 q 444 929 489 929 q 315 886 367 929 q 250 739 264 843 l 242 685 l 551 685 l 544 639 l 235 639 l 144 0 l 89 0 m 436 0 l 533 685 l 590 685 l 493 0 l 436 0 z "},"ﬂ":{"ha":693,"x_min":56,"x_max":617,"o":"m 524 -8 q 451 18 478 -8 q 425 100 425 44 q 426 119 425 108 q 428 138 426 129 l 535 888 q 485 919 513 908 q 425 929 458 929 q 302 883 347 929 q 243 742 257 838 l 235 685 l 390 685 l 382 639 l 228 639 l 138 0 l 81 0 l 171 639 l 56 639 l 63 685 l 178 685 l 186 746 q 233 881 199 831 q 317 954 268 932 q 422 976 367 976 q 519 960 478 976 q 593 911 560 943 l 486 143 q 485 128 485 136 q 485 111 485 119 q 500 60 485 75 q 543 44 515 44 q 576 48 558 44 q 617 58 593 51 l 613 7 q 565 -4 588 0 q 524 -8 542 -8 z "},"ª":{"ha":675,"x_min":128,"x_max":515,"o":"m 290 481 q 173 519 218 481 q 128 622 128 558 q 179 728 128 693 q 314 763 231 763 l 479 763 q 479 778 479 769 q 479 794 479 786 q 439 903 476 865 q 331 942 401 942 q 240 920 276 942 q 175 858 203 899 l 146 879 q 226 954 183 932 q 328 976 269 976 q 467 927 418 976 q 515 785 515 878 l 515 489 l 481 489 l 481 597 q 290 481 413 481 m 297 517 q 401 549 357 517 q 475 639 446 581 q 478 683 476 661 q 479 728 479 704 l 315 728 q 206 700 244 728 q 168 622 168 672 q 204 544 168 572 q 297 517 240 517 z "},"º":{"ha":715,"x_min":128,"x_max":586,"o":"m 358 493 q 240 526 292 493 q 158 613 188 558 q 128 735 128 667 q 158 857 128 803 q 240 944 188 911 q 358 976 293 976 q 475 944 424 976 q 556 858 526 913 q 586 735 586 803 q 556 612 586 667 q 475 525 526 557 q 358 493 424 493 m 358 529 q 456 556 414 529 q 522 630 499 583 q 546 735 546 676 q 522 840 546 793 q 456 914 499 888 q 358 940 414 940 q 259 914 301 940 q 192 840 217 888 q 168 735 168 793 q 192 630 168 676 q 258 556 215 583 q 358 529 301 529 z "},"Δ":{"ha":917,"x_min":33,"x_max":786,"o":"m 33 0 l 517 968 l 572 968 l 786 0 l 33 0 m 128 56 l 708 56 l 536 889 l 128 56 z "},"Ω":{"ha":1089,"x_min":7,"x_max":932,"o":"m 7 0 l 15 57 l 279 57 l 297 99 q 130 259 188 168 q 72 472 72 350 q 105 663 72 572 q 201 825 138 754 q 355 938 264 896 q 560 979 446 979 q 760 935 676 979 q 888 810 843 890 q 932 621 932 729 q 891 409 932 506 q 772 235 850 313 q 583 96 694 157 l 588 57 l 850 57 l 843 0 l 517 0 l 532 107 q 717 244 642 168 q 831 415 793 321 q 869 619 869 508 q 789 841 869 760 q 557 922 708 922 q 375 885 454 922 q 242 782 296 847 q 160 634 188 717 q 132 461 132 551 q 185 262 132 349 q 347 107 238 175 l 333 0 l 7 0 z "},"μ":{"ha":731,"x_min":24,"x_max":664,"o":"m 24 -244 l 154 685 l 213 685 l 153 260 q 149 231 151 246 q 147 203 147 215 q 187 85 147 126 q 307 43 226 43 q 426 74 375 43 q 509 163 476 106 q 551 297 542 221 l 606 685 l 664 685 l 567 0 l 510 0 l 533 158 l 539 150 q 439 33 504 74 q 292 -8 374 -8 q 184 21 225 -8 q 132 107 143 50 l 82 -244 l 24 -244 z "},"π":{"ha":768,"x_min":106,"x_max":757,"o":"m 631 -8 q 526 26 561 -8 q 492 135 492 61 q 493 165 492 149 q 497 201 494 182 l 558 635 l 253 635 l 163 0 l 106 0 l 194 635 l 107 635 l 115 685 l 757 685 l 750 635 l 615 635 l 557 215 q 553 180 554 196 q 553 151 553 164 q 575 71 553 96 q 644 46 597 46 q 667 48 656 46 q 689 53 678 50 l 696 4 q 662 -6 676 -4 q 631 -8 647 -8 z "},"⁄":{"ha":221,"x_min":-224,"x_max":483,"o":"m -224 0 l 439 968 l 483 968 l -179 0 l -224 0 z "},"½":{"ha":960,"x_min":63,"x_max":933,"o":"m 151 388 l 218 865 l 229 844 l 63 844 l 65 874 l 178 874 q 210 883 197 874 q 226 914 224 892 l 233 968 l 268 968 l 186 388 l 151 388 m 68 0 l 731 968 l 775 968 l 113 0 l 68 0 m 522 0 l 528 36 q 595 84 557 58 q 675 141 633 110 q 756 207 717 172 q 828 281 796 242 q 879 360 860 319 q 899 446 899 401 q 869 524 899 494 q 782 553 839 553 q 701 533 736 553 q 644 476 667 513 q 615 392 622 440 l 582 396 q 604 474 588 439 q 647 535 621 510 q 708 572 674 560 q 785 585 743 585 q 864 568 831 585 q 915 520 897 551 q 933 446 933 489 q 915 358 933 401 q 865 274 896 314 q 795 199 835 235 q 714 131 756 163 q 633 73 672 100 q 563 25 593 46 l 564 32 l 900 32 l 896 0 l 522 0 z "},"¼":{"ha":999,"x_min":63,"x_max":965,"o":"m 151 388 l 218 865 l 229 844 l 63 844 l 65 874 l 178 874 q 210 883 197 874 q 226 914 224 892 l 233 968 l 268 968 l 186 388 l 151 388 m 68 0 l 731 968 l 775 968 l 113 0 l 68 0 m 811 0 l 831 140 l 533 140 l 538 171 l 892 581 l 928 581 l 871 172 l 965 172 l 961 140 l 865 140 l 846 0 l 811 0 m 564 160 l 564 172 l 836 172 l 886 543 l 889 540 l 564 160 z "},"¾":{"ha":1178,"x_min":28,"x_max":1144,"o":"m 207 382 q 111 400 151 382 q 49 451 71 418 q 28 529 28 485 q 28 542 28 535 q 31 557 29 550 l 65 557 q 63 544 64 550 q 63 533 63 538 q 101 447 63 478 q 208 415 140 415 q 301 435 260 415 q 367 490 343 456 q 390 569 390 525 q 376 624 390 603 q 335 658 361 646 q 276 675 308 669 q 211 681 244 681 l 213 708 q 302 722 260 708 q 372 766 344 736 q 399 843 399 796 q 367 914 399 888 q 283 940 335 940 q 208 925 242 940 q 154 881 175 910 q 128 817 133 853 l 94 819 q 127 900 101 865 q 194 954 153 935 q 285 974 235 974 q 363 958 329 974 q 415 913 396 942 q 435 846 435 883 q 415 772 435 804 q 360 720 394 740 q 283 693 326 700 l 283 699 q 349 682 315 696 q 403 640 382 668 q 425 568 425 613 q 397 475 425 517 q 320 408 369 433 q 207 382 271 382 m 247 0 l 910 968 l 954 968 l 292 0 l 247 0 m 989 0 l 1010 140 l 713 140 l 717 171 l 1069 581 l 1106 581 l 1049 172 l 1144 172 l 1139 140 l 1044 140 l 1024 0 l 989 0 m 743 160 l 742 172 l 1014 172 l 1065 543 l 1068 540 l 743 160 z "},"⅛":{"ha":964,"x_min":63,"x_max":925,"o":"m 151 388 l 218 865 l 229 844 l 63 844 l 65 874 l 178 874 q 210 883 197 874 q 226 914 224 892 l 233 968 l 268 968 l 186 388 l 151 388 m 68 0 l 731 968 l 775 968 l 113 0 l 68 0 m 711 -6 q 629 10 667 -6 q 568 58 592 26 q 544 140 544 90 q 561 216 544 181 q 610 278 578 251 q 689 317 642 304 q 637 358 654 329 q 618 424 619 388 q 643 508 618 472 q 708 565 668 544 q 793 586 749 586 q 860 570 831 586 q 908 526 890 554 q 925 460 925 499 q 910 394 925 424 q 872 345 896 365 q 819 315 849 325 q 892 268 867 303 q 918 182 918 233 q 890 87 918 129 q 816 19 863 44 q 711 -6 769 -6 m 711 28 q 800 49 761 28 q 862 106 839 71 q 885 185 885 142 q 849 269 885 239 q 753 300 813 300 q 667 281 707 300 q 603 227 628 263 q 579 144 579 192 q 597 78 579 104 q 646 40 615 53 q 711 28 676 28 m 756 326 q 823 343 792 326 q 873 388 854 360 q 892 456 892 417 q 865 526 892 500 q 792 553 838 553 q 724 537 756 553 q 672 491 692 521 q 653 424 653 461 q 681 352 653 378 q 756 326 708 326 z "},"⅜":{"ha":1142,"x_min":28,"x_max":1104,"o":"m 207 382 q 111 400 151 382 q 49 451 71 418 q 28 529 28 485 q 28 542 28 535 q 31 557 29 550 l 65 557 q 63 544 64 550 q 63 533 63 538 q 101 447 63 478 q 208 415 140 415 q 301 435 260 415 q 367 490 343 456 q 390 569 390 525 q 376 624 390 603 q 335 658 361 646 q 276 675 308 669 q 211 681 244 681 l 213 708 q 302 722 260 708 q 372 766 344 736 q 399 843 399 796 q 367 914 399 888 q 283 940 335 940 q 208 925 242 940 q 154 881 175 910 q 128 817 133 853 l 94 819 q 127 900 101 865 q 194 954 153 935 q 285 974 235 974 q 363 958 329 974 q 415 913 396 942 q 435 846 435 883 q 415 772 435 804 q 360 720 394 740 q 283 693 326 700 l 283 699 q 349 682 315 696 q 403 640 382 668 q 425 568 425 613 q 397 475 425 517 q 320 408 369 433 q 207 382 271 382 m 247 0 l 910 968 l 954 968 l 292 0 l 247 0 m 889 -6 q 808 10 846 -6 q 747 58 769 26 q 724 140 724 90 q 740 216 724 181 q 788 278 756 251 q 867 317 821 304 q 815 358 833 329 q 797 424 797 388 q 822 508 796 472 q 888 565 847 544 q 972 586 928 586 q 1040 570 1010 586 q 1087 526 1069 554 q 1104 460 1104 499 q 1090 394 1104 424 q 1051 345 1075 365 q 997 315 1028 325 q 1071 268 1044 303 q 1097 182 1097 233 q 1069 87 1097 129 q 994 19 1042 44 q 889 -6 947 -6 m 890 28 q 979 49 940 28 q 1040 106 1018 71 q 1063 185 1063 142 q 1027 269 1063 239 q 932 300 992 300 q 847 281 886 300 q 783 227 807 263 q 758 144 758 192 q 776 78 758 104 q 824 40 794 53 q 890 28 854 28 m 933 326 q 1001 343 969 326 q 1051 388 1032 360 q 1071 456 1071 417 q 1043 526 1071 500 q 971 553 1015 553 q 902 537 933 553 q 851 491 871 521 q 832 424 832 461 q 860 352 832 378 q 933 326 888 326 z "}}}
